<?xml version="1.0" encoding="utf-8"?>
<svg xmlns="http://www.w3.org/2000/svg" xmlns:xlink="http://www.w3.org/1999/xlink" width="350" height="300" viewBox="0 0 1400 1200">
<defs>
  <clipPath id="clip870">
    <rect x="0" y="0" width="1400" height="1200"/>
  </clipPath>
</defs>
<path clip-path="url(#clip870)" d="
M0 1200 L1400 1200 L1400 0 L0 0  Z
  " fill="#ffffff" fill-rule="evenodd" fill-opacity="1"/>
<defs>
  <clipPath id="clip871">
    <rect x="280" y="0" width="981" height="981"/>
  </clipPath>
</defs>
<path clip-path="url(#clip870)" d="
M299.027 947.582 L1352.76 947.582 L1352.76 47.2441 L299.027 47.2441  Z
  " fill="#ffffff" fill-rule="evenodd" fill-opacity="1"/>
<defs>
  <clipPath id="clip872">
    <rect x="299" y="47" width="1055" height="901"/>
  </clipPath>
</defs>
<polyline clip-path="url(#clip870)" style="stroke:#000000; stroke-linecap:butt; stroke-linejoin:round; stroke-width:4; stroke-opacity:1; fill:none" points="
  299.027,947.582 1352.76,947.582 
  "/>
<polyline clip-path="url(#clip870)" style="stroke:#000000; stroke-linecap:butt; stroke-linejoin:round; stroke-width:4; stroke-opacity:1; fill:none" points="
  328.85,947.582 328.85,928.685 
  "/>
<polyline clip-path="url(#clip870)" style="stroke:#000000; stroke-linecap:butt; stroke-linejoin:round; stroke-width:4; stroke-opacity:1; fill:none" points="
  825.892,947.582 825.892,928.685 
  "/>
<polyline clip-path="url(#clip870)" style="stroke:#000000; stroke-linecap:butt; stroke-linejoin:round; stroke-width:4; stroke-opacity:1; fill:none" points="
  1322.93,947.582 1322.93,928.685 
  "/>
<g clip-path="url(#clip870)">
<text style="fill:#000000; fill-opacity:1; font-family:Arial,Helvetica Neue,Helvetica,sans-serif; font-size:89px; text-anchor:middle;" transform="rotate(0, 328.85, 1036.78)" x="328.85" y="1036.78">1</text>
</g>
<g clip-path="url(#clip870)">
<text style="fill:#000000; fill-opacity:1; font-family:Arial,Helvetica Neue,Helvetica,sans-serif; font-size:89px; text-anchor:middle;" transform="rotate(0, 825.892, 1036.78)" x="825.892" y="1036.78">2</text>
</g>
<g clip-path="url(#clip870)">
<text style="fill:#000000; fill-opacity:1; font-family:Arial,Helvetica Neue,Helvetica,sans-serif; font-size:89px; text-anchor:middle;" transform="rotate(0, 1322.93, 1036.78)" x="1322.93" y="1036.78">3</text>
</g>
<g clip-path="url(#clip870)">
<text style="fill:#000000; fill-opacity:1; font-family:Arial,Helvetica Neue,Helvetica,sans-serif; font-size:89px; text-anchor:middle;" transform="rotate(0, 825.892, 1144.21)" x="825.892" y="1144.21">Affinity type t</text>
</g>
<polyline clip-path="url(#clip870)" style="stroke:#000000; stroke-linecap:butt; stroke-linejoin:round; stroke-width:4; stroke-opacity:1; fill:none" points="
  299.027,947.582 299.027,47.2441 
  "/>
<polyline clip-path="url(#clip870)" style="stroke:#000000; stroke-linecap:butt; stroke-linejoin:round; stroke-width:4; stroke-opacity:1; fill:none" points="
  299.027,770.099 317.925,770.099 
  "/>
<polyline clip-path="url(#clip870)" style="stroke:#000000; stroke-linecap:butt; stroke-linejoin:round; stroke-width:4; stroke-opacity:1; fill:none" points="
  299.027,534.021 317.925,534.021 
  "/>
<polyline clip-path="url(#clip870)" style="stroke:#000000; stroke-linecap:butt; stroke-linejoin:round; stroke-width:4; stroke-opacity:1; fill:none" points="
  299.027,297.944 317.925,297.944 
  "/>
<polyline clip-path="url(#clip870)" style="stroke:#000000; stroke-linecap:butt; stroke-linejoin:round; stroke-width:4; stroke-opacity:1; fill:none" points="
  299.027,61.8663 317.925,61.8663 
  "/>
<g clip-path="url(#clip870)">
<text style="fill:#000000; fill-opacity:1; font-family:Arial,Helvetica Neue,Helvetica,sans-serif; font-size:89px; text-anchor:end;" transform="rotate(0, 278.027, 802.599)" x="278.027" y="802.599">0.2</text>
</g>
<g clip-path="url(#clip870)">
<text style="fill:#000000; fill-opacity:1; font-family:Arial,Helvetica Neue,Helvetica,sans-serif; font-size:89px; text-anchor:end;" transform="rotate(0, 278.027, 566.521)" x="278.027" y="566.521">0.3</text>
</g>
<g clip-path="url(#clip870)">
<text style="fill:#000000; fill-opacity:1; font-family:Arial,Helvetica Neue,Helvetica,sans-serif; font-size:89px; text-anchor:end;" transform="rotate(0, 278.027, 330.444)" x="278.027" y="330.444">0.4</text>
</g>
<g clip-path="url(#clip870)">
<text style="fill:#000000; fill-opacity:1; font-family:Arial,Helvetica Neue,Helvetica,sans-serif; font-size:89px; text-anchor:end;" transform="rotate(0, 278.027, 94.3663)" x="278.027" y="94.3663">0.5</text>
</g>
<g clip-path="url(#clip870)">
<text style="fill:#000000; fill-opacity:1; font-family:Arial,Helvetica Neue,Helvetica,sans-serif; font-size:89px; text-anchor:middle;" transform="rotate(-90, 115.267, 497.413)" x="115.267" y="497.413">Affinity</text>
</g>
<path clip-path="url(#clip872)" d="
M328.85 902.616 L825.892 351.067 L1322.93 112.304 L1322.93 131.59 L825.892 386.907 L328.85 922.101  Z
  " fill="#0000ff" fill-rule="evenodd" fill-opacity="0.3"/>
<polyline clip-path="url(#clip872)" style="stroke:#0000ff; stroke-linecap:butt; stroke-linejoin:round; stroke-width:10; stroke-opacity:1; fill:none" points="
  328.85,902.616 825.892,351.067 1322.93,112.304 
  "/>
<circle clip-path="url(#clip872)" cx="328.85" cy="902.616" r="28" fill="#0000ff" fill-rule="evenodd" fill-opacity="1" stroke="none"/>
<circle clip-path="url(#clip872)" cx="825.892" cy="351.067" r="28" fill="#0000ff" fill-rule="evenodd" fill-opacity="1" stroke="none"/>
<circle clip-path="url(#clip872)" cx="1322.93" cy="112.304" r="28" fill="#0000ff" fill-rule="evenodd" fill-opacity="1" stroke="none"/>
<path clip-path="url(#clip872)" d="
M328.85 902.616 L825.892 351.067 L1322.93 112.304 L1322.93 72.7254 L825.892 329.833 L328.85 888.816  Z
  " fill="#0000ff" fill-rule="evenodd" fill-opacity="0.3"/>
<polyline clip-path="url(#clip872)" style="stroke:#0000ff; stroke-linecap:butt; stroke-linejoin:round; stroke-width:10; stroke-opacity:1; fill:none" points="
  328.85,902.616 825.892,351.067 1322.93,112.304 
  "/>
<circle clip-path="url(#clip872)" cx="328.85" cy="902.616" r="28" fill="#0000ff" fill-rule="evenodd" fill-opacity="1" stroke="none"/>
<circle clip-path="url(#clip872)" cx="825.892" cy="351.067" r="28" fill="#0000ff" fill-rule="evenodd" fill-opacity="1" stroke="none"/>
<circle clip-path="url(#clip872)" cx="1322.93" cy="112.304" r="28" fill="#0000ff" fill-rule="evenodd" fill-opacity="1" stroke="none"/>
<path clip-path="url(#clip872)" d="
M328.85 712.847 L825.892 435.21 L1322.93 217.929 L1322.93 248.214 L825.892 469.321 L328.85 738.456  Z
  " fill="#008000" fill-rule="evenodd" fill-opacity="0.3"/>
<polyline clip-path="url(#clip872)" style="stroke:#008000; stroke-linecap:butt; stroke-linejoin:round; stroke-width:10; stroke-opacity:1; fill:none" points="
  328.85,712.847 825.892,435.21 1322.93,217.929 
  "/>
<circle clip-path="url(#clip872)" cx="328.85" cy="712.847" r="28" fill="#008000" fill-rule="evenodd" fill-opacity="1" stroke="none"/>
<circle clip-path="url(#clip872)" cx="825.892" cy="435.21" r="28" fill="#008000" fill-rule="evenodd" fill-opacity="1" stroke="none"/>
<circle clip-path="url(#clip872)" cx="1322.93" cy="217.929" r="28" fill="#008000" fill-rule="evenodd" fill-opacity="1" stroke="none"/>
<path clip-path="url(#clip872)" d="
M328.85 712.847 L825.892 435.21 L1322.93 217.929 L1322.93 178.102 L825.892 407.61 L328.85 690.27  Z
  " fill="#008000" fill-rule="evenodd" fill-opacity="0.3"/>
<polyline clip-path="url(#clip872)" style="stroke:#008000; stroke-linecap:butt; stroke-linejoin:round; stroke-width:10; stroke-opacity:1; fill:none" points="
  328.85,712.847 825.892,435.21 1322.93,217.929 
  "/>
<circle clip-path="url(#clip872)" cx="328.85" cy="712.847" r="28" fill="#008000" fill-rule="evenodd" fill-opacity="1" stroke="none"/>
<circle clip-path="url(#clip872)" cx="825.892" cy="435.21" r="28" fill="#008000" fill-rule="evenodd" fill-opacity="1" stroke="none"/>
<circle clip-path="url(#clip872)" cx="1322.93" cy="217.929" r="28" fill="#008000" fill-rule="evenodd" fill-opacity="1" stroke="none"/>
</svg>
