<?xml version="1.0" encoding="utf-8"?>
<svg xmlns="http://www.w3.org/2000/svg" xmlns:xlink="http://www.w3.org/1999/xlink" width="350" height="300" viewBox="0 0 1400 1200">
<defs>
  <clipPath id="clip630">
    <rect x="0" y="0" width="1400" height="1200"/>
  </clipPath>
</defs>
<path clip-path="url(#clip630)" d="
M0 1200 L1400 1200 L1400 0 L0 0  Z
  " fill="#ffffff" fill-rule="evenodd" fill-opacity="1"/>
<defs>
  <clipPath id="clip631">
    <rect x="280" y="0" width="981" height="981"/>
  </clipPath>
</defs>
<path clip-path="url(#clip630)" d="
M299.027 947.582 L1352.76 947.582 L1352.76 47.2441 L299.027 47.2441  Z
  " fill="#ffffff" fill-rule="evenodd" fill-opacity="1"/>
<defs>
  <clipPath id="clip632">
    <rect x="299" y="47" width="1055" height="901"/>
  </clipPath>
</defs>
<polyline clip-path="url(#clip630)" style="stroke:#000000; stroke-linecap:butt; stroke-linejoin:round; stroke-width:4; stroke-opacity:1; fill:none" points="
  299.027,947.582 1352.76,947.582 
  "/>
<polyline clip-path="url(#clip630)" style="stroke:#000000; stroke-linecap:butt; stroke-linejoin:round; stroke-width:4; stroke-opacity:1; fill:none" points="
  328.85,947.582 328.85,928.685 
  "/>
<polyline clip-path="url(#clip630)" style="stroke:#000000; stroke-linecap:butt; stroke-linejoin:round; stroke-width:4; stroke-opacity:1; fill:none" points="
  660.211,947.582 660.211,928.685 
  "/>
<polyline clip-path="url(#clip630)" style="stroke:#000000; stroke-linecap:butt; stroke-linejoin:round; stroke-width:4; stroke-opacity:1; fill:none" points="
  991.572,947.582 991.572,928.685 
  "/>
<polyline clip-path="url(#clip630)" style="stroke:#000000; stroke-linecap:butt; stroke-linejoin:round; stroke-width:4; stroke-opacity:1; fill:none" points="
  1322.93,947.582 1322.93,928.685 
  "/>
<g clip-path="url(#clip630)">
<text style="fill:#000000; fill-opacity:1; font-family:Arial,Helvetica Neue,Helvetica,sans-serif; font-size:89px; text-anchor:middle;" transform="rotate(0, 328.85, 1036.78)" x="328.85" y="1036.78">1</text>
</g>
<g clip-path="url(#clip630)">
<text style="fill:#000000; fill-opacity:1; font-family:Arial,Helvetica Neue,Helvetica,sans-serif; font-size:89px; text-anchor:middle;" transform="rotate(0, 660.211, 1036.78)" x="660.211" y="1036.78">2</text>
</g>
<g clip-path="url(#clip630)">
<text style="fill:#000000; fill-opacity:1; font-family:Arial,Helvetica Neue,Helvetica,sans-serif; font-size:89px; text-anchor:middle;" transform="rotate(0, 991.572, 1036.78)" x="991.572" y="1036.78">3</text>
</g>
<g clip-path="url(#clip630)">
<text style="fill:#000000; fill-opacity:1; font-family:Arial,Helvetica Neue,Helvetica,sans-serif; font-size:89px; text-anchor:middle;" transform="rotate(0, 1322.93, 1036.78)" x="1322.93" y="1036.78">4</text>
</g>
<g clip-path="url(#clip630)">
<text style="fill:#000000; fill-opacity:1; font-family:Arial,Helvetica Neue,Helvetica,sans-serif; font-size:89px; text-anchor:middle;" transform="rotate(0, 825.892, 1144.21)" x="825.892" y="1144.21">Affinity type t</text>
</g>
<polyline clip-path="url(#clip630)" style="stroke:#000000; stroke-linecap:butt; stroke-linejoin:round; stroke-width:4; stroke-opacity:1; fill:none" points="
  299.027,947.582 299.027,47.2441 
  "/>
<polyline clip-path="url(#clip630)" style="stroke:#000000; stroke-linecap:butt; stroke-linejoin:round; stroke-width:4; stroke-opacity:1; fill:none" points="
  299.027,872.385 317.925,872.385 
  "/>
<polyline clip-path="url(#clip630)" style="stroke:#000000; stroke-linecap:butt; stroke-linejoin:round; stroke-width:4; stroke-opacity:1; fill:none" points="
  299.027,645.591 317.925,645.591 
  "/>
<polyline clip-path="url(#clip630)" style="stroke:#000000; stroke-linecap:butt; stroke-linejoin:round; stroke-width:4; stroke-opacity:1; fill:none" points="
  299.027,418.796 317.925,418.796 
  "/>
<polyline clip-path="url(#clip630)" style="stroke:#000000; stroke-linecap:butt; stroke-linejoin:round; stroke-width:4; stroke-opacity:1; fill:none" points="
  299.027,192.002 317.925,192.002 
  "/>
<g clip-path="url(#clip630)">
<text style="fill:#000000; fill-opacity:1; font-family:Arial,Helvetica Neue,Helvetica,sans-serif; font-size:89px; text-anchor:end;" transform="rotate(0, 278.027, 904.885)" x="278.027" y="904.885">0.1</text>
</g>
<g clip-path="url(#clip630)">
<text style="fill:#000000; fill-opacity:1; font-family:Arial,Helvetica Neue,Helvetica,sans-serif; font-size:89px; text-anchor:end;" transform="rotate(0, 278.027, 678.091)" x="278.027" y="678.091">0.2</text>
</g>
<g clip-path="url(#clip630)">
<text style="fill:#000000; fill-opacity:1; font-family:Arial,Helvetica Neue,Helvetica,sans-serif; font-size:89px; text-anchor:end;" transform="rotate(0, 278.027, 451.296)" x="278.027" y="451.296">0.3</text>
</g>
<g clip-path="url(#clip630)">
<text style="fill:#000000; fill-opacity:1; font-family:Arial,Helvetica Neue,Helvetica,sans-serif; font-size:89px; text-anchor:end;" transform="rotate(0, 278.027, 224.502)" x="278.027" y="224.502">0.4</text>
</g>
<g clip-path="url(#clip630)">
<text style="fill:#000000; fill-opacity:1; font-family:Arial,Helvetica Neue,Helvetica,sans-serif; font-size:89px; text-anchor:middle;" transform="rotate(-90, 115.267, 497.413)" x="115.267" y="497.413">Affinity</text>
</g>
<path clip-path="url(#clip632)" d="
M328.85 835.334 L660.211 638.854 L991.572 408.692 L1322.93 245.894 L1322.93 339.669 L991.572 500.221 L660.211 717.182 L328.85 875.205  Z
  " fill="#0000ff" fill-rule="evenodd" fill-opacity="0.3"/>
<polyline clip-path="url(#clip632)" style="stroke:#0000ff; stroke-linecap:butt; stroke-linejoin:round; stroke-width:10; stroke-opacity:1; fill:none" points="
  328.85,835.334 660.211,638.854 991.572,408.692 1322.93,245.894 
  "/>
<circle clip-path="url(#clip632)" cx="328.85" cy="835.334" r="28" fill="#0000ff" fill-rule="evenodd" fill-opacity="1" stroke="none"/>
<circle clip-path="url(#clip632)" cx="660.211" cy="638.854" r="28" fill="#0000ff" fill-rule="evenodd" fill-opacity="1" stroke="none"/>
<circle clip-path="url(#clip632)" cx="991.572" cy="408.692" r="28" fill="#0000ff" fill-rule="evenodd" fill-opacity="1" stroke="none"/>
<circle clip-path="url(#clip632)" cx="1322.93" cy="245.894" r="28" fill="#0000ff" fill-rule="evenodd" fill-opacity="1" stroke="none"/>
<path clip-path="url(#clip632)" d="
M328.85 835.334 L660.211 638.854 L991.572 408.692 L1322.93 245.894 L1322.93 135.162 L991.572 324.172 L660.211 573.529 L328.85 792.409  Z
  " fill="#0000ff" fill-rule="evenodd" fill-opacity="0.3"/>
<polyline clip-path="url(#clip632)" style="stroke:#0000ff; stroke-linecap:butt; stroke-linejoin:round; stroke-width:10; stroke-opacity:1; fill:none" points="
  328.85,835.334 660.211,638.854 991.572,408.692 1322.93,245.894 
  "/>
<circle clip-path="url(#clip632)" cx="328.85" cy="835.334" r="28" fill="#0000ff" fill-rule="evenodd" fill-opacity="1" stroke="none"/>
<circle clip-path="url(#clip632)" cx="660.211" cy="638.854" r="28" fill="#0000ff" fill-rule="evenodd" fill-opacity="1" stroke="none"/>
<circle clip-path="url(#clip632)" cx="991.572" cy="408.692" r="28" fill="#0000ff" fill-rule="evenodd" fill-opacity="1" stroke="none"/>
<circle clip-path="url(#clip632)" cx="1322.93" cy="245.894" r="28" fill="#0000ff" fill-rule="evenodd" fill-opacity="1" stroke="none"/>
<path clip-path="url(#clip632)" d="
M328.85 891.622 L660.211 684.065 L991.572 385.385 L1322.93 167.703 L1322.93 280.76 L991.572 471.975 L660.211 756.224 L328.85 922.101  Z
  " fill="#008000" fill-rule="evenodd" fill-opacity="0.3"/>
<polyline clip-path="url(#clip632)" style="stroke:#008000; stroke-linecap:butt; stroke-linejoin:round; stroke-width:10; stroke-opacity:1; fill:none" points="
  328.85,891.622 660.211,684.065 991.572,385.385 1322.93,167.703 
  "/>
<circle clip-path="url(#clip632)" cx="328.85" cy="891.622" r="28" fill="#008000" fill-rule="evenodd" fill-opacity="1" stroke="none"/>
<circle clip-path="url(#clip632)" cx="660.211" cy="684.065" r="28" fill="#008000" fill-rule="evenodd" fill-opacity="1" stroke="none"/>
<circle clip-path="url(#clip632)" cx="991.572" cy="385.385" r="28" fill="#008000" fill-rule="evenodd" fill-opacity="1" stroke="none"/>
<circle clip-path="url(#clip632)" cx="1322.93" cy="167.703" r="28" fill="#008000" fill-rule="evenodd" fill-opacity="1" stroke="none"/>
<path clip-path="url(#clip632)" d="
M328.85 891.622 L660.211 684.065 L991.572 385.385 L1322.93 167.703 L1322.93 72.7254 L991.572 281.827 L660.211 614.206 L328.85 857.73  Z
  " fill="#008000" fill-rule="evenodd" fill-opacity="0.3"/>
<polyline clip-path="url(#clip632)" style="stroke:#008000; stroke-linecap:butt; stroke-linejoin:round; stroke-width:10; stroke-opacity:1; fill:none" points="
  328.85,891.622 660.211,684.065 991.572,385.385 1322.93,167.703 
  "/>
<circle clip-path="url(#clip632)" cx="328.85" cy="891.622" r="28" fill="#008000" fill-rule="evenodd" fill-opacity="1" stroke="none"/>
<circle clip-path="url(#clip632)" cx="660.211" cy="684.065" r="28" fill="#008000" fill-rule="evenodd" fill-opacity="1" stroke="none"/>
<circle clip-path="url(#clip632)" cx="991.572" cy="385.385" r="28" fill="#008000" fill-rule="evenodd" fill-opacity="1" stroke="none"/>
<circle clip-path="url(#clip632)" cx="1322.93" cy="167.703" r="28" fill="#008000" fill-rule="evenodd" fill-opacity="1" stroke="none"/>
</svg>
