<?xml version="1.0" encoding="utf-8"?>
<svg xmlns="http://www.w3.org/2000/svg" xmlns:xlink="http://www.w3.org/1999/xlink" width="350" height="300" viewBox="0 0 1400 1200">
<defs>
  <clipPath id="clip430">
    <rect x="0" y="0" width="1400" height="1200"/>
  </clipPath>
</defs>
<path clip-path="url(#clip430)" d="
M0 1200 L1400 1200 L1400 0 L0 0  Z
  " fill="#ffffff" fill-rule="evenodd" fill-opacity="1"/>
<defs>
  <clipPath id="clip431">
    <rect x="280" y="0" width="981" height="981"/>
  </clipPath>
</defs>
<path clip-path="url(#clip430)" d="
M399.386 947.582 L1352.76 947.582 L1352.76 47.2441 L399.386 47.2441  Z
  " fill="#ffffff" fill-rule="evenodd" fill-opacity="1"/>
<defs>
  <clipPath id="clip432">
    <rect x="399" y="47" width="954" height="901"/>
  </clipPath>
</defs>
<polyline clip-path="url(#clip430)" style="stroke:#000000; stroke-linecap:butt; stroke-linejoin:round; stroke-width:4; stroke-opacity:1; fill:none" points="
  399.386,947.582 1352.76,947.582 
  "/>
<polyline clip-path="url(#clip430)" style="stroke:#000000; stroke-linecap:butt; stroke-linejoin:round; stroke-width:4; stroke-opacity:1; fill:none" points="
  426.368,947.582 426.368,928.685 
  "/>
<polyline clip-path="url(#clip430)" style="stroke:#000000; stroke-linecap:butt; stroke-linejoin:round; stroke-width:4; stroke-opacity:1; fill:none" points="
  1325.77,947.582 1325.77,928.685 
  "/>
<g clip-path="url(#clip430)">
<text style="fill:#000000; fill-opacity:1; font-family:Arial,Helvetica Neue,Helvetica,sans-serif; font-size:89px; text-anchor:middle;" transform="rotate(0, 426.368, 1036.78)" x="426.368" y="1036.78">1</text>
</g>
<g clip-path="url(#clip430)">
<text style="fill:#000000; fill-opacity:1; font-family:Arial,Helvetica Neue,Helvetica,sans-serif; font-size:89px; text-anchor:middle;" transform="rotate(0, 1325.77, 1036.78)" x="1325.77" y="1036.78">2</text>
</g>
<g clip-path="url(#clip430)">
<text style="fill:#000000; fill-opacity:1; font-family:Arial,Helvetica Neue,Helvetica,sans-serif; font-size:89px; text-anchor:middle;" transform="rotate(0, 876.071, 1144.21)" x="876.071" y="1144.21">Affinity type t</text>
</g>
<polyline clip-path="url(#clip430)" style="stroke:#000000; stroke-linecap:butt; stroke-linejoin:round; stroke-width:4; stroke-opacity:1; fill:none" points="
  399.386,947.582 399.386,47.2441 
  "/>
<polyline clip-path="url(#clip430)" style="stroke:#000000; stroke-linecap:butt; stroke-linejoin:round; stroke-width:4; stroke-opacity:1; fill:none" points="
  399.386,901.951 418.284,901.951 
  "/>
<polyline clip-path="url(#clip430)" style="stroke:#000000; stroke-linecap:butt; stroke-linejoin:round; stroke-width:4; stroke-opacity:1; fill:none" points="
  399.386,767.105 418.284,767.105 
  "/>
<polyline clip-path="url(#clip430)" style="stroke:#000000; stroke-linecap:butt; stroke-linejoin:round; stroke-width:4; stroke-opacity:1; fill:none" points="
  399.386,632.259 418.284,632.259 
  "/>
<polyline clip-path="url(#clip430)" style="stroke:#000000; stroke-linecap:butt; stroke-linejoin:round; stroke-width:4; stroke-opacity:1; fill:none" points="
  399.386,497.413 418.284,497.413 
  "/>
<polyline clip-path="url(#clip430)" style="stroke:#000000; stroke-linecap:butt; stroke-linejoin:round; stroke-width:4; stroke-opacity:1; fill:none" points="
  399.386,362.567 418.284,362.567 
  "/>
<polyline clip-path="url(#clip430)" style="stroke:#000000; stroke-linecap:butt; stroke-linejoin:round; stroke-width:4; stroke-opacity:1; fill:none" points="
  399.386,227.721 418.284,227.721 
  "/>
<polyline clip-path="url(#clip430)" style="stroke:#000000; stroke-linecap:butt; stroke-linejoin:round; stroke-width:4; stroke-opacity:1; fill:none" points="
  399.386,92.8751 418.284,92.8751 
  "/>
<g clip-path="url(#clip430)">
<text style="fill:#000000; fill-opacity:1; font-family:Arial,Helvetica Neue,Helvetica,sans-serif; font-size:89px; text-anchor:end;" transform="rotate(0, 378.386, 934.451)" x="378.386" y="934.451">−0.15</text>
</g>
<g clip-path="url(#clip430)">
<text style="fill:#000000; fill-opacity:1; font-family:Arial,Helvetica Neue,Helvetica,sans-serif; font-size:89px; text-anchor:end;" transform="rotate(0, 378.386, 799.605)" x="378.386" y="799.605">−0.10</text>
</g>
<g clip-path="url(#clip430)">
<text style="fill:#000000; fill-opacity:1; font-family:Arial,Helvetica Neue,Helvetica,sans-serif; font-size:89px; text-anchor:end;" transform="rotate(0, 378.386, 664.759)" x="378.386" y="664.759">−0.05</text>
</g>
<g clip-path="url(#clip430)">
<text style="fill:#000000; fill-opacity:1; font-family:Arial,Helvetica Neue,Helvetica,sans-serif; font-size:89px; text-anchor:end;" transform="rotate(0, 378.386, 529.913)" x="378.386" y="529.913">0.00</text>
</g>
<g clip-path="url(#clip430)">
<text style="fill:#000000; fill-opacity:1; font-family:Arial,Helvetica Neue,Helvetica,sans-serif; font-size:89px; text-anchor:end;" transform="rotate(0, 378.386, 395.067)" x="378.386" y="395.067">0.05</text>
</g>
<g clip-path="url(#clip430)">
<text style="fill:#000000; fill-opacity:1; font-family:Arial,Helvetica Neue,Helvetica,sans-serif; font-size:89px; text-anchor:end;" transform="rotate(0, 378.386, 260.221)" x="378.386" y="260.221">0.10</text>
</g>
<g clip-path="url(#clip430)">
<text style="fill:#000000; fill-opacity:1; font-family:Arial,Helvetica Neue,Helvetica,sans-serif; font-size:89px; text-anchor:end;" transform="rotate(0, 378.386, 125.375)" x="378.386" y="125.375">0.15</text>
</g>
<g clip-path="url(#clip430)">
<text style="fill:#000000; fill-opacity:1; font-family:Arial,Helvetica Neue,Helvetica,sans-serif; font-size:89px; text-anchor:middle;" transform="rotate(-90, 115.267, 497.413)" x="115.267" y="497.413">Normalized Bias</text>
</g>
<polyline clip-path="url(#clip432)" style="stroke:#808080; stroke-linecap:butt; stroke-linejoin:round; stroke-width:8; stroke-opacity:1; fill:none" points="
  426.368,497.413 1325.77,497.413 
  "/>
<path clip-path="url(#clip432)" d="
M426.368 480.589 L1325.77 514.238 L1325.77 561.479 L426.368 533.093  Z
  " fill="#0000ff" fill-rule="evenodd" fill-opacity="0.3"/>
<polyline clip-path="url(#clip432)" style="stroke:#0000ff; stroke-linecap:butt; stroke-linejoin:round; stroke-width:10; stroke-opacity:1; fill:none" points="
  426.368,480.589 1325.77,514.238 
  "/>
<circle clip-path="url(#clip432)" cx="426.368" cy="480.589" r="28" fill="#0000ff" fill-rule="evenodd" fill-opacity="1" stroke="none"/>
<circle clip-path="url(#clip432)" cx="1325.77" cy="514.238" r="28" fill="#0000ff" fill-rule="evenodd" fill-opacity="1" stroke="none"/>
<path clip-path="url(#clip432)" d="
M426.368 480.589 L1325.77 514.238 L1325.77 461.733 L426.368 433.347  Z
  " fill="#0000ff" fill-rule="evenodd" fill-opacity="0.3"/>
<polyline clip-path="url(#clip432)" style="stroke:#0000ff; stroke-linecap:butt; stroke-linejoin:round; stroke-width:10; stroke-opacity:1; fill:none" points="
  426.368,480.589 1325.77,514.238 
  "/>
<circle clip-path="url(#clip432)" cx="426.368" cy="480.589" r="28" fill="#0000ff" fill-rule="evenodd" fill-opacity="1" stroke="none"/>
<circle clip-path="url(#clip432)" cx="1325.77" cy="514.238" r="28" fill="#0000ff" fill-rule="evenodd" fill-opacity="1" stroke="none"/>
<path clip-path="url(#clip432)" d="
M426.368 879.776 L1325.77 115.05 L1325.77 150.899 L426.368 922.101  Z
  " fill="#008000" fill-rule="evenodd" fill-opacity="0.3"/>
<polyline clip-path="url(#clip432)" style="stroke:#008000; stroke-linecap:butt; stroke-linejoin:round; stroke-width:10; stroke-opacity:1; fill:none" points="
  426.368,879.776 1325.77,115.05 
  "/>
<path clip-path="url(#clip432)" d="M426.368 847.776 L394.368 879.776 L426.368 911.776 L458.368 879.776 L426.368 847.776 Z" fill="#008000" fill-rule="evenodd" fill-opacity="1" stroke="none"/>
<path clip-path="url(#clip432)" d="M1325.77 83.0498 L1293.77 115.05 L1325.77 147.05 L1357.77 115.05 L1325.77 83.0498 Z" fill="#008000" fill-rule="evenodd" fill-opacity="1" stroke="none"/>
<path clip-path="url(#clip432)" d="
M426.368 879.776 L1325.77 115.05 L1325.77 72.7254 L426.368 843.928  Z
  " fill="#008000" fill-rule="evenodd" fill-opacity="0.3"/>
<polyline clip-path="url(#clip432)" style="stroke:#008000; stroke-linecap:butt; stroke-linejoin:round; stroke-width:10; stroke-opacity:1; fill:none" points="
  426.368,879.776 1325.77,115.05 
  "/>
<path clip-path="url(#clip432)" d="M426.368 847.776 L394.368 879.776 L426.368 911.776 L458.368 879.776 L426.368 847.776 Z" fill="#008000" fill-rule="evenodd" fill-opacity="1" stroke="none"/>
<path clip-path="url(#clip432)" d="M1325.77 83.0498 L1293.77 115.05 L1325.77 147.05 L1357.77 115.05 L1325.77 83.0498 Z" fill="#008000" fill-rule="evenodd" fill-opacity="1" stroke="none"/>
</svg>
