<?xml version="1.0" encoding="utf-8"?>
<svg xmlns="http://www.w3.org/2000/svg" xmlns:xlink="http://www.w3.org/1999/xlink" width="350" height="300" viewBox="0 0 1400 1200">
<defs>
  <clipPath id="clip950">
    <rect x="0" y="0" width="1400" height="1200"/>
  </clipPath>
</defs>
<path clip-path="url(#clip950)" d="
M0 1200 L1400 1200 L1400 0 L0 0  Z
  " fill="#ffffff" fill-rule="evenodd" fill-opacity="1"/>
<defs>
  <clipPath id="clip951">
    <rect x="280" y="0" width="981" height="981"/>
  </clipPath>
</defs>
<path clip-path="url(#clip950)" d="
M223.758 947.582 L1352.76 947.582 L1352.76 47.2441 L223.758 47.2441  Z
  " fill="#ffffff" fill-rule="evenodd" fill-opacity="1"/>
<defs>
  <clipPath id="clip952">
    <rect x="223" y="47" width="1130" height="901"/>
  </clipPath>
</defs>
<polyline clip-path="url(#clip950)" style="stroke:#000000; stroke-linecap:butt; stroke-linejoin:round; stroke-width:4; stroke-opacity:1; fill:none" points="
  223.758,947.582 1352.76,947.582 
  "/>
<polyline clip-path="url(#clip950)" style="stroke:#000000; stroke-linecap:butt; stroke-linejoin:round; stroke-width:4; stroke-opacity:1; fill:none" points="
  255.711,947.582 255.711,928.685 
  "/>
<polyline clip-path="url(#clip950)" style="stroke:#000000; stroke-linecap:butt; stroke-linejoin:round; stroke-width:4; stroke-opacity:1; fill:none" points="
  610.742,947.582 610.742,928.685 
  "/>
<polyline clip-path="url(#clip950)" style="stroke:#000000; stroke-linecap:butt; stroke-linejoin:round; stroke-width:4; stroke-opacity:1; fill:none" points="
  965.772,947.582 965.772,928.685 
  "/>
<polyline clip-path="url(#clip950)" style="stroke:#000000; stroke-linecap:butt; stroke-linejoin:round; stroke-width:4; stroke-opacity:1; fill:none" points="
  1320.8,947.582 1320.8,928.685 
  "/>
<g clip-path="url(#clip950)">
<text style="fill:#000000; fill-opacity:1; font-family:Arial,Helvetica Neue,Helvetica,sans-serif; font-size:89px; text-anchor:middle;" transform="rotate(0, 255.711, 1036.78)" x="255.711" y="1036.78">1</text>
</g>
<g clip-path="url(#clip950)">
<text style="fill:#000000; fill-opacity:1; font-family:Arial,Helvetica Neue,Helvetica,sans-serif; font-size:89px; text-anchor:middle;" transform="rotate(0, 610.742, 1036.78)" x="610.742" y="1036.78">2</text>
</g>
<g clip-path="url(#clip950)">
<text style="fill:#000000; fill-opacity:1; font-family:Arial,Helvetica Neue,Helvetica,sans-serif; font-size:89px; text-anchor:middle;" transform="rotate(0, 965.772, 1036.78)" x="965.772" y="1036.78">3</text>
</g>
<g clip-path="url(#clip950)">
<text style="fill:#000000; fill-opacity:1; font-family:Arial,Helvetica Neue,Helvetica,sans-serif; font-size:89px; text-anchor:middle;" transform="rotate(0, 1320.8, 1036.78)" x="1320.8" y="1036.78">4</text>
</g>
<g clip-path="url(#clip950)">
<text style="fill:#000000; fill-opacity:1; font-family:Arial,Helvetica Neue,Helvetica,sans-serif; font-size:89px; text-anchor:middle;" transform="rotate(0, 788.257, 1144.21)" x="788.257" y="1144.21">Affinity type t</text>
</g>
<polyline clip-path="url(#clip950)" style="stroke:#000000; stroke-linecap:butt; stroke-linejoin:round; stroke-width:4; stroke-opacity:1; fill:none" points="
  223.758,947.582 223.758,47.2441 
  "/>
<polyline clip-path="url(#clip950)" style="stroke:#000000; stroke-linecap:butt; stroke-linejoin:round; stroke-width:4; stroke-opacity:1; fill:none" points="
  223.758,810.492 242.656,810.492 
  "/>
<polyline clip-path="url(#clip950)" style="stroke:#000000; stroke-linecap:butt; stroke-linejoin:round; stroke-width:4; stroke-opacity:1; fill:none" points="
  223.758,588.07 242.656,588.07 
  "/>
<polyline clip-path="url(#clip950)" style="stroke:#000000; stroke-linecap:butt; stroke-linejoin:round; stroke-width:4; stroke-opacity:1; fill:none" points="
  223.758,365.648 242.656,365.648 
  "/>
<polyline clip-path="url(#clip950)" style="stroke:#000000; stroke-linecap:butt; stroke-linejoin:round; stroke-width:4; stroke-opacity:1; fill:none" points="
  223.758,143.226 242.656,143.226 
  "/>
<g clip-path="url(#clip950)">
<text style="fill:#000000; fill-opacity:1; font-family:Arial,Helvetica Neue,Helvetica,sans-serif; font-size:89px; text-anchor:end;" transform="rotate(0, 202.758, 842.992)" x="202.758" y="842.992">1</text>
</g>
<g clip-path="url(#clip950)">
<text style="fill:#000000; fill-opacity:1; font-family:Arial,Helvetica Neue,Helvetica,sans-serif; font-size:89px; text-anchor:end;" transform="rotate(0, 202.758, 620.57)" x="202.758" y="620.57">2</text>
</g>
<g clip-path="url(#clip950)">
<text style="fill:#000000; fill-opacity:1; font-family:Arial,Helvetica Neue,Helvetica,sans-serif; font-size:89px; text-anchor:end;" transform="rotate(0, 202.758, 398.148)" x="202.758" y="398.148">3</text>
</g>
<g clip-path="url(#clip950)">
<text style="fill:#000000; fill-opacity:1; font-family:Arial,Helvetica Neue,Helvetica,sans-serif; font-size:89px; text-anchor:end;" transform="rotate(0, 202.758, 175.726)" x="202.758" y="175.726">4</text>
</g>
<g clip-path="url(#clip950)">
<text style="fill:#000000; fill-opacity:1; font-family:Arial,Helvetica Neue,Helvetica,sans-serif; font-size:89px; text-anchor:middle;" transform="rotate(-90, 115.267, 497.413)" x="115.267" y="497.413">Affinity / Baseline </text>
</g>
<polyline clip-path="url(#clip952)" style="stroke:#808080; stroke-linecap:butt; stroke-linejoin:round; stroke-width:8; stroke-opacity:1; fill:none" points="
  255.711,810.492 1320.8,810.492 
  "/>
<path clip-path="url(#clip952)" d="
M255.711 805.493 L610.742 879.715 L965.772 872.975 L1320.8 515.45 L1320.8 567.017 L965.772 901.265 L610.742 899.763 L255.711 842.229  Z
  " fill="#0000ff" fill-rule="evenodd" fill-opacity="0.3"/>
<polyline clip-path="url(#clip952)" style="stroke:#0000ff; stroke-linecap:butt; stroke-linejoin:round; stroke-width:10; stroke-opacity:1; fill:none" points="
  255.711,805.493 610.742,879.715 965.772,872.975 1320.8,515.45 
  "/>
<circle clip-path="url(#clip952)" cx="255.711" cy="805.493" r="28" fill="#0000ff" fill-rule="evenodd" fill-opacity="1" stroke="none"/>
<circle clip-path="url(#clip952)" cx="610.742" cy="879.715" r="28" fill="#0000ff" fill-rule="evenodd" fill-opacity="1" stroke="none"/>
<circle clip-path="url(#clip952)" cx="965.772" cy="872.975" r="28" fill="#0000ff" fill-rule="evenodd" fill-opacity="1" stroke="none"/>
<circle clip-path="url(#clip952)" cx="1320.8" cy="515.45" r="28" fill="#0000ff" fill-rule="evenodd" fill-opacity="1" stroke="none"/>
<path clip-path="url(#clip952)" d="
M255.711 805.493 L610.742 879.715 L965.772 872.975 L1320.8 515.45 L1320.8 447.167 L965.772 854.197 L610.742 857.118 L255.711 765.803  Z
  " fill="#0000ff" fill-rule="evenodd" fill-opacity="0.3"/>
<polyline clip-path="url(#clip952)" style="stroke:#0000ff; stroke-linecap:butt; stroke-linejoin:round; stroke-width:10; stroke-opacity:1; fill:none" points="
  255.711,805.493 610.742,879.715 965.772,872.975 1320.8,515.45 
  "/>
<circle clip-path="url(#clip952)" cx="255.711" cy="805.493" r="28" fill="#0000ff" fill-rule="evenodd" fill-opacity="1" stroke="none"/>
<circle clip-path="url(#clip952)" cx="610.742" cy="879.715" r="28" fill="#0000ff" fill-rule="evenodd" fill-opacity="1" stroke="none"/>
<circle clip-path="url(#clip952)" cx="965.772" cy="872.975" r="28" fill="#0000ff" fill-rule="evenodd" fill-opacity="1" stroke="none"/>
<circle clip-path="url(#clip952)" cx="1320.8" cy="515.45" r="28" fill="#0000ff" fill-rule="evenodd" fill-opacity="1" stroke="none"/>
<path clip-path="url(#clip952)" d="
M255.711 894.617 L610.742 900.446 L965.772 836.267 L1320.8 176.201 L1320.8 263.719 L965.772 863.089 L610.742 917.908 L255.711 922.101  Z
  " fill="#008000" fill-rule="evenodd" fill-opacity="0.3"/>
<polyline clip-path="url(#clip952)" style="stroke:#008000; stroke-linecap:butt; stroke-linejoin:round; stroke-width:10; stroke-opacity:1; fill:none" points="
  255.711,894.617 610.742,900.446 965.772,836.267 1320.8,176.201 
  "/>
<circle clip-path="url(#clip952)" cx="255.711" cy="894.617" r="28" fill="#008000" fill-rule="evenodd" fill-opacity="1" stroke="none"/>
<circle clip-path="url(#clip952)" cx="610.742" cy="900.446" r="28" fill="#008000" fill-rule="evenodd" fill-opacity="1" stroke="none"/>
<circle clip-path="url(#clip952)" cx="965.772" cy="836.267" r="28" fill="#008000" fill-rule="evenodd" fill-opacity="1" stroke="none"/>
<circle clip-path="url(#clip952)" cx="1320.8" cy="176.201" r="28" fill="#008000" fill-rule="evenodd" fill-opacity="1" stroke="none"/>
<path clip-path="url(#clip952)" d="
M255.711 894.617 L610.742 900.446 L965.772 836.267 L1320.8 176.201 L1320.8 72.7254 L965.772 810.735 L610.742 882.159 L255.711 875.603  Z
  " fill="#008000" fill-rule="evenodd" fill-opacity="0.3"/>
<polyline clip-path="url(#clip952)" style="stroke:#008000; stroke-linecap:butt; stroke-linejoin:round; stroke-width:10; stroke-opacity:1; fill:none" points="
  255.711,894.617 610.742,900.446 965.772,836.267 1320.8,176.201 
  "/>
<circle clip-path="url(#clip952)" cx="255.711" cy="894.617" r="28" fill="#008000" fill-rule="evenodd" fill-opacity="1" stroke="none"/>
<circle clip-path="url(#clip952)" cx="610.742" cy="900.446" r="28" fill="#008000" fill-rule="evenodd" fill-opacity="1" stroke="none"/>
<circle clip-path="url(#clip952)" cx="965.772" cy="836.267" r="28" fill="#008000" fill-rule="evenodd" fill-opacity="1" stroke="none"/>
<circle clip-path="url(#clip952)" cx="1320.8" cy="176.201" r="28" fill="#008000" fill-rule="evenodd" fill-opacity="1" stroke="none"/>
</svg>
