<?xml version="1.0" encoding="utf-8"?>
<svg xmlns="http://www.w3.org/2000/svg" xmlns:xlink="http://www.w3.org/1999/xlink" width="350" height="300" viewBox="0 0 1400 1200">
<defs>
  <clipPath id="clip660">
    <rect x="0" y="0" width="1400" height="1200"/>
  </clipPath>
</defs>
<path clip-path="url(#clip660)" d="
M0 1200 L1400 1200 L1400 0 L0 0  Z
  " fill="#ffffff" fill-rule="evenodd" fill-opacity="1"/>
<defs>
  <clipPath id="clip661">
    <rect x="280" y="0" width="981" height="981"/>
  </clipPath>
</defs>
<path clip-path="url(#clip660)" d="
M416.635 947.582 L1352.76 947.582 L1352.76 47.2441 L416.635 47.2441  Z
  " fill="#ffffff" fill-rule="evenodd" fill-opacity="1"/>
<defs>
  <clipPath id="clip662">
    <rect x="416" y="47" width="937" height="901"/>
  </clipPath>
</defs>
<polyline clip-path="url(#clip660)" style="stroke:#000000; stroke-linecap:butt; stroke-linejoin:round; stroke-width:4; stroke-opacity:1; fill:none" points="
  416.635,947.582 1352.76,947.582 
  "/>
<polyline clip-path="url(#clip660)" style="stroke:#000000; stroke-linecap:butt; stroke-linejoin:round; stroke-width:4; stroke-opacity:1; fill:none" points="
  602.252,947.582 602.252,928.685 
  "/>
<polyline clip-path="url(#clip660)" style="stroke:#000000; stroke-linecap:butt; stroke-linejoin:round; stroke-width:4; stroke-opacity:1; fill:none" points="
  840.937,947.582 840.937,928.685 
  "/>
<polyline clip-path="url(#clip660)" style="stroke:#000000; stroke-linecap:butt; stroke-linejoin:round; stroke-width:4; stroke-opacity:1; fill:none" points="
  1079.62,947.582 1079.62,928.685 
  "/>
<polyline clip-path="url(#clip660)" style="stroke:#000000; stroke-linecap:butt; stroke-linejoin:round; stroke-width:4; stroke-opacity:1; fill:none" points="
  1318.31,947.582 1318.31,928.685 
  "/>
<g clip-path="url(#clip660)">
<text style="fill:#000000; fill-opacity:1; font-family:Arial,Helvetica Neue,Helvetica,sans-serif; font-size:89px; text-anchor:middle;" transform="rotate(0, 602.252, 1036.78)" x="602.252" y="1036.78">3</text>
</g>
<g clip-path="url(#clip660)">
<text style="fill:#000000; fill-opacity:1; font-family:Arial,Helvetica Neue,Helvetica,sans-serif; font-size:89px; text-anchor:middle;" transform="rotate(0, 840.937, 1036.78)" x="840.937" y="1036.78">6</text>
</g>
<g clip-path="url(#clip660)">
<text style="fill:#000000; fill-opacity:1; font-family:Arial,Helvetica Neue,Helvetica,sans-serif; font-size:89px; text-anchor:middle;" transform="rotate(0, 1079.62, 1036.78)" x="1079.62" y="1036.78">9</text>
</g>
<g clip-path="url(#clip660)">
<text style="fill:#000000; fill-opacity:1; font-family:Arial,Helvetica Neue,Helvetica,sans-serif; font-size:89px; text-anchor:middle;" transform="rotate(0, 1318.31, 1036.78)" x="1318.31" y="1036.78">12</text>
</g>
<g clip-path="url(#clip660)">
<text style="fill:#000000; fill-opacity:1; font-family:Arial,Helvetica Neue,Helvetica,sans-serif; font-size:89px; text-anchor:middle;" transform="rotate(0, 884.696, 1144.21)" x="884.696" y="1144.21">Affinity type t</text>
</g>
<polyline clip-path="url(#clip660)" style="stroke:#000000; stroke-linecap:butt; stroke-linejoin:round; stroke-width:4; stroke-opacity:1; fill:none" points="
  416.635,947.582 416.635,47.2441 
  "/>
<polyline clip-path="url(#clip660)" style="stroke:#000000; stroke-linecap:butt; stroke-linejoin:round; stroke-width:4; stroke-opacity:1; fill:none" points="
  416.635,872.888 435.533,872.888 
  "/>
<polyline clip-path="url(#clip660)" style="stroke:#000000; stroke-linecap:butt; stroke-linejoin:round; stroke-width:4; stroke-opacity:1; fill:none" points="
  416.635,737.598 435.533,737.598 
  "/>
<polyline clip-path="url(#clip660)" style="stroke:#000000; stroke-linecap:butt; stroke-linejoin:round; stroke-width:4; stroke-opacity:1; fill:none" points="
  416.635,602.308 435.533,602.308 
  "/>
<polyline clip-path="url(#clip660)" style="stroke:#000000; stroke-linecap:butt; stroke-linejoin:round; stroke-width:4; stroke-opacity:1; fill:none" points="
  416.635,467.018 435.533,467.018 
  "/>
<polyline clip-path="url(#clip660)" style="stroke:#000000; stroke-linecap:butt; stroke-linejoin:round; stroke-width:4; stroke-opacity:1; fill:none" points="
  416.635,331.729 435.533,331.729 
  "/>
<polyline clip-path="url(#clip660)" style="stroke:#000000; stroke-linecap:butt; stroke-linejoin:round; stroke-width:4; stroke-opacity:1; fill:none" points="
  416.635,196.439 435.533,196.439 
  "/>
<g clip-path="url(#clip660)">
<text style="fill:#000000; fill-opacity:1; font-family:Arial,Helvetica Neue,Helvetica,sans-serif; font-size:89px; text-anchor:start;" transform="rotate(0, 152.579, 917.377)" x="152.579" y="917.377">10</text>
</g>
<g clip-path="url(#clip660)">
<text style="fill:#000000; fill-opacity:1; font-family:Arial,Helvetica Neue,Helvetica,sans-serif; font-size:73px; text-anchor:start;" transform="rotate(0, 252.938, 865.983)" x="252.938" y="865.983">−3.0</text>
</g>
<g clip-path="url(#clip660)">
<text style="fill:#000000; fill-opacity:1; font-family:Arial,Helvetica Neue,Helvetica,sans-serif; font-size:89px; text-anchor:start;" transform="rotate(0, 152.579, 782.087)" x="152.579" y="782.087">10</text>
</g>
<g clip-path="url(#clip660)">
<text style="fill:#000000; fill-opacity:1; font-family:Arial,Helvetica Neue,Helvetica,sans-serif; font-size:73px; text-anchor:start;" transform="rotate(0, 252.938, 730.693)" x="252.938" y="730.693">−2.5</text>
</g>
<g clip-path="url(#clip660)">
<text style="fill:#000000; fill-opacity:1; font-family:Arial,Helvetica Neue,Helvetica,sans-serif; font-size:89px; text-anchor:start;" transform="rotate(0, 152.579, 646.798)" x="152.579" y="646.798">10</text>
</g>
<g clip-path="url(#clip660)">
<text style="fill:#000000; fill-opacity:1; font-family:Arial,Helvetica Neue,Helvetica,sans-serif; font-size:73px; text-anchor:start;" transform="rotate(0, 252.938, 595.403)" x="252.938" y="595.403">−2.0</text>
</g>
<g clip-path="url(#clip660)">
<text style="fill:#000000; fill-opacity:1; font-family:Arial,Helvetica Neue,Helvetica,sans-serif; font-size:89px; text-anchor:start;" transform="rotate(0, 152.579, 511.508)" x="152.579" y="511.508">10</text>
</g>
<g clip-path="url(#clip660)">
<text style="fill:#000000; fill-opacity:1; font-family:Arial,Helvetica Neue,Helvetica,sans-serif; font-size:73px; text-anchor:start;" transform="rotate(0, 252.938, 460.113)" x="252.938" y="460.113">−1.5</text>
</g>
<g clip-path="url(#clip660)">
<text style="fill:#000000; fill-opacity:1; font-family:Arial,Helvetica Neue,Helvetica,sans-serif; font-size:89px; text-anchor:start;" transform="rotate(0, 152.579, 376.218)" x="152.579" y="376.218">10</text>
</g>
<g clip-path="url(#clip660)">
<text style="fill:#000000; fill-opacity:1; font-family:Arial,Helvetica Neue,Helvetica,sans-serif; font-size:73px; text-anchor:start;" transform="rotate(0, 252.938, 324.823)" x="252.938" y="324.823">−1.0</text>
</g>
<g clip-path="url(#clip660)">
<text style="fill:#000000; fill-opacity:1; font-family:Arial,Helvetica Neue,Helvetica,sans-serif; font-size:89px; text-anchor:start;" transform="rotate(0, 152.579, 240.928)" x="152.579" y="240.928">10</text>
</g>
<g clip-path="url(#clip660)">
<text style="fill:#000000; fill-opacity:1; font-family:Arial,Helvetica Neue,Helvetica,sans-serif; font-size:73px; text-anchor:start;" transform="rotate(0, 252.938, 189.534)" x="252.938" y="189.534">−0.5</text>
</g>
<g clip-path="url(#clip660)">
<text style="fill:#000000; fill-opacity:1; font-family:Arial,Helvetica Neue,Helvetica,sans-serif; font-size:89px; text-anchor:middle;" transform="rotate(-90, 115.267, 497.413)" x="115.267" y="497.413">Affinity</text>
</g>
<polyline clip-path="url(#clip662)" style="stroke:#daa523; stroke-linecap:butt; stroke-linejoin:round; stroke-width:10; stroke-opacity:1; fill:none" points="
  443.129,329.377 522.691,346.023 602.252,379.829 681.814,318.783 761.375,378.138 840.937,365.421 920.498,404.36 1000.06,362.446 1079.62,408.633 1159.18,417.677 
  1238.74,351.246 1318.31,267.153 
  "/>
<circle clip-path="url(#clip662)" cx="443.129" cy="329.377" r="32" fill="#daa523" fill-rule="evenodd" fill-opacity="1" stroke="none"/>
<circle clip-path="url(#clip662)" cx="522.691" cy="346.023" r="32" fill="#daa523" fill-rule="evenodd" fill-opacity="1" stroke="none"/>
<circle clip-path="url(#clip662)" cx="602.252" cy="379.829" r="32" fill="#daa523" fill-rule="evenodd" fill-opacity="1" stroke="none"/>
<circle clip-path="url(#clip662)" cx="681.814" cy="318.783" r="32" fill="#daa523" fill-rule="evenodd" fill-opacity="1" stroke="none"/>
<circle clip-path="url(#clip662)" cx="761.375" cy="378.138" r="32" fill="#daa523" fill-rule="evenodd" fill-opacity="1" stroke="none"/>
<circle clip-path="url(#clip662)" cx="840.937" cy="365.421" r="32" fill="#daa523" fill-rule="evenodd" fill-opacity="1" stroke="none"/>
<circle clip-path="url(#clip662)" cx="920.498" cy="404.36" r="32" fill="#daa523" fill-rule="evenodd" fill-opacity="1" stroke="none"/>
<circle clip-path="url(#clip662)" cx="1000.06" cy="362.446" r="32" fill="#daa523" fill-rule="evenodd" fill-opacity="1" stroke="none"/>
<circle clip-path="url(#clip662)" cx="1079.62" cy="408.633" r="32" fill="#daa523" fill-rule="evenodd" fill-opacity="1" stroke="none"/>
<circle clip-path="url(#clip662)" cx="1159.18" cy="417.677" r="32" fill="#daa523" fill-rule="evenodd" fill-opacity="1" stroke="none"/>
<circle clip-path="url(#clip662)" cx="1238.74" cy="351.246" r="32" fill="#daa523" fill-rule="evenodd" fill-opacity="1" stroke="none"/>
<circle clip-path="url(#clip662)" cx="1318.31" cy="267.153" r="32" fill="#daa523" fill-rule="evenodd" fill-opacity="1" stroke="none"/>
<polyline clip-path="url(#clip662)" style="stroke:#800080; stroke-linecap:butt; stroke-linejoin:round; stroke-width:10; stroke-opacity:1; fill:none" points="
  443.129,922.101 522.691,895.879 602.252,826.807 681.814,732.974 761.375,732.974 840.937,654.496 920.498,627.673 1000.06,526.406 1079.62,539.804 1159.18,445.97 
  1238.74,336.672 1318.31,86.466 
  "/>
<path clip-path="url(#clip662)" d="M443.129 886.101 L407.129 922.101 L443.129 958.101 L479.129 922.101 L443.129 886.101 Z" fill="#800080" fill-rule="evenodd" fill-opacity="1" stroke="none"/>
<path clip-path="url(#clip662)" d="M522.691 859.879 L486.691 895.879 L522.691 931.879 L558.691 895.879 L522.691 859.879 Z" fill="#800080" fill-rule="evenodd" fill-opacity="1" stroke="none"/>
<path clip-path="url(#clip662)" d="M602.252 790.807 L566.252 826.807 L602.252 862.807 L638.252 826.807 L602.252 790.807 Z" fill="#800080" fill-rule="evenodd" fill-opacity="1" stroke="none"/>
<path clip-path="url(#clip662)" d="M681.814 696.974 L645.814 732.974 L681.814 768.974 L717.814 732.974 L681.814 696.974 Z" fill="#800080" fill-rule="evenodd" fill-opacity="1" stroke="none"/>
<path clip-path="url(#clip662)" d="M761.375 696.974 L725.375 732.974 L761.375 768.974 L797.375 732.974 L761.375 696.974 Z" fill="#800080" fill-rule="evenodd" fill-opacity="1" stroke="none"/>
<path clip-path="url(#clip662)" d="M840.937 618.496 L804.937 654.496 L840.937 690.496 L876.937 654.496 L840.937 618.496 Z" fill="#800080" fill-rule="evenodd" fill-opacity="1" stroke="none"/>
<path clip-path="url(#clip662)" d="M920.498 591.673 L884.498 627.673 L920.498 663.673 L956.498 627.673 L920.498 591.673 Z" fill="#800080" fill-rule="evenodd" fill-opacity="1" stroke="none"/>
<path clip-path="url(#clip662)" d="M1000.06 490.406 L964.06 526.406 L1000.06 562.406 L1036.06 526.406 L1000.06 490.406 Z" fill="#800080" fill-rule="evenodd" fill-opacity="1" stroke="none"/>
<path clip-path="url(#clip662)" d="M1079.62 503.804 L1043.62 539.804 L1079.62 575.804 L1115.62 539.804 L1079.62 503.804 Z" fill="#800080" fill-rule="evenodd" fill-opacity="1" stroke="none"/>
<path clip-path="url(#clip662)" d="M1159.18 409.97 L1123.18 445.97 L1159.18 481.97 L1195.18 445.97 L1159.18 409.97 Z" fill="#800080" fill-rule="evenodd" fill-opacity="1" stroke="none"/>
<path clip-path="url(#clip662)" d="M1238.74 300.672 L1202.74 336.672 L1238.74 372.672 L1274.74 336.672 L1238.74 300.672 Z" fill="#800080" fill-rule="evenodd" fill-opacity="1" stroke="none"/>
<path clip-path="url(#clip662)" d="M1318.31 50.466 L1282.31 86.466 L1318.31 122.466 L1354.31 86.466 L1318.31 50.466 Z" fill="#800080" fill-rule="evenodd" fill-opacity="1" stroke="none"/>
</svg>
