<?xml version="1.0" encoding="utf-8"?>
<svg xmlns="http://www.w3.org/2000/svg" xmlns:xlink="http://www.w3.org/1999/xlink" width="350" height="300" viewBox="0 0 1400 1200">
<defs>
  <clipPath id="clip610">
    <rect x="0" y="0" width="1400" height="1200"/>
  </clipPath>
</defs>
<path clip-path="url(#clip610)" d="
M0 1200 L1400 1200 L1400 0 L0 0  Z
  " fill="#ffffff" fill-rule="evenodd" fill-opacity="1"/>
<defs>
  <clipPath id="clip611">
    <rect x="280" y="0" width="981" height="981"/>
  </clipPath>
</defs>
<path clip-path="url(#clip610)" d="
M416.635 947.582 L1352.76 947.582 L1352.76 47.2441 L416.635 47.2441  Z
  " fill="#ffffff" fill-rule="evenodd" fill-opacity="1"/>
<defs>
  <clipPath id="clip612">
    <rect x="416" y="47" width="937" height="901"/>
  </clipPath>
</defs>
<polyline clip-path="url(#clip610)" style="stroke:#000000; stroke-linecap:butt; stroke-linejoin:round; stroke-width:4; stroke-opacity:1; fill:none" points="
  416.635,947.582 1352.76,947.582 
  "/>
<polyline clip-path="url(#clip610)" style="stroke:#000000; stroke-linecap:butt; stroke-linejoin:round; stroke-width:4; stroke-opacity:1; fill:none" points="
  567.514,947.582 567.514,928.685 
  "/>
<polyline clip-path="url(#clip610)" style="stroke:#000000; stroke-linecap:butt; stroke-linejoin:round; stroke-width:4; stroke-opacity:1; fill:none" points="
  816.284,947.582 816.284,928.685 
  "/>
<polyline clip-path="url(#clip610)" style="stroke:#000000; stroke-linecap:butt; stroke-linejoin:round; stroke-width:4; stroke-opacity:1; fill:none" points="
  1065.05,947.582 1065.05,928.685 
  "/>
<polyline clip-path="url(#clip610)" style="stroke:#000000; stroke-linecap:butt; stroke-linejoin:round; stroke-width:4; stroke-opacity:1; fill:none" points="
  1313.82,947.582 1313.82,928.685 
  "/>
<g clip-path="url(#clip610)">
<text style="fill:#000000; fill-opacity:1; font-family:Arial,Helvetica Neue,Helvetica,sans-serif; font-size:89px; text-anchor:middle;" transform="rotate(0, 567.514, 1036.78)" x="567.514" y="1036.78">2</text>
</g>
<g clip-path="url(#clip610)">
<text style="fill:#000000; fill-opacity:1; font-family:Arial,Helvetica Neue,Helvetica,sans-serif; font-size:89px; text-anchor:middle;" transform="rotate(0, 816.284, 1036.78)" x="816.284" y="1036.78">4</text>
</g>
<g clip-path="url(#clip610)">
<text style="fill:#000000; fill-opacity:1; font-family:Arial,Helvetica Neue,Helvetica,sans-serif; font-size:89px; text-anchor:middle;" transform="rotate(0, 1065.05, 1036.78)" x="1065.05" y="1036.78">6</text>
</g>
<g clip-path="url(#clip610)">
<text style="fill:#000000; fill-opacity:1; font-family:Arial,Helvetica Neue,Helvetica,sans-serif; font-size:89px; text-anchor:middle;" transform="rotate(0, 1313.82, 1036.78)" x="1313.82" y="1036.78">8</text>
</g>
<g clip-path="url(#clip610)">
<text style="fill:#000000; fill-opacity:1; font-family:Arial,Helvetica Neue,Helvetica,sans-serif; font-size:89px; text-anchor:middle;" transform="rotate(0, 884.696, 1144.21)" x="884.696" y="1144.21">Affinity type t</text>
</g>
<polyline clip-path="url(#clip610)" style="stroke:#000000; stroke-linecap:butt; stroke-linejoin:round; stroke-width:4; stroke-opacity:1; fill:none" points="
  416.635,947.582 416.635,47.2441 
  "/>
<polyline clip-path="url(#clip610)" style="stroke:#000000; stroke-linecap:butt; stroke-linejoin:round; stroke-width:4; stroke-opacity:1; fill:none" points="
  416.635,872.793 435.533,872.793 
  "/>
<polyline clip-path="url(#clip610)" style="stroke:#000000; stroke-linecap:butt; stroke-linejoin:round; stroke-width:4; stroke-opacity:1; fill:none" points="
  416.635,710.504 435.533,710.504 
  "/>
<polyline clip-path="url(#clip610)" style="stroke:#000000; stroke-linecap:butt; stroke-linejoin:round; stroke-width:4; stroke-opacity:1; fill:none" points="
  416.635,548.215 435.533,548.215 
  "/>
<polyline clip-path="url(#clip610)" style="stroke:#000000; stroke-linecap:butt; stroke-linejoin:round; stroke-width:4; stroke-opacity:1; fill:none" points="
  416.635,385.926 435.533,385.926 
  "/>
<polyline clip-path="url(#clip610)" style="stroke:#000000; stroke-linecap:butt; stroke-linejoin:round; stroke-width:4; stroke-opacity:1; fill:none" points="
  416.635,223.637 435.533,223.637 
  "/>
<g clip-path="url(#clip610)">
<text style="fill:#000000; fill-opacity:1; font-family:Arial,Helvetica Neue,Helvetica,sans-serif; font-size:89px; text-anchor:start;" transform="rotate(0, 152.579, 917.282)" x="152.579" y="917.282">10</text>
</g>
<g clip-path="url(#clip610)">
<text style="fill:#000000; fill-opacity:1; font-family:Arial,Helvetica Neue,Helvetica,sans-serif; font-size:73px; text-anchor:start;" transform="rotate(0, 252.938, 865.888)" x="252.938" y="865.888">−2.5</text>
</g>
<g clip-path="url(#clip610)">
<text style="fill:#000000; fill-opacity:1; font-family:Arial,Helvetica Neue,Helvetica,sans-serif; font-size:89px; text-anchor:start;" transform="rotate(0, 152.579, 754.993)" x="152.579" y="754.993">10</text>
</g>
<g clip-path="url(#clip610)">
<text style="fill:#000000; fill-opacity:1; font-family:Arial,Helvetica Neue,Helvetica,sans-serif; font-size:73px; text-anchor:start;" transform="rotate(0, 252.938, 703.599)" x="252.938" y="703.599">−2.0</text>
</g>
<g clip-path="url(#clip610)">
<text style="fill:#000000; fill-opacity:1; font-family:Arial,Helvetica Neue,Helvetica,sans-serif; font-size:89px; text-anchor:start;" transform="rotate(0, 152.579, 592.704)" x="152.579" y="592.704">10</text>
</g>
<g clip-path="url(#clip610)">
<text style="fill:#000000; fill-opacity:1; font-family:Arial,Helvetica Neue,Helvetica,sans-serif; font-size:73px; text-anchor:start;" transform="rotate(0, 252.938, 541.31)" x="252.938" y="541.31">−1.5</text>
</g>
<g clip-path="url(#clip610)">
<text style="fill:#000000; fill-opacity:1; font-family:Arial,Helvetica Neue,Helvetica,sans-serif; font-size:89px; text-anchor:start;" transform="rotate(0, 152.579, 430.415)" x="152.579" y="430.415">10</text>
</g>
<g clip-path="url(#clip610)">
<text style="fill:#000000; fill-opacity:1; font-family:Arial,Helvetica Neue,Helvetica,sans-serif; font-size:73px; text-anchor:start;" transform="rotate(0, 252.938, 379.02)" x="252.938" y="379.02">−1.0</text>
</g>
<g clip-path="url(#clip610)">
<text style="fill:#000000; fill-opacity:1; font-family:Arial,Helvetica Neue,Helvetica,sans-serif; font-size:89px; text-anchor:start;" transform="rotate(0, 152.579, 268.126)" x="152.579" y="268.126">10</text>
</g>
<g clip-path="url(#clip610)">
<text style="fill:#000000; fill-opacity:1; font-family:Arial,Helvetica Neue,Helvetica,sans-serif; font-size:73px; text-anchor:start;" transform="rotate(0, 252.938, 216.731)" x="252.938" y="216.731">−0.5</text>
</g>
<g clip-path="url(#clip610)">
<text style="fill:#000000; fill-opacity:1; font-family:Arial,Helvetica Neue,Helvetica,sans-serif; font-size:89px; text-anchor:middle;" transform="rotate(-90, 115.267, 497.413)" x="115.267" y="497.413">Affinity</text>
</g>
<polyline clip-path="url(#clip612)" style="stroke:#daa523; stroke-linecap:butt; stroke-linejoin:round; stroke-width:10; stroke-opacity:1; fill:none" points="
  443.129,405.479 567.514,359.512 691.899,376.422 816.284,394.066 940.669,434.618 1065.05,384.968 1189.44,363.239 1313.82,230.105 
  "/>
<circle clip-path="url(#clip612)" cx="443.129" cy="405.479" r="32" fill="#daa523" fill-rule="evenodd" fill-opacity="1" stroke="none"/>
<circle clip-path="url(#clip612)" cx="567.514" cy="359.512" r="32" fill="#daa523" fill-rule="evenodd" fill-opacity="1" stroke="none"/>
<circle clip-path="url(#clip612)" cx="691.899" cy="376.422" r="32" fill="#daa523" fill-rule="evenodd" fill-opacity="1" stroke="none"/>
<circle clip-path="url(#clip612)" cx="816.284" cy="394.066" r="32" fill="#daa523" fill-rule="evenodd" fill-opacity="1" stroke="none"/>
<circle clip-path="url(#clip612)" cx="940.669" cy="434.618" r="32" fill="#daa523" fill-rule="evenodd" fill-opacity="1" stroke="none"/>
<circle clip-path="url(#clip612)" cx="1065.05" cy="384.968" r="32" fill="#daa523" fill-rule="evenodd" fill-opacity="1" stroke="none"/>
<circle clip-path="url(#clip612)" cx="1189.44" cy="363.239" r="32" fill="#daa523" fill-rule="evenodd" fill-opacity="1" stroke="none"/>
<circle clip-path="url(#clip612)" cx="1313.82" cy="230.105" r="32" fill="#daa523" fill-rule="evenodd" fill-opacity="1" stroke="none"/>
<polyline clip-path="url(#clip612)" style="stroke:#800080; stroke-linecap:butt; stroke-linejoin:round; stroke-width:10; stroke-opacity:1; fill:none" points="
  443.129,922.101 567.514,824.393 691.899,791.187 816.284,678.627 940.669,588.977 1065.05,489.211 1189.44,415.741 1313.82,88.9001 
  "/>
<path clip-path="url(#clip612)" d="M443.129 886.101 L407.129 922.101 L443.129 958.101 L479.129 922.101 L443.129 886.101 Z" fill="#800080" fill-rule="evenodd" fill-opacity="1" stroke="none"/>
<path clip-path="url(#clip612)" d="M567.514 788.393 L531.514 824.393 L567.514 860.393 L603.514 824.393 L567.514 788.393 Z" fill="#800080" fill-rule="evenodd" fill-opacity="1" stroke="none"/>
<path clip-path="url(#clip612)" d="M691.899 755.187 L655.899 791.187 L691.899 827.187 L727.899 791.187 L691.899 755.187 Z" fill="#800080" fill-rule="evenodd" fill-opacity="1" stroke="none"/>
<path clip-path="url(#clip612)" d="M816.284 642.627 L780.284 678.627 L816.284 714.627 L852.284 678.627 L816.284 642.627 Z" fill="#800080" fill-rule="evenodd" fill-opacity="1" stroke="none"/>
<path clip-path="url(#clip612)" d="M940.669 552.977 L904.669 588.977 L940.669 624.977 L976.669 588.977 L940.669 552.977 Z" fill="#800080" fill-rule="evenodd" fill-opacity="1" stroke="none"/>
<path clip-path="url(#clip612)" d="M1065.05 453.211 L1029.05 489.211 L1065.05 525.211 L1101.05 489.211 L1065.05 453.211 Z" fill="#800080" fill-rule="evenodd" fill-opacity="1" stroke="none"/>
<path clip-path="url(#clip612)" d="M1189.44 379.741 L1153.44 415.741 L1189.44 451.741 L1225.44 415.741 L1189.44 379.741 Z" fill="#800080" fill-rule="evenodd" fill-opacity="1" stroke="none"/>
<path clip-path="url(#clip612)" d="M1313.82 52.9001 L1277.82 88.9001 L1313.82 124.9 L1349.82 88.9001 L1313.82 52.9001 Z" fill="#800080" fill-rule="evenodd" fill-opacity="1" stroke="none"/>
</svg>
