<?xml version="1.0" encoding="utf-8"?>
<svg xmlns="http://www.w3.org/2000/svg" xmlns:xlink="http://www.w3.org/1999/xlink" width="400" height="300" viewBox="0 0 1600 1200">
<defs>
  <clipPath id="clip220">
    <rect x="0" y="0" width="1600" height="1200"/>
  </clipPath>
</defs>
<path clip-path="url(#clip220)" d="
M0 1200 L1600 1200 L1600 0 L0 0  Z
  " fill="#ffffff" fill-rule="evenodd" fill-opacity="1"/>
<defs>
  <clipPath id="clip221">
    <rect x="320" y="0" width="1121" height="1121"/>
  </clipPath>
</defs>
<path clip-path="url(#clip220)" d="
M341.102 967.792 L1552.76 967.792 L1552.76 47.2441 L341.102 47.2441  Z
  " fill="#ffffff" fill-rule="evenodd" fill-opacity="1"/>
<defs>
  <clipPath id="clip222">
    <rect x="341" y="47" width="1213" height="922"/>
  </clipPath>
</defs>
<polyline clip-path="url(#clip220)" style="stroke:#000000; stroke-linecap:butt; stroke-linejoin:round; stroke-width:4; stroke-opacity:1; fill:none" points="
  341.102,967.792 1552.76,967.792 
  "/>
<polyline clip-path="url(#clip220)" style="stroke:#000000; stroke-linecap:butt; stroke-linejoin:round; stroke-width:4; stroke-opacity:1; fill:none" points="
  647.554,967.792 647.554,948.894 
  "/>
<polyline clip-path="url(#clip220)" style="stroke:#000000; stroke-linecap:butt; stroke-linejoin:round; stroke-width:4; stroke-opacity:1; fill:none" points="
  1083.01,967.792 1083.01,948.894 
  "/>
<polyline clip-path="url(#clip220)" style="stroke:#000000; stroke-linecap:butt; stroke-linejoin:round; stroke-width:4; stroke-opacity:1; fill:none" points="
  1518.46,967.792 1518.46,948.894 
  "/>
<g clip-path="url(#clip220)">
<text style="fill:#000000; fill-opacity:1; font-family:Arial,Helvetica Neue,Helvetica,sans-serif; font-size:89px; text-anchor:middle;" transform="rotate(0, 647.554, 1058.59)" x="647.554" y="1058.59">2.6666667</text>
</g>
<g clip-path="url(#clip220)">
<text style="fill:#000000; fill-opacity:1; font-family:Arial,Helvetica Neue,Helvetica,sans-serif; font-size:89px; text-anchor:middle;" transform="rotate(0, 1083.01, 1058.59)" x="1083.01" y="1058.59">5.3333333</text>
</g>
<g clip-path="url(#clip220)">
<text style="fill:#000000; fill-opacity:1; font-family:Arial,Helvetica Neue,Helvetica,sans-serif; font-size:89px; text-anchor:middle;" transform="rotate(0, 1518.46, 1058.59)" x="1518.46" y="1058.59">8.0000000</text>
</g>
<g clip-path="url(#clip220)">
<text style="fill:#000000; fill-opacity:1; font-family:Arial,Helvetica Neue,Helvetica,sans-serif; font-size:89px; text-anchor:middle;" transform="rotate(0, 946.929, 1167.42)" x="946.929" y="1167.42">Affinity type t</text>
</g>
<polyline clip-path="url(#clip220)" style="stroke:#000000; stroke-linecap:butt; stroke-linejoin:round; stroke-width:4; stroke-opacity:1; fill:none" points="
  341.102,967.792 341.102,47.2441 
  "/>
<polyline clip-path="url(#clip220)" style="stroke:#000000; stroke-linecap:butt; stroke-linejoin:round; stroke-width:4; stroke-opacity:1; fill:none" points="
  341.102,954.848 360,954.848 
  "/>
<polyline clip-path="url(#clip220)" style="stroke:#000000; stroke-linecap:butt; stroke-linejoin:round; stroke-width:4; stroke-opacity:1; fill:none" points="
  341.102,714.659 360,714.659 
  "/>
<polyline clip-path="url(#clip220)" style="stroke:#000000; stroke-linecap:butt; stroke-linejoin:round; stroke-width:4; stroke-opacity:1; fill:none" points="
  341.102,474.47 360,474.47 
  "/>
<polyline clip-path="url(#clip220)" style="stroke:#000000; stroke-linecap:butt; stroke-linejoin:round; stroke-width:4; stroke-opacity:1; fill:none" points="
  341.102,234.28 360,234.28 
  "/>
<g clip-path="url(#clip220)">
<text style="fill:#000000; fill-opacity:1; font-family:Arial,Helvetica Neue,Helvetica,sans-serif; font-size:89px; text-anchor:end;" transform="rotate(0, 317.102, 987.348)" x="317.102" y="987.348">−1.0</text>
</g>
<g clip-path="url(#clip220)">
<text style="fill:#000000; fill-opacity:1; font-family:Arial,Helvetica Neue,Helvetica,sans-serif; font-size:89px; text-anchor:end;" transform="rotate(0, 317.102, 747.159)" x="317.102" y="747.159">−0.5</text>
</g>
<g clip-path="url(#clip220)">
<text style="fill:#000000; fill-opacity:1; font-family:Arial,Helvetica Neue,Helvetica,sans-serif; font-size:89px; text-anchor:end;" transform="rotate(0, 317.102, 506.97)" x="317.102" y="506.97">0.0</text>
</g>
<g clip-path="url(#clip220)">
<text style="fill:#000000; fill-opacity:1; font-family:Arial,Helvetica Neue,Helvetica,sans-serif; font-size:89px; text-anchor:end;" transform="rotate(0, 317.102, 266.78)" x="317.102" y="266.78">0.5</text>
</g>
<g clip-path="url(#clip220)">
<text style="fill:#000000; fill-opacity:1; font-family:Arial,Helvetica Neue,Helvetica,sans-serif; font-size:89px; text-anchor:middle;" transform="rotate(-90, 101.162, 507.518)" x="101.162" y="507.518">Normalized Bias</text>
</g>
<polyline clip-path="url(#clip222)" style="stroke:#808080; stroke-linecap:butt; stroke-linejoin:round; stroke-width:8; stroke-opacity:1; fill:none" points="
  375.394,474.47 1518.46,474.47 
  "/>
<path clip-path="url(#clip222)" d="
M375.394 438.604 L538.69 453.177 L701.985 702.957 L865.281 798.318 L1028.58 817.047 L1191.87 571.44 L1355.17 433.795 L1518.46 330.842 L1518.46 357.23 L1355.17 454.607 
  L1191.87 668.465 L1028.58 868.239 L865.281 839.475 L701.985 763.055 L538.69 462.886 L375.394 445.398  Z
  " fill="#daa523" fill-rule="evenodd" fill-opacity="0.3"/>
<polyline clip-path="url(#clip222)" style="stroke:#daa523; stroke-linecap:butt; stroke-linejoin:round; stroke-width:10; stroke-opacity:1; fill:none" points="
  375.394,438.604 538.69,453.177 701.985,702.957 865.281,798.318 1028.58,817.047 1191.87,571.44 1355.17,433.795 1518.46,330.842 
  "/>
<circle clip-path="url(#clip222)" cx="375.394" cy="438.604" r="32" fill="#daa523" fill-rule="evenodd" fill-opacity="1" stroke="none"/>
<circle clip-path="url(#clip222)" cx="538.69" cy="453.177" r="32" fill="#daa523" fill-rule="evenodd" fill-opacity="1" stroke="none"/>
<circle clip-path="url(#clip222)" cx="701.985" cy="702.957" r="32" fill="#daa523" fill-rule="evenodd" fill-opacity="1" stroke="none"/>
<circle clip-path="url(#clip222)" cx="865.281" cy="798.318" r="32" fill="#daa523" fill-rule="evenodd" fill-opacity="1" stroke="none"/>
<circle clip-path="url(#clip222)" cx="1028.58" cy="817.047" r="32" fill="#daa523" fill-rule="evenodd" fill-opacity="1" stroke="none"/>
<circle clip-path="url(#clip222)" cx="1191.87" cy="571.44" r="32" fill="#daa523" fill-rule="evenodd" fill-opacity="1" stroke="none"/>
<circle clip-path="url(#clip222)" cx="1355.17" cy="433.795" r="32" fill="#daa523" fill-rule="evenodd" fill-opacity="1" stroke="none"/>
<circle clip-path="url(#clip222)" cx="1518.46" cy="330.842" r="32" fill="#daa523" fill-rule="evenodd" fill-opacity="1" stroke="none"/>
<path clip-path="url(#clip222)" d="
M375.394 438.604 L538.69 453.177 L701.985 702.957 L865.281 798.318 L1028.58 817.047 L1191.87 571.44 L1355.17 433.795 L1518.46 330.842 L1518.46 311.156 L1355.17 416.46 
  L1191.87 456.542 L1028.58 761.549 L865.281 754.732 L701.985 633.145 L538.69 440.961 L375.394 430.336  Z
  " fill="#daa523" fill-rule="evenodd" fill-opacity="0.3"/>
<polyline clip-path="url(#clip222)" style="stroke:#daa523; stroke-linecap:butt; stroke-linejoin:round; stroke-width:10; stroke-opacity:1; fill:none" points="
  375.394,438.604 538.69,453.177 701.985,702.957 865.281,798.318 1028.58,817.047 1191.87,571.44 1355.17,433.795 1518.46,330.842 
  "/>
<circle clip-path="url(#clip222)" cx="375.394" cy="438.604" r="32" fill="#daa523" fill-rule="evenodd" fill-opacity="1" stroke="none"/>
<circle clip-path="url(#clip222)" cx="538.69" cy="453.177" r="32" fill="#daa523" fill-rule="evenodd" fill-opacity="1" stroke="none"/>
<circle clip-path="url(#clip222)" cx="701.985" cy="702.957" r="32" fill="#daa523" fill-rule="evenodd" fill-opacity="1" stroke="none"/>
<circle clip-path="url(#clip222)" cx="865.281" cy="798.318" r="32" fill="#daa523" fill-rule="evenodd" fill-opacity="1" stroke="none"/>
<circle clip-path="url(#clip222)" cx="1028.58" cy="817.047" r="32" fill="#daa523" fill-rule="evenodd" fill-opacity="1" stroke="none"/>
<circle clip-path="url(#clip222)" cx="1191.87" cy="571.44" r="32" fill="#daa523" fill-rule="evenodd" fill-opacity="1" stroke="none"/>
<circle clip-path="url(#clip222)" cx="1355.17" cy="433.795" r="32" fill="#daa523" fill-rule="evenodd" fill-opacity="1" stroke="none"/>
<circle clip-path="url(#clip222)" cx="1518.46" cy="330.842" r="32" fill="#daa523" fill-rule="evenodd" fill-opacity="1" stroke="none"/>
<path clip-path="url(#clip222)" d="
M375.394 709.263 L538.69 895.07 L701.985 933.363 L865.281 930.443 L1028.58 915.575 L1191.87 841.681 L1355.17 473.888 L1518.46 80.5367 L1518.46 88.5961 L1355.17 524.197 
  L1191.87 857.986 L1028.58 925.624 L865.281 937.06 L701.985 941.739 L538.69 913.298 L375.394 805.539  Z
  " fill="#800080" fill-rule="evenodd" fill-opacity="0.3"/>
<polyline clip-path="url(#clip222)" style="stroke:#800080; stroke-linecap:butt; stroke-linejoin:round; stroke-width:10; stroke-opacity:1; fill:none" points="
  375.394,709.263 538.69,895.07 701.985,933.363 865.281,930.443 1028.58,915.575 1191.87,841.681 1355.17,473.888 1518.46,80.5367 
  "/>
<path clip-path="url(#clip222)" d="M375.394 673.263 L339.394 709.263 L375.394 745.263 L411.394 709.263 L375.394 673.263 Z" fill="#800080" fill-rule="evenodd" fill-opacity="1" stroke="none"/>
<path clip-path="url(#clip222)" d="M538.69 859.07 L502.69 895.07 L538.69 931.07 L574.69 895.07 L538.69 859.07 Z" fill="#800080" fill-rule="evenodd" fill-opacity="1" stroke="none"/>
<path clip-path="url(#clip222)" d="M701.985 897.363 L665.985 933.363 L701.985 969.363 L737.985 933.363 L701.985 897.363 Z" fill="#800080" fill-rule="evenodd" fill-opacity="1" stroke="none"/>
<path clip-path="url(#clip222)" d="M865.281 894.443 L829.281 930.443 L865.281 966.443 L901.281 930.443 L865.281 894.443 Z" fill="#800080" fill-rule="evenodd" fill-opacity="1" stroke="none"/>
<path clip-path="url(#clip222)" d="M1028.58 879.575 L992.577 915.575 L1028.58 951.575 L1064.58 915.575 L1028.58 879.575 Z" fill="#800080" fill-rule="evenodd" fill-opacity="1" stroke="none"/>
<path clip-path="url(#clip222)" d="M1191.87 805.681 L1155.87 841.681 L1191.87 877.681 L1227.87 841.681 L1191.87 805.681 Z" fill="#800080" fill-rule="evenodd" fill-opacity="1" stroke="none"/>
<path clip-path="url(#clip222)" d="M1355.17 437.888 L1319.17 473.888 L1355.17 509.888 L1391.17 473.888 L1355.17 437.888 Z" fill="#800080" fill-rule="evenodd" fill-opacity="1" stroke="none"/>
<path clip-path="url(#clip222)" d="M1518.46 44.5367 L1482.46 80.5367 L1518.46 116.537 L1554.46 80.5367 L1518.46 44.5367 Z" fill="#800080" fill-rule="evenodd" fill-opacity="1" stroke="none"/>
<path clip-path="url(#clip222)" d="
M375.394 709.263 L538.69 895.07 L701.985 933.363 L865.281 930.443 L1028.58 915.575 L1191.87 841.681 L1355.17 473.888 L1518.46 80.5367 L1518.46 73.2973 L1355.17 443.474 
  L1191.87 823.81 L1028.58 904.917 L865.281 924.033 L701.985 924.776 L538.69 874.849 L375.394 631.941  Z
  " fill="#800080" fill-rule="evenodd" fill-opacity="0.3"/>
<polyline clip-path="url(#clip222)" style="stroke:#800080; stroke-linecap:butt; stroke-linejoin:round; stroke-width:10; stroke-opacity:1; fill:none" points="
  375.394,709.263 538.69,895.07 701.985,933.363 865.281,930.443 1028.58,915.575 1191.87,841.681 1355.17,473.888 1518.46,80.5367 
  "/>
<path clip-path="url(#clip222)" d="M375.394 673.263 L339.394 709.263 L375.394 745.263 L411.394 709.263 L375.394 673.263 Z" fill="#800080" fill-rule="evenodd" fill-opacity="1" stroke="none"/>
<path clip-path="url(#clip222)" d="M538.69 859.07 L502.69 895.07 L538.69 931.07 L574.69 895.07 L538.69 859.07 Z" fill="#800080" fill-rule="evenodd" fill-opacity="1" stroke="none"/>
<path clip-path="url(#clip222)" d="M701.985 897.363 L665.985 933.363 L701.985 969.363 L737.985 933.363 L701.985 897.363 Z" fill="#800080" fill-rule="evenodd" fill-opacity="1" stroke="none"/>
<path clip-path="url(#clip222)" d="M865.281 894.443 L829.281 930.443 L865.281 966.443 L901.281 930.443 L865.281 894.443 Z" fill="#800080" fill-rule="evenodd" fill-opacity="1" stroke="none"/>
<path clip-path="url(#clip222)" d="M1028.58 879.575 L992.577 915.575 L1028.58 951.575 L1064.58 915.575 L1028.58 879.575 Z" fill="#800080" fill-rule="evenodd" fill-opacity="1" stroke="none"/>
<path clip-path="url(#clip222)" d="M1191.87 805.681 L1155.87 841.681 L1191.87 877.681 L1227.87 841.681 L1191.87 805.681 Z" fill="#800080" fill-rule="evenodd" fill-opacity="1" stroke="none"/>
<path clip-path="url(#clip222)" d="M1355.17 437.888 L1319.17 473.888 L1355.17 509.888 L1391.17 473.888 L1355.17 437.888 Z" fill="#800080" fill-rule="evenodd" fill-opacity="1" stroke="none"/>
<path clip-path="url(#clip222)" d="M1518.46 44.5367 L1482.46 80.5367 L1518.46 116.537 L1554.46 80.5367 L1518.46 44.5367 Z" fill="#800080" fill-rule="evenodd" fill-opacity="1" stroke="none"/>
</svg>
