<?xml version="1.0" encoding="utf-8"?>
<svg xmlns="http://www.w3.org/2000/svg" xmlns:xlink="http://www.w3.org/1999/xlink" width="350" height="300" viewBox="0 0 1400 1200">
<defs>
  <clipPath id="clip060">
    <rect x="0" y="0" width="1400" height="1200"/>
  </clipPath>
</defs>
<path clip-path="url(#clip060)" d="
M0 1200 L1400 1200 L1400 0 L0 0  Z
  " fill="#ffffff" fill-rule="evenodd" fill-opacity="1"/>
<defs>
  <clipPath id="clip061">
    <rect x="280" y="0" width="981" height="981"/>
  </clipPath>
</defs>
<path clip-path="url(#clip060)" d="
M416.635 947.582 L1352.76 947.582 L1352.76 47.2441 L416.635 47.2441  Z
  " fill="#ffffff" fill-rule="evenodd" fill-opacity="1"/>
<defs>
  <clipPath id="clip062">
    <rect x="416" y="47" width="937" height="901"/>
  </clipPath>
</defs>
<polyline clip-path="url(#clip060)" style="stroke:#000000; stroke-linecap:butt; stroke-linejoin:round; stroke-width:4; stroke-opacity:1; fill:none" points="
  416.635,947.582 1352.76,947.582 
  "/>
<polyline clip-path="url(#clip060)" style="stroke:#000000; stroke-linecap:butt; stroke-linejoin:round; stroke-width:4; stroke-opacity:1; fill:none" points="
  443.129,947.582 443.129,928.685 
  "/>
<polyline clip-path="url(#clip060)" style="stroke:#000000; stroke-linecap:butt; stroke-linejoin:round; stroke-width:4; stroke-opacity:1; fill:none" points="
  728.011,947.582 728.011,928.685 
  "/>
<polyline clip-path="url(#clip060)" style="stroke:#000000; stroke-linecap:butt; stroke-linejoin:round; stroke-width:4; stroke-opacity:1; fill:none" points="
  1012.89,947.582 1012.89,928.685 
  "/>
<polyline clip-path="url(#clip060)" style="stroke:#000000; stroke-linecap:butt; stroke-linejoin:round; stroke-width:4; stroke-opacity:1; fill:none" points="
  1297.77,947.582 1297.77,928.685 
  "/>
<g clip-path="url(#clip060)">
<text style="fill:#000000; fill-opacity:1; font-family:Arial,Helvetica Neue,Helvetica,sans-serif; font-size:89px; text-anchor:middle;" transform="rotate(0, 443.129, 1036.78)" x="443.129" y="1036.78">1</text>
</g>
<g clip-path="url(#clip060)">
<text style="fill:#000000; fill-opacity:1; font-family:Arial,Helvetica Neue,Helvetica,sans-serif; font-size:89px; text-anchor:middle;" transform="rotate(0, 728.011, 1036.78)" x="728.011" y="1036.78">2</text>
</g>
<g clip-path="url(#clip060)">
<text style="fill:#000000; fill-opacity:1; font-family:Arial,Helvetica Neue,Helvetica,sans-serif; font-size:89px; text-anchor:middle;" transform="rotate(0, 1012.89, 1036.78)" x="1012.89" y="1036.78">3</text>
</g>
<g clip-path="url(#clip060)">
<text style="fill:#000000; fill-opacity:1; font-family:Arial,Helvetica Neue,Helvetica,sans-serif; font-size:89px; text-anchor:middle;" transform="rotate(0, 1297.77, 1036.78)" x="1297.77" y="1036.78">4</text>
</g>
<g clip-path="url(#clip060)">
<text style="fill:#000000; fill-opacity:1; font-family:Arial,Helvetica Neue,Helvetica,sans-serif; font-size:89px; text-anchor:middle;" transform="rotate(0, 884.696, 1144.21)" x="884.696" y="1144.21">Affinity type t</text>
</g>
<polyline clip-path="url(#clip060)" style="stroke:#000000; stroke-linecap:butt; stroke-linejoin:round; stroke-width:4; stroke-opacity:1; fill:none" points="
  416.635,947.582 416.635,47.2441 
  "/>
<polyline clip-path="url(#clip060)" style="stroke:#000000; stroke-linecap:butt; stroke-linejoin:round; stroke-width:4; stroke-opacity:1; fill:none" points="
  416.635,789.61 435.533,789.61 
  "/>
<polyline clip-path="url(#clip060)" style="stroke:#000000; stroke-linecap:butt; stroke-linejoin:round; stroke-width:4; stroke-opacity:1; fill:none" points="
  416.635,548.528 435.533,548.528 
  "/>
<polyline clip-path="url(#clip060)" style="stroke:#000000; stroke-linecap:butt; stroke-linejoin:round; stroke-width:4; stroke-opacity:1; fill:none" points="
  416.635,307.446 435.533,307.446 
  "/>
<g clip-path="url(#clip060)">
<text style="fill:#000000; fill-opacity:1; font-family:Arial,Helvetica Neue,Helvetica,sans-serif; font-size:89px; text-anchor:start;" transform="rotate(0, 152.579, 834.1)" x="152.579" y="834.1">10</text>
</g>
<g clip-path="url(#clip060)">
<text style="fill:#000000; fill-opacity:1; font-family:Arial,Helvetica Neue,Helvetica,sans-serif; font-size:73px; text-anchor:start;" transform="rotate(0, 252.938, 782.705)" x="252.938" y="782.705">−1.5</text>
</g>
<g clip-path="url(#clip060)">
<text style="fill:#000000; fill-opacity:1; font-family:Arial,Helvetica Neue,Helvetica,sans-serif; font-size:89px; text-anchor:start;" transform="rotate(0, 152.579, 593.018)" x="152.579" y="593.018">10</text>
</g>
<g clip-path="url(#clip060)">
<text style="fill:#000000; fill-opacity:1; font-family:Arial,Helvetica Neue,Helvetica,sans-serif; font-size:73px; text-anchor:start;" transform="rotate(0, 252.938, 541.623)" x="252.938" y="541.623">−1.0</text>
</g>
<g clip-path="url(#clip060)">
<text style="fill:#000000; fill-opacity:1; font-family:Arial,Helvetica Neue,Helvetica,sans-serif; font-size:89px; text-anchor:start;" transform="rotate(0, 152.579, 351.935)" x="152.579" y="351.935">10</text>
</g>
<g clip-path="url(#clip060)">
<text style="fill:#000000; fill-opacity:1; font-family:Arial,Helvetica Neue,Helvetica,sans-serif; font-size:73px; text-anchor:start;" transform="rotate(0, 252.938, 300.541)" x="252.938" y="300.541">−0.5</text>
</g>
<g clip-path="url(#clip060)">
<text style="fill:#000000; fill-opacity:1; font-family:Arial,Helvetica Neue,Helvetica,sans-serif; font-size:89px; text-anchor:middle;" transform="rotate(-90, 115.267, 497.413)" x="115.267" y="497.413">Affinity / Baseline</text>
</g>
<polyline clip-path="url(#clip062)" style="stroke:#daa523; stroke-linecap:butt; stroke-linejoin:round; stroke-width:10; stroke-opacity:1; fill:none" points="
  443.129,531.521 728.011,489.896 1012.89,399.369 1297.77,189.523 
  "/>
<circle clip-path="url(#clip062)" cx="443.129" cy="531.521" r="32" fill="#daa523" fill-rule="evenodd" fill-opacity="1" stroke="none"/>
<circle clip-path="url(#clip062)" cx="728.011" cy="489.896" r="32" fill="#daa523" fill-rule="evenodd" fill-opacity="1" stroke="none"/>
<circle clip-path="url(#clip062)" cx="1012.89" cy="399.369" r="32" fill="#daa523" fill-rule="evenodd" fill-opacity="1" stroke="none"/>
<circle clip-path="url(#clip062)" cx="1297.77" cy="189.523" r="32" fill="#daa523" fill-rule="evenodd" fill-opacity="1" stroke="none"/>
<polyline clip-path="url(#clip062)" style="stroke:#800080; stroke-linecap:butt; stroke-linejoin:round; stroke-width:10; stroke-opacity:1; fill:none" points="
  443.129,922.101 728.011,782.577 1012.89,594.151 1297.77,95.5069 
  "/>
<path clip-path="url(#clip062)" d="M443.129 886.101 L407.129 922.101 L443.129 958.101 L479.129 922.101 L443.129 886.101 Z" fill="#800080" fill-rule="evenodd" fill-opacity="1" stroke="none"/>
<path clip-path="url(#clip062)" d="M728.011 746.577 L692.011 782.577 L728.011 818.577 L764.011 782.577 L728.011 746.577 Z" fill="#800080" fill-rule="evenodd" fill-opacity="1" stroke="none"/>
<path clip-path="url(#clip062)" d="M1012.89 558.151 L976.892 594.151 L1012.89 630.151 L1048.89 594.151 L1012.89 558.151 Z" fill="#800080" fill-rule="evenodd" fill-opacity="1" stroke="none"/>
<path clip-path="url(#clip062)" d="M1297.77 59.5069 L1261.77 95.5069 L1297.77 131.507 L1333.77 95.5069 L1297.77 59.5069 Z" fill="#800080" fill-rule="evenodd" fill-opacity="1" stroke="none"/>
</svg>
