<?xml version="1.0" encoding="utf-8"?>
<svg xmlns="http://www.w3.org/2000/svg" xmlns:xlink="http://www.w3.org/1999/xlink" width="350" height="300" viewBox="0 0 1400 1200">
<defs>
  <clipPath id="clip660">
    <rect x="0" y="0" width="1400" height="1200"/>
  </clipPath>
</defs>
<path clip-path="url(#clip660)" d="
M0 1200 L1400 1200 L1400 0 L0 0  Z
  " fill="#ffffff" fill-rule="evenodd" fill-opacity="1"/>
<defs>
  <clipPath id="clip661">
    <rect x="280" y="0" width="981" height="981"/>
  </clipPath>
</defs>
<path clip-path="url(#clip660)" d="
M416.635 947.582 L1352.76 947.582 L1352.76 47.2441 L416.635 47.2441  Z
  " fill="#ffffff" fill-rule="evenodd" fill-opacity="1"/>
<defs>
  <clipPath id="clip662">
    <rect x="416" y="47" width="937" height="901"/>
  </clipPath>
</defs>
<polyline clip-path="url(#clip660)" style="stroke:#000000; stroke-linecap:butt; stroke-linejoin:round; stroke-width:4; stroke-opacity:1; fill:none" points="
  416.635,947.582 1352.76,947.582 
  "/>
<polyline clip-path="url(#clip660)" style="stroke:#000000; stroke-linecap:butt; stroke-linejoin:round; stroke-width:4; stroke-opacity:1; fill:none" points="
  443.129,947.582 443.129,928.685 
  "/>
<polyline clip-path="url(#clip660)" style="stroke:#000000; stroke-linecap:butt; stroke-linejoin:round; stroke-width:4; stroke-opacity:1; fill:none" points="
  737.507,947.582 737.507,928.685 
  "/>
<polyline clip-path="url(#clip660)" style="stroke:#000000; stroke-linecap:butt; stroke-linejoin:round; stroke-width:4; stroke-opacity:1; fill:none" points="
  1031.88,947.582 1031.88,928.685 
  "/>
<polyline clip-path="url(#clip660)" style="stroke:#000000; stroke-linecap:butt; stroke-linejoin:round; stroke-width:4; stroke-opacity:1; fill:none" points="
  1326.26,947.582 1326.26,928.685 
  "/>
<g clip-path="url(#clip660)">
<text style="fill:#000000; fill-opacity:1; font-family:Arial,Helvetica Neue,Helvetica,sans-serif; font-size:89px; text-anchor:middle;" transform="rotate(0, 443.129, 1036.78)" x="443.129" y="1036.78">1</text>
</g>
<g clip-path="url(#clip660)">
<text style="fill:#000000; fill-opacity:1; font-family:Arial,Helvetica Neue,Helvetica,sans-serif; font-size:89px; text-anchor:middle;" transform="rotate(0, 737.507, 1036.78)" x="737.507" y="1036.78">2</text>
</g>
<g clip-path="url(#clip660)">
<text style="fill:#000000; fill-opacity:1; font-family:Arial,Helvetica Neue,Helvetica,sans-serif; font-size:89px; text-anchor:middle;" transform="rotate(0, 1031.88, 1036.78)" x="1031.88" y="1036.78">3</text>
</g>
<g clip-path="url(#clip660)">
<text style="fill:#000000; fill-opacity:1; font-family:Arial,Helvetica Neue,Helvetica,sans-serif; font-size:89px; text-anchor:middle;" transform="rotate(0, 1326.26, 1036.78)" x="1326.26" y="1036.78">4</text>
</g>
<g clip-path="url(#clip660)">
<text style="fill:#000000; fill-opacity:1; font-family:Arial,Helvetica Neue,Helvetica,sans-serif; font-size:89px; text-anchor:middle;" transform="rotate(0, 884.696, 1144.21)" x="884.696" y="1144.21">Affinity type t</text>
</g>
<polyline clip-path="url(#clip660)" style="stroke:#000000; stroke-linecap:butt; stroke-linejoin:round; stroke-width:4; stroke-opacity:1; fill:none" points="
  416.635,947.582 416.635,47.2441 
  "/>
<polyline clip-path="url(#clip660)" style="stroke:#000000; stroke-linecap:butt; stroke-linejoin:round; stroke-width:4; stroke-opacity:1; fill:none" points="
  416.635,912.315 435.533,912.315 
  "/>
<polyline clip-path="url(#clip660)" style="stroke:#000000; stroke-linecap:butt; stroke-linejoin:round; stroke-width:4; stroke-opacity:1; fill:none" points="
  416.635,673.283 435.533,673.283 
  "/>
<polyline clip-path="url(#clip660)" style="stroke:#000000; stroke-linecap:butt; stroke-linejoin:round; stroke-width:4; stroke-opacity:1; fill:none" points="
  416.635,434.251 435.533,434.251 
  "/>
<polyline clip-path="url(#clip660)" style="stroke:#000000; stroke-linecap:butt; stroke-linejoin:round; stroke-width:4; stroke-opacity:1; fill:none" points="
  416.635,195.219 435.533,195.219 
  "/>
<g clip-path="url(#clip660)">
<text style="fill:#000000; fill-opacity:1; font-family:Arial,Helvetica Neue,Helvetica,sans-serif; font-size:89px; text-anchor:start;" transform="rotate(0, 152.579, 956.804)" x="152.579" y="956.804">10</text>
</g>
<g clip-path="url(#clip660)">
<text style="fill:#000000; fill-opacity:1; font-family:Arial,Helvetica Neue,Helvetica,sans-serif; font-size:73px; text-anchor:start;" transform="rotate(0, 252.938, 905.41)" x="252.938" y="905.41">−1.0</text>
</g>
<g clip-path="url(#clip660)">
<text style="fill:#000000; fill-opacity:1; font-family:Arial,Helvetica Neue,Helvetica,sans-serif; font-size:89px; text-anchor:start;" transform="rotate(0, 152.579, 717.772)" x="152.579" y="717.772">10</text>
</g>
<g clip-path="url(#clip660)">
<text style="fill:#000000; fill-opacity:1; font-family:Arial,Helvetica Neue,Helvetica,sans-serif; font-size:73px; text-anchor:start;" transform="rotate(0, 252.938, 666.378)" x="252.938" y="666.378">−0.5</text>
</g>
<g clip-path="url(#clip660)">
<text style="fill:#000000; fill-opacity:1; font-family:Arial,Helvetica Neue,Helvetica,sans-serif; font-size:89px; text-anchor:start;" transform="rotate(0, 193.35, 478.74)" x="193.35" y="478.74">10</text>
</g>
<g clip-path="url(#clip660)">
<text style="fill:#000000; fill-opacity:1; font-family:Arial,Helvetica Neue,Helvetica,sans-serif; font-size:73px; text-anchor:start;" transform="rotate(0, 293.709, 427.345)" x="293.709" y="427.345">0.0</text>
</g>
<g clip-path="url(#clip660)">
<text style="fill:#000000; fill-opacity:1; font-family:Arial,Helvetica Neue,Helvetica,sans-serif; font-size:89px; text-anchor:start;" transform="rotate(0, 193.35, 239.708)" x="193.35" y="239.708">10</text>
</g>
<g clip-path="url(#clip660)">
<text style="fill:#000000; fill-opacity:1; font-family:Arial,Helvetica Neue,Helvetica,sans-serif; font-size:73px; text-anchor:start;" transform="rotate(0, 293.709, 188.313)" x="293.709" y="188.313">0.5</text>
</g>
<g clip-path="url(#clip660)">
<text style="fill:#000000; fill-opacity:1; font-family:Arial,Helvetica Neue,Helvetica,sans-serif; font-size:89px; text-anchor:middle;" transform="rotate(-90, 115.267, 497.413)" x="115.267" y="497.413">Affinity / Baseline</text>
</g>
<polyline clip-path="url(#clip662)" style="stroke:#808080; stroke-linecap:butt; stroke-linejoin:round; stroke-width:8; stroke-opacity:1; fill:none" points="
  443.129,434.251 1326.26,434.251 
  "/>
<polyline clip-path="url(#clip662)" style="stroke:#daa523; stroke-linecap:butt; stroke-linejoin:round; stroke-width:10; stroke-opacity:1; fill:none" points="
  443.129,511.625 737.507,665.178 1031.88,542.151 1326.26,72.7254 
  "/>
<circle clip-path="url(#clip662)" cx="443.129" cy="511.625" r="32" fill="#daa523" fill-rule="evenodd" fill-opacity="1" stroke="none"/>
<circle clip-path="url(#clip662)" cx="737.507" cy="665.178" r="32" fill="#daa523" fill-rule="evenodd" fill-opacity="1" stroke="none"/>
<circle clip-path="url(#clip662)" cx="1031.88" cy="542.151" r="32" fill="#daa523" fill-rule="evenodd" fill-opacity="1" stroke="none"/>
<circle clip-path="url(#clip662)" cx="1326.26" cy="72.7254" r="32" fill="#daa523" fill-rule="evenodd" fill-opacity="1" stroke="none"/>
<polyline clip-path="url(#clip662)" style="stroke:#800080; stroke-linecap:butt; stroke-linejoin:round; stroke-width:10; stroke-opacity:1; fill:none" points="
  443.129,799.074 737.507,922.101 1031.88,768.547 1326.26,79.3183 
  "/>
<path clip-path="url(#clip662)" d="M443.129 763.074 L407.129 799.074 L443.129 835.074 L479.129 799.074 L443.129 763.074 Z" fill="#800080" fill-rule="evenodd" fill-opacity="1" stroke="none"/>
<path clip-path="url(#clip662)" d="M737.507 886.101 L701.507 922.101 L737.507 958.101 L773.507 922.101 L737.507 886.101 Z" fill="#800080" fill-rule="evenodd" fill-opacity="1" stroke="none"/>
<path clip-path="url(#clip662)" d="M1031.88 732.547 L995.884 768.547 L1031.88 804.547 L1067.88 768.547 L1031.88 732.547 Z" fill="#800080" fill-rule="evenodd" fill-opacity="1" stroke="none"/>
<path clip-path="url(#clip662)" d="M1326.26 43.3183 L1290.26 79.3183 L1326.26 115.318 L1362.26 79.3183 L1326.26 43.3183 Z" fill="#800080" fill-rule="evenodd" fill-opacity="1" stroke="none"/>
</svg>
