<?xml version="1.0" encoding="utf-8"?>
<svg xmlns="http://www.w3.org/2000/svg" xmlns:xlink="http://www.w3.org/1999/xlink" width="350" height="300" viewBox="0 0 1400 1200">
<defs>
  <clipPath id="clip470">
    <rect x="0" y="0" width="1400" height="1200"/>
  </clipPath>
</defs>
<path clip-path="url(#clip470)" d="
M0 1200 L1400 1200 L1400 0 L0 0  Z
  " fill="#ffffff" fill-rule="evenodd" fill-opacity="1"/>
<defs>
  <clipPath id="clip471">
    <rect x="280" y="0" width="981" height="981"/>
  </clipPath>
</defs>
<path clip-path="url(#clip470)" d="
M299.027 947.582 L1352.76 947.582 L1352.76 47.2441 L299.027 47.2441  Z
  " fill="#ffffff" fill-rule="evenodd" fill-opacity="1"/>
<defs>
  <clipPath id="clip472">
    <rect x="299" y="47" width="1055" height="901"/>
  </clipPath>
</defs>
<polyline clip-path="url(#clip470)" style="stroke:#000000; stroke-linecap:butt; stroke-linejoin:round; stroke-width:4; stroke-opacity:1; fill:none" points="
  299.027,947.582 1352.76,947.582 
  "/>
<polyline clip-path="url(#clip470)" style="stroke:#000000; stroke-linecap:butt; stroke-linejoin:round; stroke-width:4; stroke-opacity:1; fill:none" points="
  577.371,947.582 577.371,928.685 
  "/>
<polyline clip-path="url(#clip470)" style="stroke:#000000; stroke-linecap:butt; stroke-linejoin:round; stroke-width:4; stroke-opacity:1; fill:none" points="
  950.152,947.582 950.152,928.685 
  "/>
<polyline clip-path="url(#clip470)" style="stroke:#000000; stroke-linecap:butt; stroke-linejoin:round; stroke-width:4; stroke-opacity:1; fill:none" points="
  1322.93,947.582 1322.93,928.685 
  "/>
<g clip-path="url(#clip470)">
<text style="fill:#000000; fill-opacity:1; font-family:Arial,Helvetica Neue,Helvetica,sans-serif; font-size:89px; text-anchor:middle;" transform="rotate(0, 577.371, 1036.78)" x="577.371" y="1036.78">3</text>
</g>
<g clip-path="url(#clip470)">
<text style="fill:#000000; fill-opacity:1; font-family:Arial,Helvetica Neue,Helvetica,sans-serif; font-size:89px; text-anchor:middle;" transform="rotate(0, 950.152, 1036.78)" x="950.152" y="1036.78">6</text>
</g>
<g clip-path="url(#clip470)">
<text style="fill:#000000; fill-opacity:1; font-family:Arial,Helvetica Neue,Helvetica,sans-serif; font-size:89px; text-anchor:middle;" transform="rotate(0, 1322.93, 1036.78)" x="1322.93" y="1036.78">9</text>
</g>
<g clip-path="url(#clip470)">
<text style="fill:#000000; fill-opacity:1; font-family:Arial,Helvetica Neue,Helvetica,sans-serif; font-size:89px; text-anchor:middle;" transform="rotate(0, 825.892, 1144.21)" x="825.892" y="1144.21">Affinity type t</text>
</g>
<polyline clip-path="url(#clip470)" style="stroke:#000000; stroke-linecap:butt; stroke-linejoin:round; stroke-width:4; stroke-opacity:1; fill:none" points="
  299.027,947.582 299.027,47.2441 
  "/>
<polyline clip-path="url(#clip470)" style="stroke:#000000; stroke-linecap:butt; stroke-linejoin:round; stroke-width:4; stroke-opacity:1; fill:none" points="
  299.027,923.664 317.925,923.664 
  "/>
<polyline clip-path="url(#clip470)" style="stroke:#000000; stroke-linecap:butt; stroke-linejoin:round; stroke-width:4; stroke-opacity:1; fill:none" points="
  299.027,789.368 317.925,789.368 
  "/>
<polyline clip-path="url(#clip470)" style="stroke:#000000; stroke-linecap:butt; stroke-linejoin:round; stroke-width:4; stroke-opacity:1; fill:none" points="
  299.027,655.072 317.925,655.072 
  "/>
<polyline clip-path="url(#clip470)" style="stroke:#000000; stroke-linecap:butt; stroke-linejoin:round; stroke-width:4; stroke-opacity:1; fill:none" points="
  299.027,520.777 317.925,520.777 
  "/>
<polyline clip-path="url(#clip470)" style="stroke:#000000; stroke-linecap:butt; stroke-linejoin:round; stroke-width:4; stroke-opacity:1; fill:none" points="
  299.027,386.481 317.925,386.481 
  "/>
<polyline clip-path="url(#clip470)" style="stroke:#000000; stroke-linecap:butt; stroke-linejoin:round; stroke-width:4; stroke-opacity:1; fill:none" points="
  299.027,252.186 317.925,252.186 
  "/>
<polyline clip-path="url(#clip470)" style="stroke:#000000; stroke-linecap:butt; stroke-linejoin:round; stroke-width:4; stroke-opacity:1; fill:none" points="
  299.027,117.89 317.925,117.89 
  "/>
<g clip-path="url(#clip470)">
<text style="fill:#000000; fill-opacity:1; font-family:Arial,Helvetica Neue,Helvetica,sans-serif; font-size:89px; text-anchor:end;" transform="rotate(0, 278.027, 956.164)" x="278.027" y="956.164">0.0</text>
</g>
<g clip-path="url(#clip470)">
<text style="fill:#000000; fill-opacity:1; font-family:Arial,Helvetica Neue,Helvetica,sans-serif; font-size:89px; text-anchor:end;" transform="rotate(0, 278.027, 821.868)" x="278.027" y="821.868">0.1</text>
</g>
<g clip-path="url(#clip470)">
<text style="fill:#000000; fill-opacity:1; font-family:Arial,Helvetica Neue,Helvetica,sans-serif; font-size:89px; text-anchor:end;" transform="rotate(0, 278.027, 687.572)" x="278.027" y="687.572">0.2</text>
</g>
<g clip-path="url(#clip470)">
<text style="fill:#000000; fill-opacity:1; font-family:Arial,Helvetica Neue,Helvetica,sans-serif; font-size:89px; text-anchor:end;" transform="rotate(0, 278.027, 553.277)" x="278.027" y="553.277">0.3</text>
</g>
<g clip-path="url(#clip470)">
<text style="fill:#000000; fill-opacity:1; font-family:Arial,Helvetica Neue,Helvetica,sans-serif; font-size:89px; text-anchor:end;" transform="rotate(0, 278.027, 418.981)" x="278.027" y="418.981">0.4</text>
</g>
<g clip-path="url(#clip470)">
<text style="fill:#000000; fill-opacity:1; font-family:Arial,Helvetica Neue,Helvetica,sans-serif; font-size:89px; text-anchor:end;" transform="rotate(0, 278.027, 284.686)" x="278.027" y="284.686">0.5</text>
</g>
<g clip-path="url(#clip470)">
<text style="fill:#000000; fill-opacity:1; font-family:Arial,Helvetica Neue,Helvetica,sans-serif; font-size:89px; text-anchor:end;" transform="rotate(0, 278.027, 150.39)" x="278.027" y="150.39">0.6</text>
</g>
<g clip-path="url(#clip470)">
<text style="fill:#000000; fill-opacity:1; font-family:Arial,Helvetica Neue,Helvetica,sans-serif; font-size:89px; text-anchor:middle;" transform="rotate(-90, 115.267, 497.413)" x="115.267" y="497.413">Affinity</text>
</g>
<polyline clip-path="url(#clip472)" style="stroke:#d95f02; stroke-linecap:butt; stroke-linejoin:round; stroke-width:10; stroke-opacity:1; fill:none" points="
  328.85,811.242 453.11,765.621 577.371,734.257 701.631,749.328 825.892,762.77 950.152,752.586 1074.41,792.504 1198.67,865.009 1322.93,736.701 
  "/>
<circle clip-path="url(#clip472)" cx="328.85" cy="811.242" r="32" fill="#d95f02" fill-rule="evenodd" fill-opacity="1" stroke="none"/>
<circle clip-path="url(#clip472)" cx="453.11" cy="765.621" r="32" fill="#d95f02" fill-rule="evenodd" fill-opacity="1" stroke="none"/>
<circle clip-path="url(#clip472)" cx="577.371" cy="734.257" r="32" fill="#d95f02" fill-rule="evenodd" fill-opacity="1" stroke="none"/>
<circle clip-path="url(#clip472)" cx="701.631" cy="749.328" r="32" fill="#d95f02" fill-rule="evenodd" fill-opacity="1" stroke="none"/>
<circle clip-path="url(#clip472)" cx="825.892" cy="762.77" r="32" fill="#d95f02" fill-rule="evenodd" fill-opacity="1" stroke="none"/>
<circle clip-path="url(#clip472)" cx="950.152" cy="752.586" r="32" fill="#d95f02" fill-rule="evenodd" fill-opacity="1" stroke="none"/>
<circle clip-path="url(#clip472)" cx="1074.41" cy="792.504" r="32" fill="#d95f02" fill-rule="evenodd" fill-opacity="1" stroke="none"/>
<circle clip-path="url(#clip472)" cx="1198.67" cy="865.009" r="32" fill="#d95f02" fill-rule="evenodd" fill-opacity="1" stroke="none"/>
<circle clip-path="url(#clip472)" cx="1322.93" cy="736.701" r="32" fill="#d95f02" fill-rule="evenodd" fill-opacity="1" stroke="none"/>
<polyline clip-path="url(#clip472)" style="stroke:#1b9e77; stroke-linecap:butt; stroke-linejoin:round; stroke-width:10; stroke-opacity:1; fill:none" points="
  328.85,922.101 453.11,915.676 577.371,905.431 701.631,896.228 825.892,877.214 950.152,842.92 1074.41,805.76 1198.67,731.962 1322.93,72.7254 
  "/>
<path clip-path="url(#clip472)" d="M328.85 886.101 L292.85 922.101 L328.85 958.101 L364.85 922.101 L328.85 886.101 Z" fill="#1b9e77" fill-rule="evenodd" fill-opacity="1" stroke="none"/>
<path clip-path="url(#clip472)" d="M453.11 879.676 L417.11 915.676 L453.11 951.676 L489.11 915.676 L453.11 879.676 Z" fill="#1b9e77" fill-rule="evenodd" fill-opacity="1" stroke="none"/>
<path clip-path="url(#clip472)" d="M577.371 869.431 L541.371 905.431 L577.371 941.431 L613.371 905.431 L577.371 869.431 Z" fill="#1b9e77" fill-rule="evenodd" fill-opacity="1" stroke="none"/>
<path clip-path="url(#clip472)" d="M701.631 860.228 L665.631 896.228 L701.631 932.228 L737.631 896.228 L701.631 860.228 Z" fill="#1b9e77" fill-rule="evenodd" fill-opacity="1" stroke="none"/>
<path clip-path="url(#clip472)" d="M825.892 841.214 L789.892 877.214 L825.892 913.214 L861.892 877.214 L825.892 841.214 Z" fill="#1b9e77" fill-rule="evenodd" fill-opacity="1" stroke="none"/>
<path clip-path="url(#clip472)" d="M950.152 806.92 L914.152 842.92 L950.152 878.92 L986.152 842.92 L950.152 806.92 Z" fill="#1b9e77" fill-rule="evenodd" fill-opacity="1" stroke="none"/>
<path clip-path="url(#clip472)" d="M1074.41 769.76 L1038.41 805.76 L1074.41 841.76 L1110.41 805.76 L1074.41 769.76 Z" fill="#1b9e77" fill-rule="evenodd" fill-opacity="1" stroke="none"/>
<path clip-path="url(#clip472)" d="M1198.67 695.962 L1162.67 731.962 L1198.67 767.962 L1234.67 731.962 L1198.67 695.962 Z" fill="#1b9e77" fill-rule="evenodd" fill-opacity="1" stroke="none"/>
<path clip-path="url(#clip472)" d="M1322.93 36.7254 L1286.93 72.7254 L1322.93 108.725 L1358.93 72.7254 L1322.93 36.7254 Z" fill="#1b9e77" fill-rule="evenodd" fill-opacity="1" stroke="none"/>
</svg>
