<?xml version="1.0" encoding="utf-8"?>
<svg xmlns="http://www.w3.org/2000/svg" xmlns:xlink="http://www.w3.org/1999/xlink" width="350" height="300" viewBox="0 0 1400 1200">
<defs>
  <clipPath id="clip370">
    <rect x="0" y="0" width="1400" height="1200"/>
  </clipPath>
</defs>
<path clip-path="url(#clip370)" d="
M0 1200 L1400 1200 L1400 0 L0 0  Z
  " fill="#ffffff" fill-rule="evenodd" fill-opacity="1"/>
<defs>
  <clipPath id="clip371">
    <rect x="280" y="0" width="981" height="981"/>
  </clipPath>
</defs>
<path clip-path="url(#clip370)" d="
M299.027 947.582 L1352.76 947.582 L1352.76 47.2441 L299.027 47.2441  Z
  " fill="#ffffff" fill-rule="evenodd" fill-opacity="1"/>
<defs>
  <clipPath id="clip372">
    <rect x="299" y="47" width="1055" height="901"/>
  </clipPath>
</defs>
<polyline clip-path="url(#clip370)" style="stroke:#000000; stroke-linecap:butt; stroke-linejoin:round; stroke-width:4; stroke-opacity:1; fill:none" points="
  299.027,947.582 1352.76,947.582 
  "/>
<polyline clip-path="url(#clip370)" style="stroke:#000000; stroke-linecap:butt; stroke-linejoin:round; stroke-width:4; stroke-opacity:1; fill:none" points="
  328.85,947.582 328.85,928.685 
  "/>
<polyline clip-path="url(#clip370)" style="stroke:#000000; stroke-linecap:butt; stroke-linejoin:round; stroke-width:4; stroke-opacity:1; fill:none" points="
  825.892,947.582 825.892,928.685 
  "/>
<polyline clip-path="url(#clip370)" style="stroke:#000000; stroke-linecap:butt; stroke-linejoin:round; stroke-width:4; stroke-opacity:1; fill:none" points="
  1322.93,947.582 1322.93,928.685 
  "/>
<g clip-path="url(#clip370)">
<text style="fill:#000000; fill-opacity:1; font-family:Arial,Helvetica Neue,Helvetica,sans-serif; font-size:89px; text-anchor:middle;" transform="rotate(0, 328.85, 1036.78)" x="328.85" y="1036.78">1</text>
</g>
<g clip-path="url(#clip370)">
<text style="fill:#000000; fill-opacity:1; font-family:Arial,Helvetica Neue,Helvetica,sans-serif; font-size:89px; text-anchor:middle;" transform="rotate(0, 825.892, 1036.78)" x="825.892" y="1036.78">2</text>
</g>
<g clip-path="url(#clip370)">
<text style="fill:#000000; fill-opacity:1; font-family:Arial,Helvetica Neue,Helvetica,sans-serif; font-size:89px; text-anchor:middle;" transform="rotate(0, 1322.93, 1036.78)" x="1322.93" y="1036.78">3</text>
</g>
<g clip-path="url(#clip370)">
<text style="fill:#000000; fill-opacity:1; font-family:Arial,Helvetica Neue,Helvetica,sans-serif; font-size:89px; text-anchor:middle;" transform="rotate(0, 825.892, 1144.21)" x="825.892" y="1144.21">Affinity type t</text>
</g>
<polyline clip-path="url(#clip370)" style="stroke:#000000; stroke-linecap:butt; stroke-linejoin:round; stroke-width:4; stroke-opacity:1; fill:none" points="
  299.027,947.582 299.027,47.2441 
  "/>
<polyline clip-path="url(#clip370)" style="stroke:#000000; stroke-linecap:butt; stroke-linejoin:round; stroke-width:4; stroke-opacity:1; fill:none" points="
  299.027,739.271 317.925,739.271 
  "/>
<polyline clip-path="url(#clip370)" style="stroke:#000000; stroke-linecap:butt; stroke-linejoin:round; stroke-width:4; stroke-opacity:1; fill:none" points="
  299.027,516.155 317.925,516.155 
  "/>
<polyline clip-path="url(#clip370)" style="stroke:#000000; stroke-linecap:butt; stroke-linejoin:round; stroke-width:4; stroke-opacity:1; fill:none" points="
  299.027,293.039 317.925,293.039 
  "/>
<polyline clip-path="url(#clip370)" style="stroke:#000000; stroke-linecap:butt; stroke-linejoin:round; stroke-width:4; stroke-opacity:1; fill:none" points="
  299.027,69.923 317.925,69.923 
  "/>
<g clip-path="url(#clip370)">
<text style="fill:#000000; fill-opacity:1; font-family:Arial,Helvetica Neue,Helvetica,sans-serif; font-size:89px; text-anchor:end;" transform="rotate(0, 278.027, 771.771)" x="278.027" y="771.771">0.2</text>
</g>
<g clip-path="url(#clip370)">
<text style="fill:#000000; fill-opacity:1; font-family:Arial,Helvetica Neue,Helvetica,sans-serif; font-size:89px; text-anchor:end;" transform="rotate(0, 278.027, 548.655)" x="278.027" y="548.655">0.4</text>
</g>
<g clip-path="url(#clip370)">
<text style="fill:#000000; fill-opacity:1; font-family:Arial,Helvetica Neue,Helvetica,sans-serif; font-size:89px; text-anchor:end;" transform="rotate(0, 278.027, 325.539)" x="278.027" y="325.539">0.6</text>
</g>
<g clip-path="url(#clip370)">
<text style="fill:#000000; fill-opacity:1; font-family:Arial,Helvetica Neue,Helvetica,sans-serif; font-size:89px; text-anchor:end;" transform="rotate(0, 278.027, 102.423)" x="278.027" y="102.423">0.8</text>
</g>
<g clip-path="url(#clip370)">
<text style="fill:#000000; fill-opacity:1; font-family:Arial,Helvetica Neue,Helvetica,sans-serif; font-size:89px; text-anchor:middle;" transform="rotate(-90, 115.267, 497.413)" x="115.267" y="497.413">Affinity</text>
</g>
<polyline clip-path="url(#clip372)" style="stroke:#d95f02; stroke-linecap:butt; stroke-linejoin:round; stroke-width:10; stroke-opacity:1; fill:none" points="
  328.85,739.992 825.892,769.331 1322.93,262.257 
  "/>
<circle clip-path="url(#clip372)" cx="328.85" cy="739.992" r="32" fill="#d95f02" fill-rule="evenodd" fill-opacity="1" stroke="none"/>
<circle clip-path="url(#clip372)" cx="825.892" cy="769.331" r="32" fill="#d95f02" fill-rule="evenodd" fill-opacity="1" stroke="none"/>
<circle clip-path="url(#clip372)" cx="1322.93" cy="262.257" r="32" fill="#d95f02" fill-rule="evenodd" fill-opacity="1" stroke="none"/>
<polyline clip-path="url(#clip372)" style="stroke:#1b9e77; stroke-linecap:butt; stroke-linejoin:round; stroke-width:10; stroke-opacity:1; fill:none" points="
  328.85,922.101 825.892,776.754 1322.93,72.7254 
  "/>
<path clip-path="url(#clip372)" d="M328.85 886.101 L292.85 922.101 L328.85 958.101 L364.85 922.101 L328.85 886.101 Z" fill="#1b9e77" fill-rule="evenodd" fill-opacity="1" stroke="none"/>
<path clip-path="url(#clip372)" d="M825.892 740.754 L789.892 776.754 L825.892 812.754 L861.892 776.754 L825.892 740.754 Z" fill="#1b9e77" fill-rule="evenodd" fill-opacity="1" stroke="none"/>
<path clip-path="url(#clip372)" d="M1322.93 36.7254 L1286.93 72.7254 L1322.93 108.725 L1358.93 72.7254 L1322.93 36.7254 Z" fill="#1b9e77" fill-rule="evenodd" fill-opacity="1" stroke="none"/>
</svg>
