<?xml version="1.0" encoding="utf-8"?>
<svg xmlns="http://www.w3.org/2000/svg" xmlns:xlink="http://www.w3.org/1999/xlink" width="350" height="300" viewBox="0 0 1400 1200">
<defs>
  <clipPath id="clip710">
    <rect x="0" y="0" width="1400" height="1200"/>
  </clipPath>
</defs>
<path clip-path="url(#clip710)" d="
M0 1200 L1400 1200 L1400 0 L0 0  Z
  " fill="#ffffff" fill-rule="evenodd" fill-opacity="1"/>
<defs>
  <clipPath id="clip711">
    <rect x="280" y="0" width="981" height="981"/>
  </clipPath>
</defs>
<path clip-path="url(#clip710)" d="
M349.207 947.582 L1352.76 947.582 L1352.76 47.2441 L349.207 47.2441  Z
  " fill="#ffffff" fill-rule="evenodd" fill-opacity="1"/>
<defs>
  <clipPath id="clip712">
    <rect x="349" y="47" width="1005" height="901"/>
  </clipPath>
</defs>
<polyline clip-path="url(#clip710)" style="stroke:#000000; stroke-linecap:butt; stroke-linejoin:round; stroke-width:4; stroke-opacity:1; fill:none" points="
  349.207,947.582 1352.76,947.582 
  "/>
<polyline clip-path="url(#clip710)" style="stroke:#000000; stroke-linecap:butt; stroke-linejoin:round; stroke-width:4; stroke-opacity:1; fill:none" points="
  566.958,947.582 566.958,928.685 
  "/>
<polyline clip-path="url(#clip710)" style="stroke:#000000; stroke-linecap:butt; stroke-linejoin:round; stroke-width:4; stroke-opacity:1; fill:none" points="
  945.656,947.582 945.656,928.685 
  "/>
<polyline clip-path="url(#clip710)" style="stroke:#000000; stroke-linecap:butt; stroke-linejoin:round; stroke-width:4; stroke-opacity:1; fill:none" points="
  1324.35,947.582 1324.35,928.685 
  "/>
<g clip-path="url(#clip710)">
<text style="fill:#000000; fill-opacity:1; font-family:Arial,Helvetica Neue,Helvetica,sans-serif; font-size:89px; text-anchor:middle;" transform="rotate(0, 566.958, 1036.78)" x="566.958" y="1036.78">2</text>
</g>
<g clip-path="url(#clip710)">
<text style="fill:#000000; fill-opacity:1; font-family:Arial,Helvetica Neue,Helvetica,sans-serif; font-size:89px; text-anchor:middle;" transform="rotate(0, 945.656, 1036.78)" x="945.656" y="1036.78">4</text>
</g>
<g clip-path="url(#clip710)">
<text style="fill:#000000; fill-opacity:1; font-family:Arial,Helvetica Neue,Helvetica,sans-serif; font-size:89px; text-anchor:middle;" transform="rotate(0, 1324.35, 1036.78)" x="1324.35" y="1036.78">6</text>
</g>
<g clip-path="url(#clip710)">
<text style="fill:#000000; fill-opacity:1; font-family:Arial,Helvetica Neue,Helvetica,sans-serif; font-size:89px; text-anchor:middle;" transform="rotate(0, 850.981, 1144.21)" x="850.981" y="1144.21">Affinity type t</text>
</g>
<polyline clip-path="url(#clip710)" style="stroke:#000000; stroke-linecap:butt; stroke-linejoin:round; stroke-width:4; stroke-opacity:1; fill:none" points="
  349.207,947.582 349.207,47.2441 
  "/>
<polyline clip-path="url(#clip710)" style="stroke:#000000; stroke-linecap:butt; stroke-linejoin:round; stroke-width:4; stroke-opacity:1; fill:none" points="
  349.207,879.74 368.104,879.74 
  "/>
<polyline clip-path="url(#clip710)" style="stroke:#000000; stroke-linecap:butt; stroke-linejoin:round; stroke-width:4; stroke-opacity:1; fill:none" points="
  349.207,775.108 368.104,775.108 
  "/>
<polyline clip-path="url(#clip710)" style="stroke:#000000; stroke-linecap:butt; stroke-linejoin:round; stroke-width:4; stroke-opacity:1; fill:none" points="
  349.207,670.477 368.104,670.477 
  "/>
<polyline clip-path="url(#clip710)" style="stroke:#000000; stroke-linecap:butt; stroke-linejoin:round; stroke-width:4; stroke-opacity:1; fill:none" points="
  349.207,565.846 368.104,565.846 
  "/>
<polyline clip-path="url(#clip710)" style="stroke:#000000; stroke-linecap:butt; stroke-linejoin:round; stroke-width:4; stroke-opacity:1; fill:none" points="
  349.207,461.214 368.104,461.214 
  "/>
<polyline clip-path="url(#clip710)" style="stroke:#000000; stroke-linecap:butt; stroke-linejoin:round; stroke-width:4; stroke-opacity:1; fill:none" points="
  349.207,356.583 368.104,356.583 
  "/>
<polyline clip-path="url(#clip710)" style="stroke:#000000; stroke-linecap:butt; stroke-linejoin:round; stroke-width:4; stroke-opacity:1; fill:none" points="
  349.207,251.952 368.104,251.952 
  "/>
<polyline clip-path="url(#clip710)" style="stroke:#000000; stroke-linecap:butt; stroke-linejoin:round; stroke-width:4; stroke-opacity:1; fill:none" points="
  349.207,147.32 368.104,147.32 
  "/>
<g clip-path="url(#clip710)">
<text style="fill:#000000; fill-opacity:1; font-family:Arial,Helvetica Neue,Helvetica,sans-serif; font-size:89px; text-anchor:end;" transform="rotate(0, 328.207, 912.24)" x="328.207" y="912.24">−0.8</text>
</g>
<g clip-path="url(#clip710)">
<text style="fill:#000000; fill-opacity:1; font-family:Arial,Helvetica Neue,Helvetica,sans-serif; font-size:89px; text-anchor:end;" transform="rotate(0, 328.207, 807.608)" x="328.207" y="807.608">−0.6</text>
</g>
<g clip-path="url(#clip710)">
<text style="fill:#000000; fill-opacity:1; font-family:Arial,Helvetica Neue,Helvetica,sans-serif; font-size:89px; text-anchor:end;" transform="rotate(0, 328.207, 702.977)" x="328.207" y="702.977">−0.4</text>
</g>
<g clip-path="url(#clip710)">
<text style="fill:#000000; fill-opacity:1; font-family:Arial,Helvetica Neue,Helvetica,sans-serif; font-size:89px; text-anchor:end;" transform="rotate(0, 328.207, 598.346)" x="328.207" y="598.346">−0.2</text>
</g>
<g clip-path="url(#clip710)">
<text style="fill:#000000; fill-opacity:1; font-family:Arial,Helvetica Neue,Helvetica,sans-serif; font-size:89px; text-anchor:end;" transform="rotate(0, 328.207, 493.714)" x="328.207" y="493.714">0.0</text>
</g>
<g clip-path="url(#clip710)">
<text style="fill:#000000; fill-opacity:1; font-family:Arial,Helvetica Neue,Helvetica,sans-serif; font-size:89px; text-anchor:end;" transform="rotate(0, 328.207, 389.083)" x="328.207" y="389.083">0.2</text>
</g>
<g clip-path="url(#clip710)">
<text style="fill:#000000; fill-opacity:1; font-family:Arial,Helvetica Neue,Helvetica,sans-serif; font-size:89px; text-anchor:end;" transform="rotate(0, 328.207, 284.452)" x="328.207" y="284.452">0.4</text>
</g>
<g clip-path="url(#clip710)">
<text style="fill:#000000; fill-opacity:1; font-family:Arial,Helvetica Neue,Helvetica,sans-serif; font-size:89px; text-anchor:end;" transform="rotate(0, 328.207, 179.82)" x="328.207" y="179.82">0.6</text>
</g>
<g clip-path="url(#clip710)">
<text style="fill:#000000; fill-opacity:1; font-family:Arial,Helvetica Neue,Helvetica,sans-serif; font-size:89px; text-anchor:middle;" transform="rotate(-90, 115.267, 497.413)" x="115.267" y="497.413">Normalized Bias</text>
</g>
<polyline clip-path="url(#clip712)" style="stroke:#808080; stroke-linecap:butt; stroke-linejoin:round; stroke-width:8; stroke-opacity:1; fill:none" points="
  377.609,461.214 1324.35,461.214 
  "/>
<polyline clip-path="url(#clip712)" style="stroke:#d95f02; stroke-linecap:butt; stroke-linejoin:round; stroke-width:10; stroke-opacity:1; fill:none" points="
  377.609,431.664 566.958,525.777 756.307,743.602 945.656,657.085 1135,655.402 1324.35,294.959 
  "/>
<circle clip-path="url(#clip712)" cx="377.609" cy="431.664" r="32" fill="#d95f02" fill-rule="evenodd" fill-opacity="1" stroke="none"/>
<circle clip-path="url(#clip712)" cx="566.958" cy="525.777" r="32" fill="#d95f02" fill-rule="evenodd" fill-opacity="1" stroke="none"/>
<circle clip-path="url(#clip712)" cx="756.307" cy="743.602" r="32" fill="#d95f02" fill-rule="evenodd" fill-opacity="1" stroke="none"/>
<circle clip-path="url(#clip712)" cx="945.656" cy="657.085" r="32" fill="#d95f02" fill-rule="evenodd" fill-opacity="1" stroke="none"/>
<circle clip-path="url(#clip712)" cx="1135" cy="655.402" r="32" fill="#d95f02" fill-rule="evenodd" fill-opacity="1" stroke="none"/>
<circle clip-path="url(#clip712)" cx="1324.35" cy="294.959" r="32" fill="#d95f02" fill-rule="evenodd" fill-opacity="1" stroke="none"/>
<polyline clip-path="url(#clip712)" style="stroke:#1b9e77; stroke-linecap:butt; stroke-linejoin:round; stroke-width:10; stroke-opacity:1; fill:none" points="
  377.609,899.29 566.958,899.725 756.307,922.101 945.656,865.765 1135,616.47 1324.35,72.7254 
  "/>
<path clip-path="url(#clip712)" d="M377.609 863.29 L341.609 899.29 L377.609 935.29 L413.609 899.29 L377.609 863.29 Z" fill="#1b9e77" fill-rule="evenodd" fill-opacity="1" stroke="none"/>
<path clip-path="url(#clip712)" d="M566.958 863.725 L530.958 899.725 L566.958 935.725 L602.958 899.725 L566.958 863.725 Z" fill="#1b9e77" fill-rule="evenodd" fill-opacity="1" stroke="none"/>
<path clip-path="url(#clip712)" d="M756.307 886.101 L720.307 922.101 L756.307 958.101 L792.307 922.101 L756.307 886.101 Z" fill="#1b9e77" fill-rule="evenodd" fill-opacity="1" stroke="none"/>
<path clip-path="url(#clip712)" d="M945.656 829.765 L909.656 865.765 L945.656 901.765 L981.656 865.765 L945.656 829.765 Z" fill="#1b9e77" fill-rule="evenodd" fill-opacity="1" stroke="none"/>
<path clip-path="url(#clip712)" d="M1135 580.47 L1099 616.47 L1135 652.47 L1171 616.47 L1135 580.47 Z" fill="#1b9e77" fill-rule="evenodd" fill-opacity="1" stroke="none"/>
<path clip-path="url(#clip712)" d="M1324.35 36.7254 L1288.35 72.7254 L1324.35 108.725 L1360.35 72.7254 L1324.35 36.7254 Z" fill="#1b9e77" fill-rule="evenodd" fill-opacity="1" stroke="none"/>
</svg>
