<?xml version="1.0" encoding="utf-8"?>
<svg xmlns="http://www.w3.org/2000/svg" xmlns:xlink="http://www.w3.org/1999/xlink" width="350" height="300" viewBox="0 0 1400 1200">
<defs>
  <clipPath id="clip290">
    <rect x="0" y="0" width="1400" height="1200"/>
  </clipPath>
</defs>
<path clip-path="url(#clip290)" d="
M0 1200 L1400 1200 L1400 0 L0 0  Z
  " fill="#ffffff" fill-rule="evenodd" fill-opacity="1"/>
<defs>
  <clipPath id="clip291">
    <rect x="280" y="0" width="981" height="981"/>
  </clipPath>
</defs>
<path clip-path="url(#clip290)" d="
M355.479 947.582 L1352.76 947.582 L1352.76 47.2441 L355.479 47.2441  Z
  " fill="#ffffff" fill-rule="evenodd" fill-opacity="1"/>
<defs>
  <clipPath id="clip292">
    <rect x="355" y="47" width="998" height="901"/>
  </clipPath>
</defs>
<polyline clip-path="url(#clip290)" style="stroke:#000000; stroke-linecap:butt; stroke-linejoin:round; stroke-width:4; stroke-opacity:1; fill:none" points="
  355.479,947.582 1352.76,947.582 
  "/>
<polyline clip-path="url(#clip290)" style="stroke:#000000; stroke-linecap:butt; stroke-linejoin:round; stroke-width:4; stroke-opacity:1; fill:none" points="
  618.911,947.582 618.911,928.685 
  "/>
<polyline clip-path="url(#clip290)" style="stroke:#000000; stroke-linecap:butt; stroke-linejoin:round; stroke-width:4; stroke-opacity:1; fill:none" points="
  971.721,947.582 971.721,928.685 
  "/>
<polyline clip-path="url(#clip290)" style="stroke:#000000; stroke-linecap:butt; stroke-linejoin:round; stroke-width:4; stroke-opacity:1; fill:none" points="
  1324.53,947.582 1324.53,928.685 
  "/>
<g clip-path="url(#clip290)">
<text style="fill:#000000; fill-opacity:1; font-family:Arial,Helvetica Neue,Helvetica,sans-serif; font-size:89px; text-anchor:middle;" transform="rotate(0, 618.911, 1036.78)" x="618.911" y="1036.78">3</text>
</g>
<g clip-path="url(#clip290)">
<text style="fill:#000000; fill-opacity:1; font-family:Arial,Helvetica Neue,Helvetica,sans-serif; font-size:89px; text-anchor:middle;" transform="rotate(0, 971.721, 1036.78)" x="971.721" y="1036.78">6</text>
</g>
<g clip-path="url(#clip290)">
<text style="fill:#000000; fill-opacity:1; font-family:Arial,Helvetica Neue,Helvetica,sans-serif; font-size:89px; text-anchor:middle;" transform="rotate(0, 1324.53, 1036.78)" x="1324.53" y="1036.78">9</text>
</g>
<g clip-path="url(#clip290)">
<text style="fill:#000000; fill-opacity:1; font-family:Arial,Helvetica Neue,Helvetica,sans-serif; font-size:89px; text-anchor:middle;" transform="rotate(0, 854.118, 1144.21)" x="854.118" y="1144.21">Affinity type t</text>
</g>
<polyline clip-path="url(#clip290)" style="stroke:#000000; stroke-linecap:butt; stroke-linejoin:round; stroke-width:4; stroke-opacity:1; fill:none" points="
  355.479,947.582 355.479,47.2441 
  "/>
<polyline clip-path="url(#clip290)" style="stroke:#000000; stroke-linecap:butt; stroke-linejoin:round; stroke-width:4; stroke-opacity:1; fill:none" points="
  355.479,915.102 374.377,915.102 
  "/>
<polyline clip-path="url(#clip290)" style="stroke:#000000; stroke-linecap:butt; stroke-linejoin:round; stroke-width:4; stroke-opacity:1; fill:none" points="
  355.479,651.668 374.377,651.668 
  "/>
<polyline clip-path="url(#clip290)" style="stroke:#000000; stroke-linecap:butt; stroke-linejoin:round; stroke-width:4; stroke-opacity:1; fill:none" points="
  355.479,388.235 374.377,388.235 
  "/>
<polyline clip-path="url(#clip290)" style="stroke:#000000; stroke-linecap:butt; stroke-linejoin:round; stroke-width:4; stroke-opacity:1; fill:none" points="
  355.479,124.802 374.377,124.802 
  "/>
<g clip-path="url(#clip290)">
<text style="fill:#000000; fill-opacity:1; font-family:Arial,Helvetica Neue,Helvetica,sans-serif; font-size:89px; text-anchor:start;" transform="rotate(0, 152.579, 959.591)" x="152.579" y="959.591">10</text>
</g>
<g clip-path="url(#clip290)">
<text style="fill:#000000; fill-opacity:1; font-family:Arial,Helvetica Neue,Helvetica,sans-serif; font-size:73px; text-anchor:start;" transform="rotate(0, 252.938, 908.196)" x="252.938" y="908.196">−1</text>
</g>
<g clip-path="url(#clip290)">
<text style="fill:#000000; fill-opacity:1; font-family:Arial,Helvetica Neue,Helvetica,sans-serif; font-size:89px; text-anchor:start;" transform="rotate(0, 193.35, 696.158)" x="193.35" y="696.158">10</text>
</g>
<g clip-path="url(#clip290)">
<text style="fill:#000000; fill-opacity:1; font-family:Arial,Helvetica Neue,Helvetica,sans-serif; font-size:73px; text-anchor:start;" transform="rotate(0, 293.709, 644.763)" x="293.709" y="644.763">0</text>
</g>
<g clip-path="url(#clip290)">
<text style="fill:#000000; fill-opacity:1; font-family:Arial,Helvetica Neue,Helvetica,sans-serif; font-size:89px; text-anchor:start;" transform="rotate(0, 193.35, 432.724)" x="193.35" y="432.724">10</text>
</g>
<g clip-path="url(#clip290)">
<text style="fill:#000000; fill-opacity:1; font-family:Arial,Helvetica Neue,Helvetica,sans-serif; font-size:73px; text-anchor:start;" transform="rotate(0, 293.709, 381.33)" x="293.709" y="381.33">1</text>
</g>
<g clip-path="url(#clip290)">
<text style="fill:#000000; fill-opacity:1; font-family:Arial,Helvetica Neue,Helvetica,sans-serif; font-size:89px; text-anchor:start;" transform="rotate(0, 193.35, 169.291)" x="193.35" y="169.291">10</text>
</g>
<g clip-path="url(#clip290)">
<text style="fill:#000000; fill-opacity:1; font-family:Arial,Helvetica Neue,Helvetica,sans-serif; font-size:73px; text-anchor:start;" transform="rotate(0, 293.709, 117.897)" x="293.709" y="117.897">2</text>
</g>
<g clip-path="url(#clip290)">
<text style="fill:#000000; fill-opacity:1; font-family:Arial,Helvetica Neue,Helvetica,sans-serif; font-size:89px; text-anchor:middle;" transform="rotate(-90, 115.267, 497.413)" x="115.267" y="497.413">Affinity / Baseline</text>
</g>
<polyline clip-path="url(#clip292)" style="stroke:#808080; stroke-linecap:butt; stroke-linejoin:round; stroke-width:8; stroke-opacity:1; fill:none" points="
  383.704,651.668 1324.53,651.668 
  "/>
<polyline clip-path="url(#clip292)" style="stroke:#d95f02; stroke-linecap:butt; stroke-linejoin:round; stroke-width:10; stroke-opacity:1; fill:none" points="
  383.704,304.295 501.307,502.414 618.911,624.21 736.514,712.18 854.118,746.072 971.721,712.704 1089.32,662.983 1206.93,610.908 1324.53,239.561 
  "/>
<circle clip-path="url(#clip292)" cx="383.704" cy="304.295" r="32" fill="#d95f02" fill-rule="evenodd" fill-opacity="1" stroke="none"/>
<circle clip-path="url(#clip292)" cx="501.307" cy="502.414" r="32" fill="#d95f02" fill-rule="evenodd" fill-opacity="1" stroke="none"/>
<circle clip-path="url(#clip292)" cx="618.911" cy="624.21" r="32" fill="#d95f02" fill-rule="evenodd" fill-opacity="1" stroke="none"/>
<circle clip-path="url(#clip292)" cx="736.514" cy="712.18" r="32" fill="#d95f02" fill-rule="evenodd" fill-opacity="1" stroke="none"/>
<circle clip-path="url(#clip292)" cx="854.118" cy="746.072" r="32" fill="#d95f02" fill-rule="evenodd" fill-opacity="1" stroke="none"/>
<circle clip-path="url(#clip292)" cx="971.721" cy="712.704" r="32" fill="#d95f02" fill-rule="evenodd" fill-opacity="1" stroke="none"/>
<circle clip-path="url(#clip292)" cx="1089.32" cy="662.983" r="32" fill="#d95f02" fill-rule="evenodd" fill-opacity="1" stroke="none"/>
<circle clip-path="url(#clip292)" cx="1206.93" cy="610.908" r="32" fill="#d95f02" fill-rule="evenodd" fill-opacity="1" stroke="none"/>
<circle clip-path="url(#clip292)" cx="1324.53" cy="239.561" r="32" fill="#d95f02" fill-rule="evenodd" fill-opacity="1" stroke="none"/>
<polyline clip-path="url(#clip292)" style="stroke:#1b9e77; stroke-linecap:butt; stroke-linejoin:round; stroke-width:10; stroke-opacity:1; fill:none" points="
  383.704,786.938 501.307,839.013 618.911,888.733 736.514,922.101 854.118,888.209 971.721,800.24 1089.32,678.443 1206.93,480.324 1324.53,72.7254 
  "/>
<path clip-path="url(#clip292)" d="M383.704 750.938 L347.704 786.938 L383.704 822.938 L419.704 786.938 L383.704 750.938 Z" fill="#1b9e77" fill-rule="evenodd" fill-opacity="1" stroke="none"/>
<path clip-path="url(#clip292)" d="M501.307 803.013 L465.307 839.013 L501.307 875.013 L537.307 839.013 L501.307 803.013 Z" fill="#1b9e77" fill-rule="evenodd" fill-opacity="1" stroke="none"/>
<path clip-path="url(#clip292)" d="M618.911 852.733 L582.911 888.733 L618.911 924.733 L654.911 888.733 L618.911 852.733 Z" fill="#1b9e77" fill-rule="evenodd" fill-opacity="1" stroke="none"/>
<path clip-path="url(#clip292)" d="M736.514 886.101 L700.514 922.101 L736.514 958.101 L772.514 922.101 L736.514 886.101 Z" fill="#1b9e77" fill-rule="evenodd" fill-opacity="1" stroke="none"/>
<path clip-path="url(#clip292)" d="M854.118 852.209 L818.118 888.209 L854.118 924.209 L890.118 888.209 L854.118 852.209 Z" fill="#1b9e77" fill-rule="evenodd" fill-opacity="1" stroke="none"/>
<path clip-path="url(#clip292)" d="M971.721 764.24 L935.721 800.24 L971.721 836.24 L1007.72 800.24 L971.721 764.24 Z" fill="#1b9e77" fill-rule="evenodd" fill-opacity="1" stroke="none"/>
<path clip-path="url(#clip292)" d="M1089.32 642.443 L1053.32 678.443 L1089.32 714.443 L1125.32 678.443 L1089.32 642.443 Z" fill="#1b9e77" fill-rule="evenodd" fill-opacity="1" stroke="none"/>
<path clip-path="url(#clip292)" d="M1206.93 444.324 L1170.93 480.324 L1206.93 516.324 L1242.93 480.324 L1206.93 444.324 Z" fill="#1b9e77" fill-rule="evenodd" fill-opacity="1" stroke="none"/>
<path clip-path="url(#clip292)" d="M1324.53 36.7254 L1288.53 72.7254 L1324.53 108.725 L1360.53 72.7254 L1324.53 36.7254 Z" fill="#1b9e77" fill-rule="evenodd" fill-opacity="1" stroke="none"/>
</svg>
