<?xml version="1.0" encoding="utf-8"?>
<svg xmlns="http://www.w3.org/2000/svg" xmlns:xlink="http://www.w3.org/1999/xlink" width="350" height="300" viewBox="0 0 1400 1200">
<defs>
  <clipPath id="clip190">
    <rect x="0" y="0" width="1400" height="1200"/>
  </clipPath>
</defs>
<path clip-path="url(#clip190)" d="
M0 1200 L1400 1200 L1400 0 L0 0  Z
  " fill="#ffffff" fill-rule="evenodd" fill-opacity="1"/>
<defs>
  <clipPath id="clip191">
    <rect x="280" y="0" width="981" height="981"/>
  </clipPath>
</defs>
<path clip-path="url(#clip190)" d="
M416.635 947.582 L1352.76 947.582 L1352.76 47.2441 L416.635 47.2441  Z
  " fill="#ffffff" fill-rule="evenodd" fill-opacity="1"/>
<defs>
  <clipPath id="clip192">
    <rect x="416" y="47" width="937" height="901"/>
  </clipPath>
</defs>
<polyline clip-path="url(#clip190)" style="stroke:#000000; stroke-linecap:butt; stroke-linejoin:round; stroke-width:4; stroke-opacity:1; fill:none" points="
  416.635,947.582 1352.76,947.582 
  "/>
<polyline clip-path="url(#clip190)" style="stroke:#000000; stroke-linecap:butt; stroke-linejoin:round; stroke-width:4; stroke-opacity:1; fill:none" points="
  443.129,947.582 443.129,928.685 
  "/>
<polyline clip-path="url(#clip190)" style="stroke:#000000; stroke-linecap:butt; stroke-linejoin:round; stroke-width:4; stroke-opacity:1; fill:none" points="
  884.696,947.582 884.696,928.685 
  "/>
<polyline clip-path="url(#clip190)" style="stroke:#000000; stroke-linecap:butt; stroke-linejoin:round; stroke-width:4; stroke-opacity:1; fill:none" points="
  1326.26,947.582 1326.26,928.685 
  "/>
<g clip-path="url(#clip190)">
<text style="fill:#000000; fill-opacity:1; font-family:Arial,Helvetica Neue,Helvetica,sans-serif; font-size:89px; text-anchor:middle;" transform="rotate(0, 443.129, 1036.78)" x="443.129" y="1036.78">1</text>
</g>
<g clip-path="url(#clip190)">
<text style="fill:#000000; fill-opacity:1; font-family:Arial,Helvetica Neue,Helvetica,sans-serif; font-size:89px; text-anchor:middle;" transform="rotate(0, 884.696, 1036.78)" x="884.696" y="1036.78">2</text>
</g>
<g clip-path="url(#clip190)">
<text style="fill:#000000; fill-opacity:1; font-family:Arial,Helvetica Neue,Helvetica,sans-serif; font-size:89px; text-anchor:middle;" transform="rotate(0, 1326.26, 1036.78)" x="1326.26" y="1036.78">3</text>
</g>
<g clip-path="url(#clip190)">
<text style="fill:#000000; fill-opacity:1; font-family:Arial,Helvetica Neue,Helvetica,sans-serif; font-size:89px; text-anchor:middle;" transform="rotate(0, 884.696, 1144.21)" x="884.696" y="1144.21">Affinity type t</text>
</g>
<polyline clip-path="url(#clip190)" style="stroke:#000000; stroke-linecap:butt; stroke-linejoin:round; stroke-width:4; stroke-opacity:1; fill:none" points="
  416.635,947.582 416.635,47.2441 
  "/>
<polyline clip-path="url(#clip190)" style="stroke:#000000; stroke-linecap:butt; stroke-linejoin:round; stroke-width:4; stroke-opacity:1; fill:none" points="
  416.635,771.521 435.533,771.521 
  "/>
<polyline clip-path="url(#clip190)" style="stroke:#000000; stroke-linecap:butt; stroke-linejoin:round; stroke-width:4; stroke-opacity:1; fill:none" points="
  416.635,581.059 435.533,581.059 
  "/>
<polyline clip-path="url(#clip190)" style="stroke:#000000; stroke-linecap:butt; stroke-linejoin:round; stroke-width:4; stroke-opacity:1; fill:none" points="
  416.635,390.597 435.533,390.597 
  "/>
<polyline clip-path="url(#clip190)" style="stroke:#000000; stroke-linecap:butt; stroke-linejoin:round; stroke-width:4; stroke-opacity:1; fill:none" points="
  416.635,200.136 435.533,200.136 
  "/>
<g clip-path="url(#clip190)">
<text style="fill:#000000; fill-opacity:1; font-family:Arial,Helvetica Neue,Helvetica,sans-serif; font-size:89px; text-anchor:start;" transform="rotate(0, 152.579, 816.011)" x="152.579" y="816.011">10</text>
</g>
<g clip-path="url(#clip190)">
<text style="fill:#000000; fill-opacity:1; font-family:Arial,Helvetica Neue,Helvetica,sans-serif; font-size:73px; text-anchor:start;" transform="rotate(0, 252.938, 764.616)" x="252.938" y="764.616">−0.6</text>
</g>
<g clip-path="url(#clip190)">
<text style="fill:#000000; fill-opacity:1; font-family:Arial,Helvetica Neue,Helvetica,sans-serif; font-size:89px; text-anchor:start;" transform="rotate(0, 152.579, 625.549)" x="152.579" y="625.549">10</text>
</g>
<g clip-path="url(#clip190)">
<text style="fill:#000000; fill-opacity:1; font-family:Arial,Helvetica Neue,Helvetica,sans-serif; font-size:73px; text-anchor:start;" transform="rotate(0, 252.938, 574.154)" x="252.938" y="574.154">−0.3</text>
</g>
<g clip-path="url(#clip190)">
<text style="fill:#000000; fill-opacity:1; font-family:Arial,Helvetica Neue,Helvetica,sans-serif; font-size:89px; text-anchor:start;" transform="rotate(0, 193.35, 435.087)" x="193.35" y="435.087">10</text>
</g>
<g clip-path="url(#clip190)">
<text style="fill:#000000; fill-opacity:1; font-family:Arial,Helvetica Neue,Helvetica,sans-serif; font-size:73px; text-anchor:start;" transform="rotate(0, 293.709, 383.692)" x="293.709" y="383.692">0.0</text>
</g>
<g clip-path="url(#clip190)">
<text style="fill:#000000; fill-opacity:1; font-family:Arial,Helvetica Neue,Helvetica,sans-serif; font-size:89px; text-anchor:start;" transform="rotate(0, 193.35, 244.625)" x="193.35" y="244.625">10</text>
</g>
<g clip-path="url(#clip190)">
<text style="fill:#000000; fill-opacity:1; font-family:Arial,Helvetica Neue,Helvetica,sans-serif; font-size:73px; text-anchor:start;" transform="rotate(0, 293.709, 193.23)" x="293.709" y="193.23">0.3</text>
</g>
<g clip-path="url(#clip190)">
<text style="fill:#000000; fill-opacity:1; font-family:Arial,Helvetica Neue,Helvetica,sans-serif; font-size:89px; text-anchor:middle;" transform="rotate(-90, 115.267, 497.413)" x="115.267" y="497.413">Affinity / Baseline</text>
</g>
<polyline clip-path="url(#clip192)" style="stroke:#808080; stroke-linecap:butt; stroke-linejoin:round; stroke-width:8; stroke-opacity:1; fill:none" points="
  443.129,390.597 1326.26,390.597 
  "/>
<polyline clip-path="url(#clip192)" style="stroke:#d95f02; stroke-linecap:butt; stroke-linejoin:round; stroke-width:10; stroke-opacity:1; fill:none" points="
  443.129,454.982 884.696,683.136 1326.26,134.841 
  "/>
<circle clip-path="url(#clip192)" cx="443.129" cy="454.982" r="32" fill="#d95f02" fill-rule="evenodd" fill-opacity="1" stroke="none"/>
<circle clip-path="url(#clip192)" cx="884.696" cy="683.136" r="32" fill="#d95f02" fill-rule="evenodd" fill-opacity="1" stroke="none"/>
<circle clip-path="url(#clip192)" cx="1326.26" cy="134.841" r="32" fill="#d95f02" fill-rule="evenodd" fill-opacity="1" stroke="none"/>
<polyline clip-path="url(#clip192)" style="stroke:#1b9e77; stroke-linecap:butt; stroke-linejoin:round; stroke-width:10; stroke-opacity:1; fill:none" points="
  443.129,922.101 884.696,693.947 1326.26,72.7254 
  "/>
<path clip-path="url(#clip192)" d="M443.129 886.101 L407.129 922.101 L443.129 958.101 L479.129 922.101 L443.129 886.101 Z" fill="#1b9e77" fill-rule="evenodd" fill-opacity="1" stroke="none"/>
<path clip-path="url(#clip192)" d="M884.696 657.947 L848.696 693.947 L884.696 729.947 L920.696 693.947 L884.696 657.947 Z" fill="#1b9e77" fill-rule="evenodd" fill-opacity="1" stroke="none"/>
<path clip-path="url(#clip192)" d="M1326.26 36.7254 L1290.26 72.7254 L1326.26 108.725 L1362.26 72.7254 L1326.26 36.7254 Z" fill="#1b9e77" fill-rule="evenodd" fill-opacity="1" stroke="none"/>
</svg>
