<?xml version="1.0" encoding="utf-8"?>
<svg xmlns="http://www.w3.org/2000/svg" xmlns:xlink="http://www.w3.org/1999/xlink" width="375" height="300" viewBox="0 0 1500 1200">
<defs>
  <clipPath id="clip900">
    <rect x="0" y="0" width="1500" height="1200"/>
  </clipPath>
</defs>
<path clip-path="url(#clip900)" d="
M0 1200 L1500 1200 L1500 0 L0 0  Z
  " fill="#ffffff" fill-rule="evenodd" fill-opacity="1"/>
<defs>
  <clipPath id="clip901">
    <rect x="300" y="0" width="1051" height="1051"/>
  </clipPath>
</defs>
<path clip-path="url(#clip900)" d="
M348.961 1034.47 L1452.76 1034.47 L1452.76 47.2441 L348.961 47.2441  Z
  " fill="#ffffff" fill-rule="evenodd" fill-opacity="1"/>
<defs>
  <clipPath id="clip902">
    <rect x="348" y="47" width="1105" height="988"/>
  </clipPath>
</defs>
<polyline clip-path="url(#clip900)" style="stroke:#000000; stroke-linecap:butt; stroke-linejoin:round; stroke-width:4; stroke-opacity:1; fill:none" points="
  348.961,1034.47 1452.76,1034.47 
  "/>
<polyline clip-path="url(#clip900)" style="stroke:#000000; stroke-linecap:butt; stroke-linejoin:round; stroke-width:4; stroke-opacity:1; fill:none" points="
  380.2,1034.47 380.2,1015.57 
  "/>
<polyline clip-path="url(#clip900)" style="stroke:#000000; stroke-linecap:butt; stroke-linejoin:round; stroke-width:4; stroke-opacity:1; fill:none" points="
  727.306,1034.47 727.306,1015.57 
  "/>
<polyline clip-path="url(#clip900)" style="stroke:#000000; stroke-linecap:butt; stroke-linejoin:round; stroke-width:4; stroke-opacity:1; fill:none" points="
  1074.41,1034.47 1074.41,1015.57 
  "/>
<polyline clip-path="url(#clip900)" style="stroke:#000000; stroke-linecap:butt; stroke-linejoin:round; stroke-width:4; stroke-opacity:1; fill:none" points="
  1421.52,1034.47 1421.52,1015.57 
  "/>
<g clip-path="url(#clip900)">
<text style="fill:#000000; fill-opacity:1; font-family:Arial,Helvetica Neue,Helvetica,sans-serif; font-size:107px; text-anchor:middle;" transform="rotate(0, 380.2, 1140.07)" x="380.2" y="1140.07">1</text>
</g>
<g clip-path="url(#clip900)">
<text style="fill:#000000; fill-opacity:1; font-family:Arial,Helvetica Neue,Helvetica,sans-serif; font-size:107px; text-anchor:middle;" transform="rotate(0, 727.306, 1140.07)" x="727.306" y="1140.07">2</text>
</g>
<g clip-path="url(#clip900)">
<text style="fill:#000000; fill-opacity:1; font-family:Arial,Helvetica Neue,Helvetica,sans-serif; font-size:107px; text-anchor:middle;" transform="rotate(0, 1074.41, 1140.07)" x="1074.41" y="1140.07">3</text>
</g>
<g clip-path="url(#clip900)">
<text style="fill:#000000; fill-opacity:1; font-family:Arial,Helvetica Neue,Helvetica,sans-serif; font-size:107px; text-anchor:middle;" transform="rotate(0, 1421.52, 1140.07)" x="1421.52" y="1140.07">4</text>
</g>
<polyline clip-path="url(#clip900)" style="stroke:#000000; stroke-linecap:butt; stroke-linejoin:round; stroke-width:4; stroke-opacity:1; fill:none" points="
  348.961,1034.47 348.961,47.2441 
  "/>
<polyline clip-path="url(#clip900)" style="stroke:#000000; stroke-linecap:butt; stroke-linejoin:round; stroke-width:4; stroke-opacity:1; fill:none" points="
  348.961,894.278 367.858,894.278 
  "/>
<polyline clip-path="url(#clip900)" style="stroke:#000000; stroke-linecap:butt; stroke-linejoin:round; stroke-width:4; stroke-opacity:1; fill:none" points="
  348.961,703.788 367.858,703.788 
  "/>
<polyline clip-path="url(#clip900)" style="stroke:#000000; stroke-linecap:butt; stroke-linejoin:round; stroke-width:4; stroke-opacity:1; fill:none" points="
  348.961,513.299 367.858,513.299 
  "/>
<polyline clip-path="url(#clip900)" style="stroke:#000000; stroke-linecap:butt; stroke-linejoin:round; stroke-width:4; stroke-opacity:1; fill:none" points="
  348.961,322.81 367.858,322.81 
  "/>
<polyline clip-path="url(#clip900)" style="stroke:#000000; stroke-linecap:butt; stroke-linejoin:round; stroke-width:4; stroke-opacity:1; fill:none" points="
  348.961,132.32 367.858,132.32 
  "/>
<g clip-path="url(#clip900)">
<text style="fill:#000000; fill-opacity:1; font-family:Arial,Helvetica Neue,Helvetica,sans-serif; font-size:107px; text-anchor:end;" transform="rotate(0, 326.461, 933.278)" x="326.461" y="933.278">−0.75</text>
</g>
<g clip-path="url(#clip900)">
<text style="fill:#000000; fill-opacity:1; font-family:Arial,Helvetica Neue,Helvetica,sans-serif; font-size:107px; text-anchor:end;" transform="rotate(0, 326.461, 742.788)" x="326.461" y="742.788">−0.50</text>
</g>
<g clip-path="url(#clip900)">
<text style="fill:#000000; fill-opacity:1; font-family:Arial,Helvetica Neue,Helvetica,sans-serif; font-size:107px; text-anchor:end;" transform="rotate(0, 326.461, 552.299)" x="326.461" y="552.299">−0.25</text>
</g>
<g clip-path="url(#clip900)">
<text style="fill:#000000; fill-opacity:1; font-family:Arial,Helvetica Neue,Helvetica,sans-serif; font-size:107px; text-anchor:end;" transform="rotate(0, 326.461, 361.81)" x="326.461" y="361.81">0.00</text>
</g>
<g clip-path="url(#clip900)">
<text style="fill:#000000; fill-opacity:1; font-family:Arial,Helvetica Neue,Helvetica,sans-serif; font-size:107px; text-anchor:end;" transform="rotate(0, 326.461, 171.32)" x="326.461" y="171.32">0.25</text>
</g>
<polyline clip-path="url(#clip902)" style="stroke:#808080; stroke-linecap:butt; stroke-linejoin:round; stroke-width:8; stroke-opacity:1; fill:none" points="
  380.2,322.81 1421.52,322.81 
  "/>
<path clip-path="url(#clip902)" d="
M380.2 318.013 L727.306 106.362 L1074.41 495.864 L1421.52 919.461 L1421.52 1006.53 L1074.41 549.109 L727.306 147.772 L380.2 369.671  Z
  " fill="#0000ff" fill-rule="evenodd" fill-opacity="0.3"/>
<polyline clip-path="url(#clip902)" style="stroke:#0000ff; stroke-linecap:butt; stroke-linejoin:round; stroke-width:8; stroke-opacity:1; fill:none" points="
  380.2,318.013 727.306,106.362 1074.41,495.864 1421.52,919.461 
  "/>
<path clip-path="url(#clip902)" d="M380.2 282.013 L344.2 318.013 L380.2 354.013 L416.2 318.013 L380.2 282.013 Z" fill="#0000ff" fill-rule="evenodd" fill-opacity="1" stroke="none"/>
<path clip-path="url(#clip902)" d="M727.306 70.362 L691.306 106.362 L727.306 142.362 L763.306 106.362 L727.306 70.362 Z" fill="#0000ff" fill-rule="evenodd" fill-opacity="1" stroke="none"/>
<path clip-path="url(#clip902)" d="M1074.41 459.864 L1038.41 495.864 L1074.41 531.864 L1110.41 495.864 L1074.41 459.864 Z" fill="#0000ff" fill-rule="evenodd" fill-opacity="1" stroke="none"/>
<path clip-path="url(#clip902)" d="M1421.52 883.461 L1385.52 919.461 L1421.52 955.461 L1457.52 919.461 L1421.52 883.461 Z" fill="#0000ff" fill-rule="evenodd" fill-opacity="1" stroke="none"/>
<path clip-path="url(#clip902)" d="
M380.2 318.013 L727.306 106.362 L1074.41 495.864 L1421.52 919.461 L1421.52 846.808 L1074.41 432.644 L727.306 75.1844 L380.2 288.91  Z
  " fill="#0000ff" fill-rule="evenodd" fill-opacity="0.3"/>
<polyline clip-path="url(#clip902)" style="stroke:#0000ff; stroke-linecap:butt; stroke-linejoin:round; stroke-width:8; stroke-opacity:1; fill:none" points="
  380.2,318.013 727.306,106.362 1074.41,495.864 1421.52,919.461 
  "/>
<path clip-path="url(#clip902)" d="M380.2 282.013 L344.2 318.013 L380.2 354.013 L416.2 318.013 L380.2 282.013 Z" fill="#0000ff" fill-rule="evenodd" fill-opacity="1" stroke="none"/>
<path clip-path="url(#clip902)" d="M727.306 70.362 L691.306 106.362 L727.306 142.362 L763.306 106.362 L727.306 70.362 Z" fill="#0000ff" fill-rule="evenodd" fill-opacity="1" stroke="none"/>
<path clip-path="url(#clip902)" d="M1074.41 459.864 L1038.41 495.864 L1074.41 531.864 L1110.41 495.864 L1074.41 459.864 Z" fill="#0000ff" fill-rule="evenodd" fill-opacity="1" stroke="none"/>
<path clip-path="url(#clip902)" d="M1421.52 883.461 L1385.52 919.461 L1421.52 955.461 L1457.52 919.461 L1421.52 883.461 Z" fill="#0000ff" fill-rule="evenodd" fill-opacity="1" stroke="none"/>
<path clip-path="url(#clip902)" d="
M380.2 546.915 L727.306 164.756 L1074.41 358.195 L1421.52 782.815 L1421.52 875.213 L1074.41 409.192 L727.306 208.838 L380.2 612.833  Z
  " fill="#008000" fill-rule="evenodd" fill-opacity="0.3"/>
<polyline clip-path="url(#clip902)" style="stroke:#008000; stroke-linecap:butt; stroke-linejoin:round; stroke-width:8; stroke-opacity:1; fill:none" points="
  380.2,546.915 727.306,164.756 1074.41,358.195 1421.52,782.815 
  "/>
<circle clip-path="url(#clip902)" cx="380.2" cy="546.915" r="32" fill="#008000" fill-rule="evenodd" fill-opacity="1" stroke="none"/>
<circle clip-path="url(#clip902)" cx="727.306" cy="164.756" r="32" fill="#008000" fill-rule="evenodd" fill-opacity="1" stroke="none"/>
<circle clip-path="url(#clip902)" cx="1074.41" cy="358.195" r="32" fill="#008000" fill-rule="evenodd" fill-opacity="1" stroke="none"/>
<circle clip-path="url(#clip902)" cx="1421.52" cy="782.815" r="32" fill="#008000" fill-rule="evenodd" fill-opacity="1" stroke="none"/>
<path clip-path="url(#clip902)" d="
M380.2 546.915 L727.306 164.756 L1074.41 358.195 L1421.52 782.815 L1421.52 682.294 L1074.41 298.816 L727.306 136.087 L380.2 473.954  Z
  " fill="#008000" fill-rule="evenodd" fill-opacity="0.3"/>
<polyline clip-path="url(#clip902)" style="stroke:#008000; stroke-linecap:butt; stroke-linejoin:round; stroke-width:8; stroke-opacity:1; fill:none" points="
  380.2,546.915 727.306,164.756 1074.41,358.195 1421.52,782.815 
  "/>
<circle clip-path="url(#clip902)" cx="380.2" cy="546.915" r="32" fill="#008000" fill-rule="evenodd" fill-opacity="1" stroke="none"/>
<circle clip-path="url(#clip902)" cx="727.306" cy="164.756" r="32" fill="#008000" fill-rule="evenodd" fill-opacity="1" stroke="none"/>
<circle clip-path="url(#clip902)" cx="1074.41" cy="358.195" r="32" fill="#008000" fill-rule="evenodd" fill-opacity="1" stroke="none"/>
<circle clip-path="url(#clip902)" cx="1421.52" cy="782.815" r="32" fill="#008000" fill-rule="evenodd" fill-opacity="1" stroke="none"/>
</svg>
