<?xml version="1.0" encoding="utf-8"?>
<svg xmlns="http://www.w3.org/2000/svg" xmlns:xlink="http://www.w3.org/1999/xlink" width="375" height="300" viewBox="0 0 1500 1200">
<defs>
  <clipPath id="clip830">
    <rect x="0" y="0" width="1500" height="1200"/>
  </clipPath>
</defs>
<path clip-path="url(#clip830)" d="
M0 1200 L1500 1200 L1500 0 L0 0  Z
  " fill="#ffffff" fill-rule="evenodd" fill-opacity="1"/>
<defs>
  <clipPath id="clip831">
    <rect x="300" y="0" width="1051" height="1051"/>
  </clipPath>
</defs>
<path clip-path="url(#clip830)" d="
M288.746 928.181 L1452.76 928.181 L1452.76 47.2441 L288.746 47.2441  Z
  " fill="#ffffff" fill-rule="evenodd" fill-opacity="1"/>
<defs>
  <clipPath id="clip832">
    <rect x="288" y="47" width="1165" height="882"/>
  </clipPath>
</defs>
<polyline clip-path="url(#clip830)" style="stroke:#000000; stroke-linecap:butt; stroke-linejoin:round; stroke-width:4; stroke-opacity:1; fill:none" points="
  288.746,928.181 1452.76,928.181 
  "/>
<polyline clip-path="url(#clip830)" style="stroke:#000000; stroke-linecap:butt; stroke-linejoin:round; stroke-width:4; stroke-opacity:1; fill:none" points="
  321.689,928.181 321.689,909.283 
  "/>
<polyline clip-path="url(#clip830)" style="stroke:#000000; stroke-linecap:butt; stroke-linejoin:round; stroke-width:4; stroke-opacity:1; fill:none" points="
  870.751,928.181 870.751,909.283 
  "/>
<polyline clip-path="url(#clip830)" style="stroke:#000000; stroke-linecap:butt; stroke-linejoin:round; stroke-width:4; stroke-opacity:1; fill:none" points="
  1419.81,928.181 1419.81,909.283 
  "/>
<g clip-path="url(#clip830)">
<text style="fill:#000000; fill-opacity:1; font-family:Arial,Helvetica Neue,Helvetica,sans-serif; font-size:107px; text-anchor:middle;" transform="rotate(0, 321.689, 1033.78)" x="321.689" y="1033.78">1</text>
</g>
<g clip-path="url(#clip830)">
<text style="fill:#000000; fill-opacity:1; font-family:Arial,Helvetica Neue,Helvetica,sans-serif; font-size:107px; text-anchor:middle;" transform="rotate(0, 870.751, 1033.78)" x="870.751" y="1033.78">2</text>
</g>
<g clip-path="url(#clip830)">
<text style="fill:#000000; fill-opacity:1; font-family:Arial,Helvetica Neue,Helvetica,sans-serif; font-size:107px; text-anchor:middle;" transform="rotate(0, 1419.81, 1033.78)" x="1419.81" y="1033.78">3</text>
</g>
<g clip-path="url(#clip830)">
<text style="fill:#000000; fill-opacity:1; font-family:Arial,Helvetica Neue,Helvetica,sans-serif; font-size:107px; text-anchor:middle;" transform="rotate(0, 870.751, 1161.43)" x="870.751" y="1161.43">Affinity type t</text>
</g>
<polyline clip-path="url(#clip830)" style="stroke:#000000; stroke-linecap:butt; stroke-linejoin:round; stroke-width:4; stroke-opacity:1; fill:none" points="
  288.746,928.181 288.746,47.2441 
  "/>
<polyline clip-path="url(#clip830)" style="stroke:#000000; stroke-linecap:butt; stroke-linejoin:round; stroke-width:4; stroke-opacity:1; fill:none" points="
  288.746,766.848 307.643,766.848 
  "/>
<polyline clip-path="url(#clip830)" style="stroke:#000000; stroke-linecap:butt; stroke-linejoin:round; stroke-width:4; stroke-opacity:1; fill:none" points="
  288.746,564.268 307.643,564.268 
  "/>
<polyline clip-path="url(#clip830)" style="stroke:#000000; stroke-linecap:butt; stroke-linejoin:round; stroke-width:4; stroke-opacity:1; fill:none" points="
  288.746,361.688 307.643,361.688 
  "/>
<polyline clip-path="url(#clip830)" style="stroke:#000000; stroke-linecap:butt; stroke-linejoin:round; stroke-width:4; stroke-opacity:1; fill:none" points="
  288.746,159.108 307.643,159.108 
  "/>
<g clip-path="url(#clip830)">
<text style="fill:#000000; fill-opacity:1; font-family:Arial,Helvetica Neue,Helvetica,sans-serif; font-size:107px; text-anchor:end;" transform="rotate(0, 266.246, 805.848)" x="266.246" y="805.848">−0.4</text>
</g>
<g clip-path="url(#clip830)">
<text style="fill:#000000; fill-opacity:1; font-family:Arial,Helvetica Neue,Helvetica,sans-serif; font-size:107px; text-anchor:end;" transform="rotate(0, 266.246, 603.268)" x="266.246" y="603.268">−0.2</text>
</g>
<g clip-path="url(#clip830)">
<text style="fill:#000000; fill-opacity:1; font-family:Arial,Helvetica Neue,Helvetica,sans-serif; font-size:107px; text-anchor:end;" transform="rotate(0, 266.246, 400.688)" x="266.246" y="400.688">0.0</text>
</g>
<g clip-path="url(#clip830)">
<text style="fill:#000000; fill-opacity:1; font-family:Arial,Helvetica Neue,Helvetica,sans-serif; font-size:107px; text-anchor:end;" transform="rotate(0, 266.246, 198.108)" x="266.246" y="198.108">0.2</text>
</g>
<polyline clip-path="url(#clip832)" style="stroke:#808080; stroke-linecap:butt; stroke-linejoin:round; stroke-width:8; stroke-opacity:1; fill:none" points="
  321.689,361.688 1419.81,361.688 
  "/>
<path clip-path="url(#clip832)" d="
M321.689 335.132 L870.751 714.496 L1419.81 153.038 L1419.81 227.751 L870.751 817.971 L321.689 444.428  Z
  " fill="#0000ff" fill-rule="evenodd" fill-opacity="0.3"/>
<polyline clip-path="url(#clip832)" style="stroke:#0000ff; stroke-linecap:butt; stroke-linejoin:round; stroke-width:8; stroke-opacity:1; fill:none" points="
  321.689,335.132 870.751,714.496 1419.81,153.038 
  "/>
<path clip-path="url(#clip832)" d="M321.689 299.132 L285.689 335.132 L321.689 371.132 L357.689 335.132 L321.689 299.132 Z" fill="#0000ff" fill-rule="evenodd" fill-opacity="1" stroke="none"/>
<path clip-path="url(#clip832)" d="M870.751 678.496 L834.751 714.496 L870.751 750.496 L906.751 714.496 L870.751 678.496 Z" fill="#0000ff" fill-rule="evenodd" fill-opacity="1" stroke="none"/>
<path clip-path="url(#clip832)" d="M1419.81 117.038 L1383.81 153.038 L1419.81 189.038 L1455.81 153.038 L1419.81 117.038 Z" fill="#0000ff" fill-rule="evenodd" fill-opacity="1" stroke="none"/>
<path clip-path="url(#clip832)" d="
M321.689 335.132 L870.751 714.496 L1419.81 153.038 L1419.81 72.1763 L870.751 617.054 L321.689 268.306  Z
  " fill="#0000ff" fill-rule="evenodd" fill-opacity="0.3"/>
<polyline clip-path="url(#clip832)" style="stroke:#0000ff; stroke-linecap:butt; stroke-linejoin:round; stroke-width:8; stroke-opacity:1; fill:none" points="
  321.689,335.132 870.751,714.496 1419.81,153.038 
  "/>
<path clip-path="url(#clip832)" d="M321.689 299.132 L285.689 335.132 L321.689 371.132 L357.689 335.132 L321.689 299.132 Z" fill="#0000ff" fill-rule="evenodd" fill-opacity="1" stroke="none"/>
<path clip-path="url(#clip832)" d="M870.751 678.496 L834.751 714.496 L870.751 750.496 L906.751 714.496 L870.751 678.496 Z" fill="#0000ff" fill-rule="evenodd" fill-opacity="1" stroke="none"/>
<path clip-path="url(#clip832)" d="M1419.81 117.038 L1383.81 153.038 L1419.81 189.038 L1455.81 153.038 L1419.81 117.038 Z" fill="#0000ff" fill-rule="evenodd" fill-opacity="1" stroke="none"/>
<path clip-path="url(#clip832)" d="
M321.689 804.217 L870.751 430.526 L1419.81 168.286 L1419.81 246.042 L870.751 524.348 L321.689 903.249  Z
  " fill="#008000" fill-rule="evenodd" fill-opacity="0.3"/>
<polyline clip-path="url(#clip832)" style="stroke:#008000; stroke-linecap:butt; stroke-linejoin:round; stroke-width:8; stroke-opacity:1; fill:none" points="
  321.689,804.217 870.751,430.526 1419.81,168.286 
  "/>
<circle clip-path="url(#clip832)" cx="321.689" cy="804.217" r="32" fill="#008000" fill-rule="evenodd" fill-opacity="1" stroke="none"/>
<circle clip-path="url(#clip832)" cx="870.751" cy="430.526" r="32" fill="#008000" fill-rule="evenodd" fill-opacity="1" stroke="none"/>
<circle clip-path="url(#clip832)" cx="1419.81" cy="168.286" r="32" fill="#008000" fill-rule="evenodd" fill-opacity="1" stroke="none"/>
<path clip-path="url(#clip832)" d="
M321.689 804.217 L870.751 430.526 L1419.81 168.286 L1419.81 105.028 L870.751 324.009 L321.689 687.084  Z
  " fill="#008000" fill-rule="evenodd" fill-opacity="0.3"/>
<polyline clip-path="url(#clip832)" style="stroke:#008000; stroke-linecap:butt; stroke-linejoin:round; stroke-width:8; stroke-opacity:1; fill:none" points="
  321.689,804.217 870.751,430.526 1419.81,168.286 
  "/>
<circle clip-path="url(#clip832)" cx="321.689" cy="804.217" r="32" fill="#008000" fill-rule="evenodd" fill-opacity="1" stroke="none"/>
<circle clip-path="url(#clip832)" cx="870.751" cy="430.526" r="32" fill="#008000" fill-rule="evenodd" fill-opacity="1" stroke="none"/>
<circle clip-path="url(#clip832)" cx="1419.81" cy="168.286" r="32" fill="#008000" fill-rule="evenodd" fill-opacity="1" stroke="none"/>
</svg>
