<?xml version="1.0" encoding="utf-8"?>
<svg xmlns="http://www.w3.org/2000/svg" xmlns:xlink="http://www.w3.org/1999/xlink" width="375" height="300" viewBox="0 0 1500 1200">
<defs>
  <clipPath id="clip760">
    <rect x="0" y="0" width="1500" height="1200"/>
  </clipPath>
</defs>
<path clip-path="url(#clip760)" d="
M0 1200 L1500 1200 L1500 0 L0 0  Z
  " fill="#ffffff" fill-rule="evenodd" fill-opacity="1"/>
<defs>
  <clipPath id="clip761">
    <rect x="300" y="0" width="1051" height="1051"/>
  </clipPath>
</defs>
<path clip-path="url(#clip760)" d="
M288.746 1034.47 L1452.76 1034.47 L1452.76 47.2441 L288.746 47.2441  Z
  " fill="#ffffff" fill-rule="evenodd" fill-opacity="1"/>
<defs>
  <clipPath id="clip762">
    <rect x="288" y="47" width="1165" height="988"/>
  </clipPath>
</defs>
<polyline clip-path="url(#clip760)" style="stroke:#000000; stroke-linecap:butt; stroke-linejoin:round; stroke-width:4; stroke-opacity:1; fill:none" points="
  288.746,1034.47 1452.76,1034.47 
  "/>
<polyline clip-path="url(#clip760)" style="stroke:#000000; stroke-linecap:butt; stroke-linejoin:round; stroke-width:4; stroke-opacity:1; fill:none" points="
  321.689,1034.47 321.689,1015.57 
  "/>
<polyline clip-path="url(#clip760)" style="stroke:#000000; stroke-linecap:butt; stroke-linejoin:round; stroke-width:4; stroke-opacity:1; fill:none" points="
  870.751,1034.47 870.751,1015.57 
  "/>
<polyline clip-path="url(#clip760)" style="stroke:#000000; stroke-linecap:butt; stroke-linejoin:round; stroke-width:4; stroke-opacity:1; fill:none" points="
  1419.81,1034.47 1419.81,1015.57 
  "/>
<g clip-path="url(#clip760)">
<text style="fill:#000000; fill-opacity:1; font-family:Arial,Helvetica Neue,Helvetica,sans-serif; font-size:107px; text-anchor:middle;" transform="rotate(0, 321.689, 1140.07)" x="321.689" y="1140.07">1</text>
</g>
<g clip-path="url(#clip760)">
<text style="fill:#000000; fill-opacity:1; font-family:Arial,Helvetica Neue,Helvetica,sans-serif; font-size:107px; text-anchor:middle;" transform="rotate(0, 870.751, 1140.07)" x="870.751" y="1140.07">2</text>
</g>
<g clip-path="url(#clip760)">
<text style="fill:#000000; fill-opacity:1; font-family:Arial,Helvetica Neue,Helvetica,sans-serif; font-size:107px; text-anchor:middle;" transform="rotate(0, 1419.81, 1140.07)" x="1419.81" y="1140.07">3</text>
</g>
<polyline clip-path="url(#clip760)" style="stroke:#000000; stroke-linecap:butt; stroke-linejoin:round; stroke-width:4; stroke-opacity:1; fill:none" points="
  288.746,1034.47 288.746,47.2441 
  "/>
<polyline clip-path="url(#clip760)" style="stroke:#000000; stroke-linecap:butt; stroke-linejoin:round; stroke-width:4; stroke-opacity:1; fill:none" points="
  288.746,866.744 307.643,866.744 
  "/>
<polyline clip-path="url(#clip760)" style="stroke:#000000; stroke-linecap:butt; stroke-linejoin:round; stroke-width:4; stroke-opacity:1; fill:none" points="
  288.746,662.361 307.643,662.361 
  "/>
<polyline clip-path="url(#clip760)" style="stroke:#000000; stroke-linecap:butt; stroke-linejoin:round; stroke-width:4; stroke-opacity:1; fill:none" points="
  288.746,457.978 307.643,457.978 
  "/>
<polyline clip-path="url(#clip760)" style="stroke:#000000; stroke-linecap:butt; stroke-linejoin:round; stroke-width:4; stroke-opacity:1; fill:none" points="
  288.746,253.595 307.643,253.595 
  "/>
<polyline clip-path="url(#clip760)" style="stroke:#000000; stroke-linecap:butt; stroke-linejoin:round; stroke-width:4; stroke-opacity:1; fill:none" points="
  288.746,49.212 307.643,49.212 
  "/>
<g clip-path="url(#clip760)">
<text style="fill:#000000; fill-opacity:1; font-family:Arial,Helvetica Neue,Helvetica,sans-serif; font-size:107px; text-anchor:end;" transform="rotate(0, 266.246, 905.744)" x="266.246" y="905.744">−0.4</text>
</g>
<g clip-path="url(#clip760)">
<text style="fill:#000000; fill-opacity:1; font-family:Arial,Helvetica Neue,Helvetica,sans-serif; font-size:107px; text-anchor:end;" transform="rotate(0, 266.246, 701.361)" x="266.246" y="701.361">−0.2</text>
</g>
<g clip-path="url(#clip760)">
<text style="fill:#000000; fill-opacity:1; font-family:Arial,Helvetica Neue,Helvetica,sans-serif; font-size:107px; text-anchor:end;" transform="rotate(0, 266.246, 496.978)" x="266.246" y="496.978">0.0</text>
</g>
<g clip-path="url(#clip760)">
<text style="fill:#000000; fill-opacity:1; font-family:Arial,Helvetica Neue,Helvetica,sans-serif; font-size:107px; text-anchor:end;" transform="rotate(0, 266.246, 292.595)" x="266.246" y="292.595">0.2</text>
</g>
<g clip-path="url(#clip760)">
<text style="fill:#000000; fill-opacity:1; font-family:Arial,Helvetica Neue,Helvetica,sans-serif; font-size:107px; text-anchor:end;" transform="rotate(0, 266.246, 88.212)" x="266.246" y="88.212">0.4</text>
</g>
<polyline clip-path="url(#clip762)" style="stroke:#808080; stroke-linecap:butt; stroke-linejoin:round; stroke-width:8; stroke-opacity:1; fill:none" points="
  321.689,457.978 1419.81,457.978 
  "/>
<path clip-path="url(#clip762)" d="
M321.689 793.852 L870.751 250.736 L1419.81 536.587 L1419.81 760.511 L870.751 366.079 L321.689 912.716  Z
  " fill="#0000ff" fill-rule="evenodd" fill-opacity="0.3"/>
<polyline clip-path="url(#clip762)" style="stroke:#0000ff; stroke-linecap:butt; stroke-linejoin:round; stroke-width:8; stroke-opacity:1; fill:none" points="
  321.689,793.852 870.751,250.736 1419.81,536.587 
  "/>
<path clip-path="url(#clip762)" d="M321.689 757.852 L285.689 793.852 L321.689 829.852 L357.689 793.852 L321.689 757.852 Z" fill="#0000ff" fill-rule="evenodd" fill-opacity="1" stroke="none"/>
<path clip-path="url(#clip762)" d="M870.751 214.736 L834.751 250.736 L870.751 286.736 L906.751 250.736 L870.751 214.736 Z" fill="#0000ff" fill-rule="evenodd" fill-opacity="1" stroke="none"/>
<path clip-path="url(#clip762)" d="M1419.81 500.587 L1383.81 536.587 L1419.81 572.587 L1455.81 536.587 L1419.81 500.587 Z" fill="#0000ff" fill-rule="evenodd" fill-opacity="1" stroke="none"/>
<path clip-path="url(#clip762)" d="
M321.689 793.852 L870.751 250.736 L1419.81 536.587 L1419.81 406.419 L870.751 138.655 L321.689 651.211  Z
  " fill="#0000ff" fill-rule="evenodd" fill-opacity="0.3"/>
<polyline clip-path="url(#clip762)" style="stroke:#0000ff; stroke-linecap:butt; stroke-linejoin:round; stroke-width:8; stroke-opacity:1; fill:none" points="
  321.689,793.852 870.751,250.736 1419.81,536.587 
  "/>
<path clip-path="url(#clip762)" d="M321.689 757.852 L285.689 793.852 L321.689 829.852 L357.689 793.852 L321.689 757.852 Z" fill="#0000ff" fill-rule="evenodd" fill-opacity="1" stroke="none"/>
<path clip-path="url(#clip762)" d="M870.751 214.736 L834.751 250.736 L870.751 286.736 L906.751 250.736 L870.751 214.736 Z" fill="#0000ff" fill-rule="evenodd" fill-opacity="1" stroke="none"/>
<path clip-path="url(#clip762)" d="M1419.81 500.587 L1383.81 536.587 L1419.81 572.587 L1455.81 536.587 L1419.81 500.587 Z" fill="#0000ff" fill-rule="evenodd" fill-opacity="1" stroke="none"/>
<path clip-path="url(#clip762)" d="
M321.689 475.496 L870.751 919.299 L1419.81 144.591 L1419.81 236.331 L870.751 1006.53 L321.689 603.578  Z
  " fill="#008000" fill-rule="evenodd" fill-opacity="0.3"/>
<polyline clip-path="url(#clip762)" style="stroke:#008000; stroke-linecap:butt; stroke-linejoin:round; stroke-width:8; stroke-opacity:1; fill:none" points="
  321.689,475.496 870.751,919.299 1419.81,144.591 
  "/>
<circle clip-path="url(#clip762)" cx="321.689" cy="475.496" r="32" fill="#008000" fill-rule="evenodd" fill-opacity="1" stroke="none"/>
<circle clip-path="url(#clip762)" cx="870.751" cy="919.299" r="32" fill="#008000" fill-rule="evenodd" fill-opacity="1" stroke="none"/>
<circle clip-path="url(#clip762)" cx="1419.81" cy="144.591" r="32" fill="#008000" fill-rule="evenodd" fill-opacity="1" stroke="none"/>
<path clip-path="url(#clip762)" d="
M321.689 475.496 L870.751 919.299 L1419.81 144.591 L1419.81 75.1844 L870.751 808.976 L321.689 404.98  Z
  " fill="#008000" fill-rule="evenodd" fill-opacity="0.3"/>
<polyline clip-path="url(#clip762)" style="stroke:#008000; stroke-linecap:butt; stroke-linejoin:round; stroke-width:8; stroke-opacity:1; fill:none" points="
  321.689,475.496 870.751,919.299 1419.81,144.591 
  "/>
<circle clip-path="url(#clip762)" cx="321.689" cy="475.496" r="32" fill="#008000" fill-rule="evenodd" fill-opacity="1" stroke="none"/>
<circle clip-path="url(#clip762)" cx="870.751" cy="919.299" r="32" fill="#008000" fill-rule="evenodd" fill-opacity="1" stroke="none"/>
<circle clip-path="url(#clip762)" cx="1419.81" cy="144.591" r="32" fill="#008000" fill-rule="evenodd" fill-opacity="1" stroke="none"/>
</svg>
