<?xml version="1.0" encoding="utf-8"?>
<svg xmlns="http://www.w3.org/2000/svg" xmlns:xlink="http://www.w3.org/1999/xlink" width="350" height="300" viewBox="0 0 1400 1200">
<defs>
  <clipPath id="clip180">
    <rect x="0" y="0" width="1400" height="1200"/>
  </clipPath>
</defs>
<path clip-path="url(#clip180)" d="
M0 1200 L1400 1200 L1400 0 L0 0  Z
  " fill="#ffffff" fill-rule="evenodd" fill-opacity="1"/>
<defs>
  <clipPath id="clip181">
    <rect x="280" y="0" width="981" height="981"/>
  </clipPath>
</defs>
<path clip-path="url(#clip180)" d="
M349.207 947.582 L1352.76 947.582 L1352.76 47.2441 L349.207 47.2441  Z
  " fill="#ffffff" fill-rule="evenodd" fill-opacity="1"/>
<defs>
  <clipPath id="clip182">
    <rect x="349" y="47" width="1005" height="901"/>
  </clipPath>
</defs>
<polyline clip-path="url(#clip180)" style="stroke:#000000; stroke-linecap:butt; stroke-linejoin:round; stroke-width:4; stroke-opacity:1; fill:none" points="
  349.207,947.582 1352.76,947.582 
  "/>
<polyline clip-path="url(#clip180)" style="stroke:#000000; stroke-linecap:butt; stroke-linejoin:round; stroke-width:4; stroke-opacity:1; fill:none" points="
  377.609,947.582 377.609,928.685 
  "/>
<polyline clip-path="url(#clip180)" style="stroke:#000000; stroke-linecap:butt; stroke-linejoin:round; stroke-width:4; stroke-opacity:1; fill:none" points="
  614.295,947.582 614.295,928.685 
  "/>
<polyline clip-path="url(#clip180)" style="stroke:#000000; stroke-linecap:butt; stroke-linejoin:round; stroke-width:4; stroke-opacity:1; fill:none" points="
  850.981,947.582 850.981,928.685 
  "/>
<polyline clip-path="url(#clip180)" style="stroke:#000000; stroke-linecap:butt; stroke-linejoin:round; stroke-width:4; stroke-opacity:1; fill:none" points="
  1087.67,947.582 1087.67,928.685 
  "/>
<polyline clip-path="url(#clip180)" style="stroke:#000000; stroke-linecap:butt; stroke-linejoin:round; stroke-width:4; stroke-opacity:1; fill:none" points="
  1324.35,947.582 1324.35,928.685 
  "/>
<g clip-path="url(#clip180)">
<text style="fill:#000000; fill-opacity:1; font-family:Arial,Helvetica Neue,Helvetica,sans-serif; font-size:89px; text-anchor:middle;" transform="rotate(0, 377.609, 1036.78)" x="377.609" y="1036.78">1</text>
</g>
<g clip-path="url(#clip180)">
<text style="fill:#000000; fill-opacity:1; font-family:Arial,Helvetica Neue,Helvetica,sans-serif; font-size:89px; text-anchor:middle;" transform="rotate(0, 614.295, 1036.78)" x="614.295" y="1036.78">2</text>
</g>
<g clip-path="url(#clip180)">
<text style="fill:#000000; fill-opacity:1; font-family:Arial,Helvetica Neue,Helvetica,sans-serif; font-size:89px; text-anchor:middle;" transform="rotate(0, 850.981, 1036.78)" x="850.981" y="1036.78">3</text>
</g>
<g clip-path="url(#clip180)">
<text style="fill:#000000; fill-opacity:1; font-family:Arial,Helvetica Neue,Helvetica,sans-serif; font-size:89px; text-anchor:middle;" transform="rotate(0, 1087.67, 1036.78)" x="1087.67" y="1036.78">4</text>
</g>
<g clip-path="url(#clip180)">
<text style="fill:#000000; fill-opacity:1; font-family:Arial,Helvetica Neue,Helvetica,sans-serif; font-size:89px; text-anchor:middle;" transform="rotate(0, 1324.35, 1036.78)" x="1324.35" y="1036.78">5</text>
</g>
<g clip-path="url(#clip180)">
<text style="fill:#000000; fill-opacity:1; font-family:Arial,Helvetica Neue,Helvetica,sans-serif; font-size:89px; text-anchor:middle;" transform="rotate(0, 850.981, 1144.21)" x="850.981" y="1144.21">Affinity type t</text>
</g>
<polyline clip-path="url(#clip180)" style="stroke:#000000; stroke-linecap:butt; stroke-linejoin:round; stroke-width:4; stroke-opacity:1; fill:none" points="
  349.207,947.582 349.207,47.2441 
  "/>
<polyline clip-path="url(#clip180)" style="stroke:#000000; stroke-linecap:butt; stroke-linejoin:round; stroke-width:4; stroke-opacity:1; fill:none" points="
  349.207,841.177 368.104,841.177 
  "/>
<polyline clip-path="url(#clip180)" style="stroke:#000000; stroke-linecap:butt; stroke-linejoin:round; stroke-width:4; stroke-opacity:1; fill:none" points="
  349.207,621.669 368.104,621.669 
  "/>
<polyline clip-path="url(#clip180)" style="stroke:#000000; stroke-linecap:butt; stroke-linejoin:round; stroke-width:4; stroke-opacity:1; fill:none" points="
  349.207,402.16 368.104,402.16 
  "/>
<polyline clip-path="url(#clip180)" style="stroke:#000000; stroke-linecap:butt; stroke-linejoin:round; stroke-width:4; stroke-opacity:1; fill:none" points="
  349.207,182.651 368.104,182.651 
  "/>
<g clip-path="url(#clip180)">
<text style="fill:#000000; fill-opacity:1; font-family:Arial,Helvetica Neue,Helvetica,sans-serif; font-size:89px; text-anchor:end;" transform="rotate(0, 328.207, 873.677)" x="328.207" y="873.677">−0.4</text>
</g>
<g clip-path="url(#clip180)">
<text style="fill:#000000; fill-opacity:1; font-family:Arial,Helvetica Neue,Helvetica,sans-serif; font-size:89px; text-anchor:end;" transform="rotate(0, 328.207, 654.169)" x="328.207" y="654.169">−0.2</text>
</g>
<g clip-path="url(#clip180)">
<text style="fill:#000000; fill-opacity:1; font-family:Arial,Helvetica Neue,Helvetica,sans-serif; font-size:89px; text-anchor:end;" transform="rotate(0, 328.207, 434.66)" x="328.207" y="434.66">0.0</text>
</g>
<g clip-path="url(#clip180)">
<text style="fill:#000000; fill-opacity:1; font-family:Arial,Helvetica Neue,Helvetica,sans-serif; font-size:89px; text-anchor:end;" transform="rotate(0, 328.207, 215.151)" x="328.207" y="215.151">0.2</text>
</g>
<g clip-path="url(#clip180)">
<text style="fill:#000000; fill-opacity:1; font-family:Arial,Helvetica Neue,Helvetica,sans-serif; font-size:89px; text-anchor:middle;" transform="rotate(-90, 115.267, 497.413)" x="115.267" y="497.413">Normalized Bias</text>
</g>
<polyline clip-path="url(#clip182)" style="stroke:#808080; stroke-linecap:butt; stroke-linejoin:round; stroke-width:8; stroke-opacity:1; fill:none" points="
  377.609,402.16 1324.35,402.16 
  "/>
<polyline clip-path="url(#clip182)" style="stroke:#0000ff; stroke-linecap:butt; stroke-linejoin:round; stroke-width:10; stroke-opacity:1; fill:none" points="
  377.609,546.801 614.295,922.101 850.981,868.858 1087.67,429.114 1324.35,72.7254 
  "/>
<circle clip-path="url(#clip182)" cx="377.609" cy="546.801" r="32" fill="#0000ff" fill-rule="evenodd" fill-opacity="1" stroke="none"/>
<circle clip-path="url(#clip182)" cx="614.295" cy="922.101" r="32" fill="#0000ff" fill-rule="evenodd" fill-opacity="1" stroke="none"/>
<circle clip-path="url(#clip182)" cx="850.981" cy="868.858" r="32" fill="#0000ff" fill-rule="evenodd" fill-opacity="1" stroke="none"/>
<circle clip-path="url(#clip182)" cx="1087.67" cy="429.114" r="32" fill="#0000ff" fill-rule="evenodd" fill-opacity="1" stroke="none"/>
<circle clip-path="url(#clip182)" cx="1324.35" cy="72.7254" r="32" fill="#0000ff" fill-rule="evenodd" fill-opacity="1" stroke="none"/>
<polyline clip-path="url(#clip182)" style="stroke:#ff0000; stroke-linecap:butt; stroke-linejoin:round; stroke-width:10; stroke-opacity:1; fill:none" points="
  377.609,389.554 614.295,765.205 850.981,827.195 1087.67,398.764 1324.35,144.248 
  "/>
<path clip-path="url(#clip182)" d="M377.609 353.554 L341.609 389.554 L377.609 425.554 L413.609 389.554 L377.609 353.554 Z" fill="#ff0000" fill-rule="evenodd" fill-opacity="1" stroke="none"/>
<path clip-path="url(#clip182)" d="M614.295 729.205 L578.295 765.205 L614.295 801.205 L650.295 765.205 L614.295 729.205 Z" fill="#ff0000" fill-rule="evenodd" fill-opacity="1" stroke="none"/>
<path clip-path="url(#clip182)" d="M850.981 791.195 L814.981 827.195 L850.981 863.195 L886.981 827.195 L850.981 791.195 Z" fill="#ff0000" fill-rule="evenodd" fill-opacity="1" stroke="none"/>
<path clip-path="url(#clip182)" d="M1087.67 362.764 L1051.67 398.764 L1087.67 434.764 L1123.67 398.764 L1087.67 362.764 Z" fill="#ff0000" fill-rule="evenodd" fill-opacity="1" stroke="none"/>
<path clip-path="url(#clip182)" d="M1324.35 108.248 L1288.35 144.248 L1324.35 180.248 L1360.35 144.248 L1324.35 108.248 Z" fill="#ff0000" fill-rule="evenodd" fill-opacity="1" stroke="none"/>
</svg>
