<?xml version="1.0" encoding="utf-8"?>
<svg xmlns="http://www.w3.org/2000/svg" xmlns:xlink="http://www.w3.org/1999/xlink" width="400" height="300" viewBox="0 0 1600 1200">
<defs>
  <clipPath id="clip460">
    <rect x="0" y="0" width="1600" height="1200"/>
  </clipPath>
</defs>
<path clip-path="url(#clip460)" d="
M0 1200 L1600 1200 L1600 0 L0 0  Z
  " fill="#ffffff" fill-rule="evenodd" fill-opacity="1"/>
<defs>
  <clipPath id="clip461">
    <rect x="320" y="0" width="1121" height="1121"/>
  </clipPath>
</defs>
<path clip-path="url(#clip460)" d="
M341.102 967.792 L1552.76 967.792 L1552.76 47.2441 L341.102 47.2441  Z
  " fill="#ffffff" fill-rule="evenodd" fill-opacity="1"/>
<defs>
  <clipPath id="clip462">
    <rect x="341" y="47" width="1213" height="922"/>
  </clipPath>
</defs>
<polyline clip-path="url(#clip460)" style="stroke:#000000; stroke-linecap:butt; stroke-linejoin:round; stroke-width:4; stroke-opacity:1; fill:none" points="
  341.102,967.792 1552.76,967.792 
  "/>
<polyline clip-path="url(#clip460)" style="stroke:#000000; stroke-linecap:butt; stroke-linejoin:round; stroke-width:4; stroke-opacity:1; fill:none" points="
  502.402,967.792 502.402,948.894 
  "/>
<polyline clip-path="url(#clip460)" style="stroke:#000000; stroke-linecap:butt; stroke-linejoin:round; stroke-width:4; stroke-opacity:1; fill:none" points="
  756.417,967.792 756.417,948.894 
  "/>
<polyline clip-path="url(#clip460)" style="stroke:#000000; stroke-linecap:butt; stroke-linejoin:round; stroke-width:4; stroke-opacity:1; fill:none" points="
  1010.43,967.792 1010.43,948.894 
  "/>
<polyline clip-path="url(#clip460)" style="stroke:#000000; stroke-linecap:butt; stroke-linejoin:round; stroke-width:4; stroke-opacity:1; fill:none" points="
  1264.45,967.792 1264.45,948.894 
  "/>
<polyline clip-path="url(#clip460)" style="stroke:#000000; stroke-linecap:butt; stroke-linejoin:round; stroke-width:4; stroke-opacity:1; fill:none" points="
  1518.46,967.792 1518.46,948.894 
  "/>
<g clip-path="url(#clip460)">
<text style="fill:#000000; fill-opacity:1; font-family:Arial,Helvetica Neue,Helvetica,sans-serif; font-size:89px; text-anchor:middle;" transform="rotate(0, 502.402, 1058.59)" x="502.402" y="1058.59">2</text>
</g>
<g clip-path="url(#clip460)">
<text style="fill:#000000; fill-opacity:1; font-family:Arial,Helvetica Neue,Helvetica,sans-serif; font-size:89px; text-anchor:middle;" transform="rotate(0, 756.417, 1058.59)" x="756.417" y="1058.59">4</text>
</g>
<g clip-path="url(#clip460)">
<text style="fill:#000000; fill-opacity:1; font-family:Arial,Helvetica Neue,Helvetica,sans-serif; font-size:89px; text-anchor:middle;" transform="rotate(0, 1010.43, 1058.59)" x="1010.43" y="1058.59">6</text>
</g>
<g clip-path="url(#clip460)">
<text style="fill:#000000; fill-opacity:1; font-family:Arial,Helvetica Neue,Helvetica,sans-serif; font-size:89px; text-anchor:middle;" transform="rotate(0, 1264.45, 1058.59)" x="1264.45" y="1058.59">8</text>
</g>
<g clip-path="url(#clip460)">
<text style="fill:#000000; fill-opacity:1; font-family:Arial,Helvetica Neue,Helvetica,sans-serif; font-size:89px; text-anchor:middle;" transform="rotate(0, 1518.46, 1058.59)" x="1518.46" y="1058.59">10</text>
</g>
<g clip-path="url(#clip460)">
<text style="fill:#000000; fill-opacity:1; font-family:Arial,Helvetica Neue,Helvetica,sans-serif; font-size:89px; text-anchor:middle;" transform="rotate(0, 946.929, 1167.42)" x="946.929" y="1167.42">Affinity type t</text>
</g>
<polyline clip-path="url(#clip460)" style="stroke:#000000; stroke-linecap:butt; stroke-linejoin:round; stroke-width:4; stroke-opacity:1; fill:none" points="
  341.102,967.792 341.102,47.2441 
  "/>
<polyline clip-path="url(#clip460)" style="stroke:#000000; stroke-linecap:butt; stroke-linejoin:round; stroke-width:4; stroke-opacity:1; fill:none" points="
  341.102,858.543 360,858.543 
  "/>
<polyline clip-path="url(#clip460)" style="stroke:#000000; stroke-linecap:butt; stroke-linejoin:round; stroke-width:4; stroke-opacity:1; fill:none" points="
  341.102,668.499 360,668.499 
  "/>
<polyline clip-path="url(#clip460)" style="stroke:#000000; stroke-linecap:butt; stroke-linejoin:round; stroke-width:4; stroke-opacity:1; fill:none" points="
  341.102,478.454 360,478.454 
  "/>
<polyline clip-path="url(#clip460)" style="stroke:#000000; stroke-linecap:butt; stroke-linejoin:round; stroke-width:4; stroke-opacity:1; fill:none" points="
  341.102,288.409 360,288.409 
  "/>
<polyline clip-path="url(#clip460)" style="stroke:#000000; stroke-linecap:butt; stroke-linejoin:round; stroke-width:4; stroke-opacity:1; fill:none" points="
  341.102,98.3641 360,98.3641 
  "/>
<g clip-path="url(#clip460)">
<text style="fill:#000000; fill-opacity:1; font-family:Arial,Helvetica Neue,Helvetica,sans-serif; font-size:89px; text-anchor:end;" transform="rotate(0, 317.102, 891.043)" x="317.102" y="891.043">−0.6</text>
</g>
<g clip-path="url(#clip460)">
<text style="fill:#000000; fill-opacity:1; font-family:Arial,Helvetica Neue,Helvetica,sans-serif; font-size:89px; text-anchor:end;" transform="rotate(0, 317.102, 700.999)" x="317.102" y="700.999">−0.4</text>
</g>
<g clip-path="url(#clip460)">
<text style="fill:#000000; fill-opacity:1; font-family:Arial,Helvetica Neue,Helvetica,sans-serif; font-size:89px; text-anchor:end;" transform="rotate(0, 317.102, 510.954)" x="317.102" y="510.954">−0.2</text>
</g>
<g clip-path="url(#clip460)">
<text style="fill:#000000; fill-opacity:1; font-family:Arial,Helvetica Neue,Helvetica,sans-serif; font-size:89px; text-anchor:end;" transform="rotate(0, 317.102, 320.909)" x="317.102" y="320.909">0.0</text>
</g>
<g clip-path="url(#clip460)">
<text style="fill:#000000; fill-opacity:1; font-family:Arial,Helvetica Neue,Helvetica,sans-serif; font-size:89px; text-anchor:end;" transform="rotate(0, 317.102, 130.864)" x="317.102" y="130.864">0.2</text>
</g>
<g clip-path="url(#clip460)">
<text style="fill:#000000; fill-opacity:1; font-family:Arial,Helvetica Neue,Helvetica,sans-serif; font-size:89px; text-anchor:middle;" transform="rotate(-90, 101.162, 507.518)" x="101.162" y="507.518">Normalized Bias</text>
</g>
<polyline clip-path="url(#clip462)" style="stroke:#808080; stroke-linecap:butt; stroke-linejoin:round; stroke-width:8; stroke-opacity:1; fill:none" points="
  375.394,288.409 1518.46,288.409 
  "/>
<path clip-path="url(#clip462)" d="
M375.394 280.16 L502.402 280.106 L629.41 631.285 L756.417 879.972 L883.425 896.547 L1010.43 797.042 L1137.44 486.202 L1264.45 237.664 L1391.46 135.829 L1518.46 92.6453 
  L1518.46 112.011 L1391.46 153.503 L1264.45 252.398 L1137.44 557.579 L1010.43 842.1 L883.425 941.739 L756.417 930.474 L629.41 725.569 L502.402 283.512 L375.394 281.435 
   Z
  " fill="#0000ff" fill-rule="evenodd" fill-opacity="0.3"/>
<polyline clip-path="url(#clip462)" style="stroke:#0000ff; stroke-linecap:butt; stroke-linejoin:round; stroke-width:10; stroke-opacity:1; fill:none" points="
  375.394,280.16 502.402,280.106 629.41,631.285 756.417,879.972 883.425,896.547 1010.43,797.042 1137.44,486.202 1264.45,237.664 1391.46,135.829 1518.46,92.6453 
  
  "/>
<circle clip-path="url(#clip462)" cx="375.394" cy="280.16" r="28" fill="#0000ff" fill-rule="evenodd" fill-opacity="1" stroke="none"/>
<circle clip-path="url(#clip462)" cx="502.402" cy="280.106" r="28" fill="#0000ff" fill-rule="evenodd" fill-opacity="1" stroke="none"/>
<circle clip-path="url(#clip462)" cx="629.41" cy="631.285" r="28" fill="#0000ff" fill-rule="evenodd" fill-opacity="1" stroke="none"/>
<circle clip-path="url(#clip462)" cx="756.417" cy="879.972" r="28" fill="#0000ff" fill-rule="evenodd" fill-opacity="1" stroke="none"/>
<circle clip-path="url(#clip462)" cx="883.425" cy="896.547" r="28" fill="#0000ff" fill-rule="evenodd" fill-opacity="1" stroke="none"/>
<circle clip-path="url(#clip462)" cx="1010.43" cy="797.042" r="28" fill="#0000ff" fill-rule="evenodd" fill-opacity="1" stroke="none"/>
<circle clip-path="url(#clip462)" cx="1137.44" cy="486.202" r="28" fill="#0000ff" fill-rule="evenodd" fill-opacity="1" stroke="none"/>
<circle clip-path="url(#clip462)" cx="1264.45" cy="237.664" r="28" fill="#0000ff" fill-rule="evenodd" fill-opacity="1" stroke="none"/>
<circle clip-path="url(#clip462)" cx="1391.46" cy="135.829" r="28" fill="#0000ff" fill-rule="evenodd" fill-opacity="1" stroke="none"/>
<circle clip-path="url(#clip462)" cx="1518.46" cy="92.6453" r="28" fill="#0000ff" fill-rule="evenodd" fill-opacity="1" stroke="none"/>
<path clip-path="url(#clip462)" d="
M375.394 280.16 L502.402 280.106 L629.41 631.285 L756.417 879.972 L883.425 896.547 L1010.43 797.042 L1137.44 486.202 L1264.45 237.664 L1391.46 135.829 L1518.46 92.6453 
  L1518.46 73.2973 L1391.46 117.379 L1264.45 223.726 L1137.44 413.94 L1010.43 744.264 L883.425 858.124 L756.417 833.93 L629.41 537.931 L502.402 276.957 L375.394 278.593 
   Z
  " fill="#0000ff" fill-rule="evenodd" fill-opacity="0.3"/>
<polyline clip-path="url(#clip462)" style="stroke:#0000ff; stroke-linecap:butt; stroke-linejoin:round; stroke-width:10; stroke-opacity:1; fill:none" points="
  375.394,280.16 502.402,280.106 629.41,631.285 756.417,879.972 883.425,896.547 1010.43,797.042 1137.44,486.202 1264.45,237.664 1391.46,135.829 1518.46,92.6453 
  
  "/>
<circle clip-path="url(#clip462)" cx="375.394" cy="280.16" r="28" fill="#0000ff" fill-rule="evenodd" fill-opacity="1" stroke="none"/>
<circle clip-path="url(#clip462)" cx="502.402" cy="280.106" r="28" fill="#0000ff" fill-rule="evenodd" fill-opacity="1" stroke="none"/>
<circle clip-path="url(#clip462)" cx="629.41" cy="631.285" r="28" fill="#0000ff" fill-rule="evenodd" fill-opacity="1" stroke="none"/>
<circle clip-path="url(#clip462)" cx="756.417" cy="879.972" r="28" fill="#0000ff" fill-rule="evenodd" fill-opacity="1" stroke="none"/>
<circle clip-path="url(#clip462)" cx="883.425" cy="896.547" r="28" fill="#0000ff" fill-rule="evenodd" fill-opacity="1" stroke="none"/>
<circle clip-path="url(#clip462)" cx="1010.43" cy="797.042" r="28" fill="#0000ff" fill-rule="evenodd" fill-opacity="1" stroke="none"/>
<circle clip-path="url(#clip462)" cx="1137.44" cy="486.202" r="28" fill="#0000ff" fill-rule="evenodd" fill-opacity="1" stroke="none"/>
<circle clip-path="url(#clip462)" cx="1264.45" cy="237.664" r="28" fill="#0000ff" fill-rule="evenodd" fill-opacity="1" stroke="none"/>
<circle clip-path="url(#clip462)" cx="1391.46" cy="135.829" r="28" fill="#0000ff" fill-rule="evenodd" fill-opacity="1" stroke="none"/>
<circle clip-path="url(#clip462)" cx="1518.46" cy="92.6453" r="28" fill="#0000ff" fill-rule="evenodd" fill-opacity="1" stroke="none"/>
<path clip-path="url(#clip462)" d="
M375.394 264.668 L502.402 265.975 L629.41 306.542 L756.417 691.602 L883.425 814.866 L1010.43 794.334 L1137.44 486.266 L1264.45 227.855 L1391.46 181.556 L1518.46 139.722 
  L1518.46 158.61 L1391.46 195.665 L1264.45 246.09 L1137.44 596.509 L1010.43 855.16 L883.425 868.667 L756.417 747.146 L629.41 385.457 L502.402 271.341 L375.394 267.75 
   Z
  " fill="#ff0000" fill-rule="evenodd" fill-opacity="0.3"/>
<polyline clip-path="url(#clip462)" style="stroke:#ff0000; stroke-linecap:butt; stroke-linejoin:round; stroke-width:10; stroke-opacity:1; fill:none" points="
  375.394,264.668 502.402,265.975 629.41,306.542 756.417,691.602 883.425,814.866 1010.43,794.334 1137.44,486.266 1264.45,227.855 1391.46,181.556 1518.46,139.722 
  
  "/>
<path clip-path="url(#clip462)" d="M375.394 232.668 L343.394 264.668 L375.394 296.668 L407.394 264.668 L375.394 232.668 Z" fill="#ff0000" fill-rule="evenodd" fill-opacity="1" stroke="none"/>
<path clip-path="url(#clip462)" d="M502.402 233.975 L470.402 265.975 L502.402 297.975 L534.402 265.975 L502.402 233.975 Z" fill="#ff0000" fill-rule="evenodd" fill-opacity="1" stroke="none"/>
<path clip-path="url(#clip462)" d="M629.41 274.542 L597.41 306.542 L629.41 338.542 L661.41 306.542 L629.41 274.542 Z" fill="#ff0000" fill-rule="evenodd" fill-opacity="1" stroke="none"/>
<path clip-path="url(#clip462)" d="M756.417 659.602 L724.417 691.602 L756.417 723.602 L788.417 691.602 L756.417 659.602 Z" fill="#ff0000" fill-rule="evenodd" fill-opacity="1" stroke="none"/>
<path clip-path="url(#clip462)" d="M883.425 782.866 L851.425 814.866 L883.425 846.866 L915.425 814.866 L883.425 782.866 Z" fill="#ff0000" fill-rule="evenodd" fill-opacity="1" stroke="none"/>
<path clip-path="url(#clip462)" d="M1010.43 762.334 L978.433 794.334 L1010.43 826.334 L1042.43 794.334 L1010.43 762.334 Z" fill="#ff0000" fill-rule="evenodd" fill-opacity="1" stroke="none"/>
<path clip-path="url(#clip462)" d="M1137.44 454.266 L1105.44 486.266 L1137.44 518.266 L1169.44 486.266 L1137.44 454.266 Z" fill="#ff0000" fill-rule="evenodd" fill-opacity="1" stroke="none"/>
<path clip-path="url(#clip462)" d="M1264.45 195.855 L1232.45 227.855 L1264.45 259.855 L1296.45 227.855 L1264.45 195.855 Z" fill="#ff0000" fill-rule="evenodd" fill-opacity="1" stroke="none"/>
<path clip-path="url(#clip462)" d="M1391.46 149.556 L1359.46 181.556 L1391.46 213.556 L1423.46 181.556 L1391.46 149.556 Z" fill="#ff0000" fill-rule="evenodd" fill-opacity="1" stroke="none"/>
<path clip-path="url(#clip462)" d="M1518.46 107.722 L1486.46 139.722 L1518.46 171.722 L1550.46 139.722 L1518.46 107.722 Z" fill="#ff0000" fill-rule="evenodd" fill-opacity="1" stroke="none"/>
<path clip-path="url(#clip462)" d="
M375.394 264.668 L502.402 265.975 L629.41 306.542 L756.417 691.602 L883.425 814.866 L1010.43 794.334 L1137.44 486.266 L1264.45 227.855 L1391.46 181.556 L1518.46 139.722 
  L1518.46 120.593 L1391.46 163.967 L1264.45 211.291 L1137.44 378.088 L1010.43 739.381 L883.425 769.791 L756.417 626.773 L629.41 249.272 L502.402 260.859 L375.394 261.46 
   Z
  " fill="#ff0000" fill-rule="evenodd" fill-opacity="0.3"/>
<polyline clip-path="url(#clip462)" style="stroke:#ff0000; stroke-linecap:butt; stroke-linejoin:round; stroke-width:10; stroke-opacity:1; fill:none" points="
  375.394,264.668 502.402,265.975 629.41,306.542 756.417,691.602 883.425,814.866 1010.43,794.334 1137.44,486.266 1264.45,227.855 1391.46,181.556 1518.46,139.722 
  
  "/>
<path clip-path="url(#clip462)" d="M375.394 232.668 L343.394 264.668 L375.394 296.668 L407.394 264.668 L375.394 232.668 Z" fill="#ff0000" fill-rule="evenodd" fill-opacity="1" stroke="none"/>
<path clip-path="url(#clip462)" d="M502.402 233.975 L470.402 265.975 L502.402 297.975 L534.402 265.975 L502.402 233.975 Z" fill="#ff0000" fill-rule="evenodd" fill-opacity="1" stroke="none"/>
<path clip-path="url(#clip462)" d="M629.41 274.542 L597.41 306.542 L629.41 338.542 L661.41 306.542 L629.41 274.542 Z" fill="#ff0000" fill-rule="evenodd" fill-opacity="1" stroke="none"/>
<path clip-path="url(#clip462)" d="M756.417 659.602 L724.417 691.602 L756.417 723.602 L788.417 691.602 L756.417 659.602 Z" fill="#ff0000" fill-rule="evenodd" fill-opacity="1" stroke="none"/>
<path clip-path="url(#clip462)" d="M883.425 782.866 L851.425 814.866 L883.425 846.866 L915.425 814.866 L883.425 782.866 Z" fill="#ff0000" fill-rule="evenodd" fill-opacity="1" stroke="none"/>
<path clip-path="url(#clip462)" d="M1010.43 762.334 L978.433 794.334 L1010.43 826.334 L1042.43 794.334 L1010.43 762.334 Z" fill="#ff0000" fill-rule="evenodd" fill-opacity="1" stroke="none"/>
<path clip-path="url(#clip462)" d="M1137.44 454.266 L1105.44 486.266 L1137.44 518.266 L1169.44 486.266 L1137.44 454.266 Z" fill="#ff0000" fill-rule="evenodd" fill-opacity="1" stroke="none"/>
<path clip-path="url(#clip462)" d="M1264.45 195.855 L1232.45 227.855 L1264.45 259.855 L1296.45 227.855 L1264.45 195.855 Z" fill="#ff0000" fill-rule="evenodd" fill-opacity="1" stroke="none"/>
<path clip-path="url(#clip462)" d="M1391.46 149.556 L1359.46 181.556 L1391.46 213.556 L1423.46 181.556 L1391.46 149.556 Z" fill="#ff0000" fill-rule="evenodd" fill-opacity="1" stroke="none"/>
<path clip-path="url(#clip462)" d="M1518.46 107.722 L1486.46 139.722 L1518.46 171.722 L1550.46 139.722 L1518.46 107.722 Z" fill="#ff0000" fill-rule="evenodd" fill-opacity="1" stroke="none"/>
</svg>
