<?xml version="1.0" encoding="utf-8"?>
<svg xmlns="http://www.w3.org/2000/svg" xmlns:xlink="http://www.w3.org/1999/xlink" width="350" height="300" viewBox="0 0 1400 1200">
<defs>
  <clipPath id="clip230">
    <rect x="0" y="0" width="1400" height="1200"/>
  </clipPath>
</defs>
<path clip-path="url(#clip230)" d="
M0 1200 L1400 1200 L1400 0 L0 0  Z
  " fill="#ffffff" fill-rule="evenodd" fill-opacity="1"/>
<defs>
  <clipPath id="clip231">
    <rect x="280" y="0" width="981" height="981"/>
  </clipPath>
</defs>
<path clip-path="url(#clip230)" d="
M349.207 947.582 L1352.76 947.582 L1352.76 47.2441 L349.207 47.2441  Z
  " fill="#ffffff" fill-rule="evenodd" fill-opacity="1"/>
<defs>
  <clipPath id="clip232">
    <rect x="349" y="47" width="1005" height="901"/>
  </clipPath>
</defs>
<polyline clip-path="url(#clip230)" style="stroke:#000000; stroke-linecap:butt; stroke-linejoin:round; stroke-width:4; stroke-opacity:1; fill:none" points="
  349.207,947.582 1352.76,947.582 
  "/>
<polyline clip-path="url(#clip230)" style="stroke:#000000; stroke-linecap:butt; stroke-linejoin:round; stroke-width:4; stroke-opacity:1; fill:none" points="
  377.609,947.582 377.609,928.685 
  "/>
<polyline clip-path="url(#clip230)" style="stroke:#000000; stroke-linecap:butt; stroke-linejoin:round; stroke-width:4; stroke-opacity:1; fill:none" points="
  693.191,947.582 693.191,928.685 
  "/>
<polyline clip-path="url(#clip230)" style="stroke:#000000; stroke-linecap:butt; stroke-linejoin:round; stroke-width:4; stroke-opacity:1; fill:none" points="
  1008.77,947.582 1008.77,928.685 
  "/>
<polyline clip-path="url(#clip230)" style="stroke:#000000; stroke-linecap:butt; stroke-linejoin:round; stroke-width:4; stroke-opacity:1; fill:none" points="
  1324.35,947.582 1324.35,928.685 
  "/>
<g clip-path="url(#clip230)">
<text style="fill:#000000; fill-opacity:1; font-family:Arial,Helvetica Neue,Helvetica,sans-serif; font-size:89px; text-anchor:middle;" transform="rotate(0, 377.609, 1036.78)" x="377.609" y="1036.78">1</text>
</g>
<g clip-path="url(#clip230)">
<text style="fill:#000000; fill-opacity:1; font-family:Arial,Helvetica Neue,Helvetica,sans-serif; font-size:89px; text-anchor:middle;" transform="rotate(0, 693.191, 1036.78)" x="693.191" y="1036.78">2</text>
</g>
<g clip-path="url(#clip230)">
<text style="fill:#000000; fill-opacity:1; font-family:Arial,Helvetica Neue,Helvetica,sans-serif; font-size:89px; text-anchor:middle;" transform="rotate(0, 1008.77, 1036.78)" x="1008.77" y="1036.78">3</text>
</g>
<g clip-path="url(#clip230)">
<text style="fill:#000000; fill-opacity:1; font-family:Arial,Helvetica Neue,Helvetica,sans-serif; font-size:89px; text-anchor:middle;" transform="rotate(0, 1324.35, 1036.78)" x="1324.35" y="1036.78">4</text>
</g>
<g clip-path="url(#clip230)">
<text style="fill:#000000; fill-opacity:1; font-family:Arial,Helvetica Neue,Helvetica,sans-serif; font-size:89px; text-anchor:middle;" transform="rotate(0, 850.981, 1144.21)" x="850.981" y="1144.21">Affinity type t</text>
</g>
<polyline clip-path="url(#clip230)" style="stroke:#000000; stroke-linecap:butt; stroke-linejoin:round; stroke-width:4; stroke-opacity:1; fill:none" points="
  349.207,947.582 349.207,47.2441 
  "/>
<polyline clip-path="url(#clip230)" style="stroke:#000000; stroke-linecap:butt; stroke-linejoin:round; stroke-width:4; stroke-opacity:1; fill:none" points="
  349.207,833.725 368.104,833.725 
  "/>
<polyline clip-path="url(#clip230)" style="stroke:#000000; stroke-linecap:butt; stroke-linejoin:round; stroke-width:4; stroke-opacity:1; fill:none" points="
  349.207,658.404 368.104,658.404 
  "/>
<polyline clip-path="url(#clip230)" style="stroke:#000000; stroke-linecap:butt; stroke-linejoin:round; stroke-width:4; stroke-opacity:1; fill:none" points="
  349.207,483.082 368.104,483.082 
  "/>
<polyline clip-path="url(#clip230)" style="stroke:#000000; stroke-linecap:butt; stroke-linejoin:round; stroke-width:4; stroke-opacity:1; fill:none" points="
  349.207,307.76 368.104,307.76 
  "/>
<polyline clip-path="url(#clip230)" style="stroke:#000000; stroke-linecap:butt; stroke-linejoin:round; stroke-width:4; stroke-opacity:1; fill:none" points="
  349.207,132.439 368.104,132.439 
  "/>
<g clip-path="url(#clip230)">
<text style="fill:#000000; fill-opacity:1; font-family:Arial,Helvetica Neue,Helvetica,sans-serif; font-size:89px; text-anchor:end;" transform="rotate(0, 328.207, 866.225)" x="328.207" y="866.225">−0.2</text>
</g>
<g clip-path="url(#clip230)">
<text style="fill:#000000; fill-opacity:1; font-family:Arial,Helvetica Neue,Helvetica,sans-serif; font-size:89px; text-anchor:end;" transform="rotate(0, 328.207, 690.904)" x="328.207" y="690.904">−0.1</text>
</g>
<g clip-path="url(#clip230)">
<text style="fill:#000000; fill-opacity:1; font-family:Arial,Helvetica Neue,Helvetica,sans-serif; font-size:89px; text-anchor:end;" transform="rotate(0, 328.207, 515.582)" x="328.207" y="515.582">0.0</text>
</g>
<g clip-path="url(#clip230)">
<text style="fill:#000000; fill-opacity:1; font-family:Arial,Helvetica Neue,Helvetica,sans-serif; font-size:89px; text-anchor:end;" transform="rotate(0, 328.207, 340.26)" x="328.207" y="340.26">0.1</text>
</g>
<g clip-path="url(#clip230)">
<text style="fill:#000000; fill-opacity:1; font-family:Arial,Helvetica Neue,Helvetica,sans-serif; font-size:89px; text-anchor:end;" transform="rotate(0, 328.207, 164.939)" x="328.207" y="164.939">0.2</text>
</g>
<g clip-path="url(#clip230)">
<text style="fill:#000000; fill-opacity:1; font-family:Arial,Helvetica Neue,Helvetica,sans-serif; font-size:89px; text-anchor:middle;" transform="rotate(-90, 115.267, 497.413)" x="115.267" y="497.413">Normalized Bias</text>
</g>
<polyline clip-path="url(#clip232)" style="stroke:#808080; stroke-linecap:butt; stroke-linejoin:round; stroke-width:8; stroke-opacity:1; fill:none" points="
  377.609,483.082 1324.35,483.082 
  "/>
<path clip-path="url(#clip232)" d="
M377.609 480.114 L693.191 853.74 L1008.77 879.131 L1324.35 105.708 L1324.35 138.211 L1008.77 915.07 L693.191 922.101 L377.609 481.723  Z
  " fill="#0000ff" fill-rule="evenodd" fill-opacity="0.3"/>
<polyline clip-path="url(#clip232)" style="stroke:#0000ff; stroke-linecap:butt; stroke-linejoin:round; stroke-width:10; stroke-opacity:1; fill:none" points="
  377.609,480.114 693.191,853.74 1008.77,879.131 1324.35,105.708 
  "/>
<circle clip-path="url(#clip232)" cx="377.609" cy="480.114" r="28" fill="#0000ff" fill-rule="evenodd" fill-opacity="1" stroke="none"/>
<circle clip-path="url(#clip232)" cx="693.191" cy="853.74" r="28" fill="#0000ff" fill-rule="evenodd" fill-opacity="1" stroke="none"/>
<circle clip-path="url(#clip232)" cx="1008.77" cy="879.131" r="28" fill="#0000ff" fill-rule="evenodd" fill-opacity="1" stroke="none"/>
<circle clip-path="url(#clip232)" cx="1324.35" cy="105.708" r="28" fill="#0000ff" fill-rule="evenodd" fill-opacity="1" stroke="none"/>
<path clip-path="url(#clip232)" d="
M377.609 480.114 L693.191 853.74 L1008.77 879.131 L1324.35 105.708 L1324.35 72.7254 L1008.77 841.566 L693.191 797.048 L377.609 478.125  Z
  " fill="#0000ff" fill-rule="evenodd" fill-opacity="0.3"/>
<polyline clip-path="url(#clip232)" style="stroke:#0000ff; stroke-linecap:butt; stroke-linejoin:round; stroke-width:10; stroke-opacity:1; fill:none" points="
  377.609,480.114 693.191,853.74 1008.77,879.131 1324.35,105.708 
  "/>
<circle clip-path="url(#clip232)" cx="377.609" cy="480.114" r="28" fill="#0000ff" fill-rule="evenodd" fill-opacity="1" stroke="none"/>
<circle clip-path="url(#clip232)" cx="693.191" cy="853.74" r="28" fill="#0000ff" fill-rule="evenodd" fill-opacity="1" stroke="none"/>
<circle clip-path="url(#clip232)" cx="1008.77" cy="879.131" r="28" fill="#0000ff" fill-rule="evenodd" fill-opacity="1" stroke="none"/>
<circle clip-path="url(#clip232)" cx="1324.35" cy="105.708" r="28" fill="#0000ff" fill-rule="evenodd" fill-opacity="1" stroke="none"/>
<path clip-path="url(#clip232)" d="
M377.609 626.336 L693.191 596.215 L1008.77 400.329 L1324.35 442.161 L1324.35 454.258 L1008.77 420.602 L693.191 654.638 L377.609 669.062  Z
  " fill="#008000" fill-rule="evenodd" fill-opacity="0.3"/>
<polyline clip-path="url(#clip232)" style="stroke:#008000; stroke-linecap:butt; stroke-linejoin:round; stroke-width:10; stroke-opacity:1; fill:none" points="
  377.609,626.336 693.191,596.215 1008.77,400.329 1324.35,442.161 
  "/>
<path clip-path="url(#clip232)" d="M377.609 594.336 L345.609 626.336 L377.609 658.336 L409.609 626.336 L377.609 594.336 Z" fill="#008000" fill-rule="evenodd" fill-opacity="1" stroke="none"/>
<path clip-path="url(#clip232)" d="M693.191 564.215 L661.191 596.215 L693.191 628.215 L725.191 596.215 L693.191 564.215 Z" fill="#008000" fill-rule="evenodd" fill-opacity="1" stroke="none"/>
<path clip-path="url(#clip232)" d="M1008.77 368.329 L976.772 400.329 L1008.77 432.329 L1040.77 400.329 L1008.77 368.329 Z" fill="#008000" fill-rule="evenodd" fill-opacity="1" stroke="none"/>
<path clip-path="url(#clip232)" d="M1324.35 410.161 L1292.35 442.161 L1324.35 474.161 L1356.35 442.161 L1324.35 410.161 Z" fill="#008000" fill-rule="evenodd" fill-opacity="1" stroke="none"/>
<path clip-path="url(#clip232)" d="
M377.609 626.336 L693.191 596.215 L1008.77 400.329 L1324.35 442.161 L1324.35 429.24 L1008.77 374.845 L693.191 552.889 L377.609 582.489  Z
  " fill="#008000" fill-rule="evenodd" fill-opacity="0.3"/>
<polyline clip-path="url(#clip232)" style="stroke:#008000; stroke-linecap:butt; stroke-linejoin:round; stroke-width:10; stroke-opacity:1; fill:none" points="
  377.609,626.336 693.191,596.215 1008.77,400.329 1324.35,442.161 
  "/>
<path clip-path="url(#clip232)" d="M377.609 594.336 L345.609 626.336 L377.609 658.336 L409.609 626.336 L377.609 594.336 Z" fill="#008000" fill-rule="evenodd" fill-opacity="1" stroke="none"/>
<path clip-path="url(#clip232)" d="M693.191 564.215 L661.191 596.215 L693.191 628.215 L725.191 596.215 L693.191 564.215 Z" fill="#008000" fill-rule="evenodd" fill-opacity="1" stroke="none"/>
<path clip-path="url(#clip232)" d="M1008.77 368.329 L976.772 400.329 L1008.77 432.329 L1040.77 400.329 L1008.77 368.329 Z" fill="#008000" fill-rule="evenodd" fill-opacity="1" stroke="none"/>
<path clip-path="url(#clip232)" d="M1324.35 410.161 L1292.35 442.161 L1324.35 474.161 L1356.35 442.161 L1324.35 410.161 Z" fill="#008000" fill-rule="evenodd" fill-opacity="1" stroke="none"/>
</svg>
